<?xml version="1.0" encoding="UTF-8" standalone="no"?>
<!-- Created with Inkscape (http://www.inkscape.org/) -->

<svg
   width="200"
   height="200"
   viewBox="0 0 200 200"
   version="1.1"
   id="svg1"
   xml:space="preserve"
   inkscape:version="1.3.2 (091e20e, 2023-11-25, custom)"
   sodipodi:docname="styles-v01.svg"
   inkscape:export-filename="010-shelf-filter.svg"
   inkscape:export-xdpi="96"
   inkscape:export-ydpi="96"
   xmlns:inkscape="http://www.inkscape.org/namespaces/inkscape"
   xmlns:sodipodi="http://sodipodi.sourceforge.net/DTD/sodipodi-0.dtd"
   xmlns="http://www.w3.org/2000/svg"
   xmlns:svg="http://www.w3.org/2000/svg"><sodipodi:namedview
     id="namedview1"
     pagecolor="#ffffff"
     bordercolor="#666666"
     borderopacity="1.0"
     inkscape:showpageshadow="2"
     inkscape:pageopacity="0.0"
     inkscape:pagecheckerboard="0"
     inkscape:deskcolor="#d1d1d1"
     inkscape:document-units="px"
     inkscape:zoom="2.315"
     inkscape:cx="173.65011"
     inkscape:cy="102.59179"
     inkscape:window-width="2560"
     inkscape:window-height="1377"
     inkscape:window-x="1912"
     inkscape:window-y="-8"
     inkscape:window-maximized="1"
     inkscape:current-layer="layer3"
     showgrid="false" /><defs
     id="defs1" /><g
     inkscape:groupmode="layer"
     id="layer5"
     inkscape:label="SVG filters"
     style="display:inline"><g
       inkscape:groupmode="layer"
       id="layer3"
       inkscape:label="010-ocean"
       style="display:inline"><rect
         style="display:inline;fill:#bdd9ea;fill-opacity:1;stroke:none;stroke-width:2.13543;stroke-linecap:round;stroke-linejoin:round;stroke-dasharray:none;stroke-opacity:1"
         id="rect22"
         width="200"
         height="200"
         x="0"
         y="0"
         inkscape:label="ocean" /><path
         id="path6"
         style="display:inline;fill:#808080;fill-opacity:1;stroke:none;stroke-width:1px;stroke-linecap:butt;stroke-linejoin:miter;stroke-opacity:1"
         d="M -10,-10 V 176.24219 L 42.763672,137.79688 69.978516,81.640625 71.707031,35.421875 63.931641,-10 Z m 166.37109,0 14.6875,42.396484 -8.20703,33.261719 -15.11914,49.244137 -36.28515,54.42774 L 71.707031,210 H 210 V -10 Z"
         inkscape:label="Trace-Shelf" /><path
         id="path7"
         style="display:inline;fill:#000000;fill-opacity:1;stroke:none;stroke-width:1px;stroke-linecap:butt;stroke-linejoin:miter;stroke-opacity:1"
         d="M 3.8457031,30.449219 0,31 h -5 v 27 h 5 l 1.9003906,3.341797 1.5917969,1.679687 4.7285156,-1.857422 2.8710939,-1.677734 0.04492,-1.857422 -1.5019534,-1.90039 -0.3984375,-2.650391 0.8398439,-0.839844 2.652344,-3.71289 -0.398438,-2.208985 -1.501953,-1.105468 c 0,0 -0.9277344,-2.563458 -0.9277344,-2.740235 0,-0.176777 0.7070314,-2.828125 0.7070314,-2.828125 L 10.384766,37.431641 8.1757812,35.443359 6.8496094,31.775391 Z M 205,135 h -5 l -3.51367,7.48242 -6.53906,4.50781 -5.30469,-1.06054 -4.6836,-1.32617 -7.33593,7.16015 -1.32617,3.53516 0.52929,5.83398 -2.38476,3.0918 -5.03907,2.12305 -0.35351,2.03125 0.79492,4.68554 4.33203,-0.4414 3.44727,1.06054 3.26953,3.00391 0.79492,2.12305 -1.41406,4.5957 1.94531,4.5957 5.48047,1.14844 0.79492,3.00586 L 183.84766,205 H 205 Z"
         sodipodi:nodetypes="ccccccccccccccccsccccccccccccccccccccccccccccc"
         inkscape:label="Trace-Coast" /></g></g></svg>
