<?xml version="1.0" encoding="UTF-8" standalone="no"?>
<!-- Created with Inkscape (http://www.inkscape.org/) -->

<svg
   width="200"
   height="200"
   viewBox="0 0 200 200"
   version="1.1"
   id="svg1"
   xml:space="preserve"
   inkscape:version="1.3.2 (091e20e, 2023-11-25, custom)"
   sodipodi:docname="styles-v01.svg"
   inkscape:export-filename="020-plains-filter.svg"
   inkscape:export-xdpi="96"
   inkscape:export-ydpi="96"
   xmlns:inkscape="http://www.inkscape.org/namespaces/inkscape"
   xmlns:sodipodi="http://sodipodi.sourceforge.net/DTD/sodipodi-0.dtd"
   xmlns="http://www.w3.org/2000/svg"
   xmlns:svg="http://www.w3.org/2000/svg"><sodipodi:namedview
     id="namedview1"
     pagecolor="#ffffff"
     bordercolor="#666666"
     borderopacity="1.0"
     inkscape:showpageshadow="2"
     inkscape:pageopacity="0.0"
     inkscape:pagecheckerboard="0"
     inkscape:deskcolor="#d1d1d1"
     inkscape:document-units="px"
     inkscape:zoom="2.315"
     inkscape:cx="239.52484"
     inkscape:cy="49.028078"
     inkscape:window-width="2560"
     inkscape:window-height="1377"
     inkscape:window-x="1912"
     inkscape:window-y="-8"
     inkscape:window-maximized="1"
     inkscape:current-layer="layer2"
     showgrid="false" /><defs
     id="defs1"><filter
       style="color-interpolation-filters:sRGB"
       id="filter29"
       x="-0.42126173"
       y="-0.45116192"
       width="1.8425235"
       height="1.9023238"
       inkscape:label="CoastShelf"><feColorMatrix
         id="feColorMatrix4"
         values="0 0 0 0 0.90000000000000002 0 0 0 0 0.94999999999999996 0 0 0 0 0.96999999999999997 0 0 0 0.5 0"
         in="SourceAlpha"
         result="result11" /><feMorphology
         radius="12"
         id="feMorphology24"
         operator="dilate"
         result="result9"
         in="result11" /><feGaussianBlur
         stdDeviation="5"
         id="feGaussianBlur24"
         result="result1"
         radius="5" /><feTurbulence
         id="feTurbulence24"
         baseFrequency="0.10000000000000001"
         type="turbulence"
         result="result8" /><feColorMatrix
         id="feColorMatrix24"
         values="0 0 0 0 1 0 0 0 0 1 0 0 0 0 1 0 0 0 20 -4"
         result="result2" /><feComposite
         id="feComposite24"
         operator="in"
         result="result3"
         in="result1" /><feGaussianBlur
         stdDeviation="4"
         id="feGaussianBlur26"
         in="result3"
         result="result10" /><feBlend
         mode="color-dodge"
         id="feBlend26"
         result="result7"
         in2="result1" /><feColorMatrix
         id="feColorMatrix5"
         values="0 0 0 0 0.90000000000000002 0 0 0 0 0.94999999999999996 0 0 0 0 0.96999999999999997 0 0 0 0.29999999999999999 0"
         in="SourceAlpha"
         result="result12" /><feMorphology
         radius="25"
         id="feMorphology4"
         in="result12"
         result="result13"
         operator="dilate" /><feGaussianBlur
         stdDeviation="4"
         id="feGaussianBlur5"
         result="result14" /><feBlend
         mode="color-dodge"
         id="feBlend5"
         result="result15"
         in="result14"
         in2="result7" /></filter></defs><g
     inkscape:groupmode="layer"
     id="layer5"
     inkscape:label="SVG filters"
     style="display:inline"><g
       inkscape:groupmode="layer"
       id="layer4"
       inkscape:label="020-plains"
       style="display:inline"><rect
         style="display:inline;fill:#bdd9ea;fill-opacity:1;stroke:none;stroke-width:2.13543;stroke-linecap:round;stroke-linejoin:round;stroke-dasharray:none;stroke-opacity:1"
         id="rect13"
         width="200"
         height="200"
         x="0"
         y="0"
         inkscape:label="ocean" /><path
         style="font-variation-settings:normal;display:inline;opacity:1;vector-effect:none;fill:#ffffff;fill-opacity:1;stroke:none;stroke-width:1px;stroke-linecap:butt;stroke-linejoin:miter;stroke-miterlimit:4;stroke-dasharray:none;stroke-dashoffset:0;stroke-opacity:1;-inkscape-stroke:none;filter:url(#filter29);stop-color:#000000;stop-opacity:1"
         d="m 0.22893993,106.18682 -0.39606007,-1.18818 1.56031564,0.59875 1.5603156,0.59875 1.152964,-2.53048 1.1529639,-2.53048 2.6202805,-0.92492 L 10.5,99.28534 21.101812,95.14267 31.703625,91 h 1.58917 1.589171 l 0.670659,1.085149 0.670659,1.08515 5.138358,-0.319035 5.138358,-0.319036 1.266312,0.802984 1.266312,0.802985 -0.552787,0.894427 -0.552786,0.894427 2.036474,2.036474 L 52,100 v 2.41667 2.41666 l -1.222221,0.40741 -1.222221,0.40741 1.84596,5.92592 1.84596,5.92593 0.741395,1.5 0.741395,1.5 2.745318,0.0408 2.745319,0.0408 1.389547,1.90032 1.389548,1.90032 0.01531,2.55887 0.01531,2.55887 0.8739,1.37976 0.8739,1.37976 3.360787,-0.67442 3.360787,-0.67443 3.24886,-0.28533 3.248859,-0.28534 1.595347,1.76284 1.595347,1.76284 -0.682658,3.10812 -0.682658,3.10812 1.210896,1.45904 L 82.244889,143 h 2.830503 2.830502 l 2.547053,1.16052 L 93,145.32103 v 1.71704 1.71704 l 1.452012,1.20506 1.452012,1.20507 2.165611,-0.68734 2.165615,-0.68734 -0.522991,-3.89916 -0.522988,-3.89917 0.505547,-1.93321 0.505542,-1.93322 3.04905,-1.0629 3.04904,-1.0629 2.60077,0.007 2.60078,0.007 3,1.98682 3,1.98682 1.68191,0.007 1.6819,0.007 2.16278,-3.03734 2.16277,-3.03733 2.15532,0.60677 2.15532,0.60677 3.72331,4.15819 3.72332,4.15819 1.51951,-1.97762 1.51951,-1.97763 0.66351,-2.44095 0.66351,-2.44095 -1.15634,-4.3234 L 139,125.9713 v -3.66465 -3.66465 l -1.11871,-3.071 -1.11872,-3.071 -4.38128,-2.71152 L 128,107.07695 v -2.50329 -2.50329 l -2.15349,-1.15251 -2.15349,-1.152516 -4.47198,-0.177885 -4.47199,-0.177885 -2.37452,-2.760551 L 110,93.888473 V 92.603165 91.317858 L 104.9213,88.553681 99.842593,85.789504 97.926013,82.644752 96.009434,79.5 96.60965,76.283889 97.209867,73.067778 93.174629,71.453196 89.139391,69.838614 88.145484,66.987492 87.151578,64.13637 87.646245,62.244759 88.140912,60.353149 86.096455,56.888053 84.051999,53.422957 83.747069,51.461478 83.44214,49.5 82.781055,48.44255 82.119971,47.3851 81.456987,42.387283 80.794003,37.389465 85.42557,32.444733 90.057137,27.5 90.656314,25.172953 91.255491,22.845907 90.045656,20.58531 88.835822,18.324713 89.167911,15.444658 89.5,12.564603 92.897883,10.282301 96.295766,8 h 3.160988 3.160986 l 1.94113,1.4681966 1.94113,1.4681964 2.93555,0.0318 2.93555,0.0318 2.09145,1.964819 2.09146,1.964819 6.20321,0.244977 6.20321,0.244978 1.98647,-2.132223 1.98647,-2.132223 2.35021,0.672426 2.3502,0.672427 3.21988,2.5 3.21987,2.5 3.21324,2.615081 3.21323,2.61508 2.10065,0.654907 2.10066,0.654906 3.51308,-4.509198 3.51309,-4.509198 -0.92134,-4.760789 L 159.8848,5.5 159.02926,2.75 158.17373,0 H 0 Z"
         id="path13"
         sodipodi:nodetypes="cccccccccccccccccccccccccccccccccccccccccccccccccccccccccccccccccccccccccccccccccccccccccccccccccccccccccccccccccccccccccccccccccccccccccccccccccccccccccccc"
         inkscape:label="Coast" /><path
         style="display:inline;fill:#000000"
         d="m 0.22893993,106.18682 -0.39606007,-1.18818 1.56031564,0.59875 1.5603156,0.59875 1.152964,-2.53048 1.1529639,-2.53048 2.6202805,-0.92492 L 10.5,99.28534 21.101812,95.14267 31.703625,91 h 1.58917 1.589171 l 0.670659,1.085149 0.670659,1.08515 5.138358,-0.319035 5.138358,-0.319036 1.266312,0.802984 1.266312,0.802985 -0.552787,0.894427 -0.552786,0.894427 2.036474,2.036474 L 52,100 v 2.41667 2.41666 l -1.222221,0.40741 -1.222221,0.40741 1.84596,5.92592 1.84596,5.92593 0.741395,1.5 0.741395,1.5 2.745318,0.0408 2.745319,0.0408 1.389547,1.90032 1.389548,1.90032 0.01531,2.55887 0.01531,2.55887 0.8739,1.37976 0.8739,1.37976 3.360787,-0.67442 3.360787,-0.67443 3.24886,-0.28533 3.248859,-0.28534 1.595347,1.76284 1.595347,1.76284 -0.682658,3.10812 -0.682658,3.10812 1.210896,1.45904 L 82.244889,143 h 2.830503 2.830502 l 2.547053,1.16052 L 93,145.32103 v 1.71704 1.71704 l 1.452012,1.20506 1.452012,1.20507 2.165611,-0.68734 2.165615,-0.68734 -0.522991,-3.89916 -0.522988,-3.89917 0.505547,-1.93321 0.505542,-1.93322 3.04905,-1.0629 3.04904,-1.0629 2.60077,0.007 2.60078,0.007 3,1.98682 3,1.98682 1.68191,0.007 1.6819,0.007 2.16278,-3.03734 2.16277,-3.03733 2.15532,0.60677 2.15532,0.60677 3.72331,4.15819 3.72332,4.15819 1.51951,-1.97762 1.51951,-1.97763 0.66351,-2.44095 0.66351,-2.44095 -1.15634,-4.3234 L 139,125.9713 v -3.66465 -3.66465 l -1.11871,-3.071 -1.11872,-3.071 -4.38128,-2.71152 L 128,107.07695 v -2.50329 -2.50329 l -2.15349,-1.15251 -2.15349,-1.152516 -4.47198,-0.177885 -4.47199,-0.177885 -2.37452,-2.760551 L 110,93.888473 V 92.603165 91.317858 L 104.9213,88.553681 99.842593,85.789504 97.926013,82.644752 96.009434,79.5 96.60965,76.283889 97.209867,73.067778 93.174629,71.453196 89.139391,69.838614 88.145484,66.987492 87.151578,64.13637 87.646245,62.244759 88.140912,60.353149 86.096455,56.888053 84.051999,53.422957 83.747069,51.461478 83.44214,49.5 82.781055,48.44255 82.119971,47.3851 81.456987,42.387283 80.794003,37.389465 85.42557,32.444733 90.057137,27.5 90.656314,25.172953 91.255491,22.845907 90.045656,20.58531 88.835822,18.324713 89.167911,15.444658 89.5,12.564603 92.897883,10.282301 96.295766,8 h 3.160988 3.160986 l 1.94113,1.4681966 1.94113,1.4681964 2.93555,0.0318 2.93555,0.0318 2.09145,1.964819 2.09146,1.964819 6.20321,0.244977 6.20321,0.244978 1.98647,-2.132223 1.98647,-2.132223 2.35021,0.672426 2.3502,0.672427 3.21988,2.5 3.21987,2.5 3.21324,2.615081 3.21323,2.61508 2.10065,0.654907 2.10066,0.654906 3.51308,-4.509198 3.51309,-4.509198 -0.92134,-4.760789 L 159.8848,5.5 159.02926,2.75 158.17373,0 H 0 Z"
         id="path4"
         sodipodi:nodetypes="cccccccccccccccccccccccccccccccccccccccccccccccccccccccccccccccccccccccccccccccccccccccccccccccccccccccccccccccccccccccccccccccccccccccccccccccccccccccccccc"
         inkscape:label="Trace-Land" /></g></g></svg>
