<?xml version="1.0" encoding="UTF-8" standalone="no"?>
<!-- Created with Inkscape (http://www.inkscape.org/) -->

<svg
   width="200"
   height="200"
   viewBox="0 0 200 200"
   version="1.1"
   id="svg1"
   xml:space="preserve"
   inkscape:version="1.3.2 (091e20e, 2023-11-25, custom)"
   sodipodi:docname="styles-v01.svg"
   inkscape:export-filename="040-forest-filter.svg"
   inkscape:export-xdpi="96"
   inkscape:export-ydpi="96"
   xmlns:inkscape="http://www.inkscape.org/namespaces/inkscape"
   xmlns:sodipodi="http://sodipodi.sourceforge.net/DTD/sodipodi-0.dtd"
   xmlns="http://www.w3.org/2000/svg"
   xmlns:svg="http://www.w3.org/2000/svg"><sodipodi:namedview
     id="namedview1"
     pagecolor="#ffffff"
     bordercolor="#666666"
     borderopacity="1.0"
     inkscape:showpageshadow="2"
     inkscape:pageopacity="0.0"
     inkscape:pagecheckerboard="0"
     inkscape:deskcolor="#d1d1d1"
     inkscape:document-units="px"
     inkscape:zoom="2.8284271"
     inkscape:cx="160.86679"
     inkscape:cy="72.301669"
     inkscape:window-width="1920"
     inkscape:window-height="1137"
     inkscape:window-x="-8"
     inkscape:window-y="224"
     inkscape:window-maximized="1"
     inkscape:current-layer="layer6"
     showgrid="false" /><defs
     id="defs1"><filter
       style="color-interpolation-filters:sRGB"
       id="filter16"
       x="-0.048179495"
       y="-0.051599164"
       width="1.096359"
       height="1.1031983"
       inkscape:label="PlainsFill"><feTurbulence
         id="feTurbulence14"
         baseFrequency="0.20000000000000001"
         type="turbulence"
         result="result10" /><feGaussianBlur
         stdDeviation="0.80000000000000004"
         id="feGaussianBlur15"
         result="result5" /><feColorMatrix
         id="feColorMatrix14"
         values="0 0 0 0 1 0 0 0 0 1 0 0 0 0 1 0 0 0 8.8000000000000007 -4"
         result="result4" /><feColorMatrix
         id="feColorMatrix15"
         values="0 0 0 0 0.57999999999999996 0 0 0 0 0.55000000000000004 0 0 0 0 0.46999999999999997 0 0 0 20 0"
         result="result6" /><feGaussianBlur
         stdDeviation="0.75"
         id="feGaussianBlur16"
         result="result11" /><feTurbulence
         id="feTurbulence16"
         type="fractalNoise"
         baseFrequency="0.074999999999999997"
         result="result20" /><feColorMatrix
         id="feColorMatrix16"
         values="0 0 0 1 0 0 0 0 1 0 0 0 0 1 0 0 0 0 0 1"
         result="result21" /><feComponentTransfer
         id="feComponentTransfer16"
         result="result12"><feFuncR
           id="feFuncR16"
           type="table"
           tableValues="0.95,0.95,0.95,0.98,0.99,0.99,0.99" /><feFuncG
           id="feFuncG16"
           type="table"
           tableValues="0.9,0.9,0.9,0.94,0.95,0.95,0.95" /><feFuncB
           id="feFuncB16"
           type="table"
           tableValues="0.83,0.83,0.83,0.88,0.89,0.89,0.89" /><feFuncA
           id="feFuncA16"
           type="identity" /></feComponentTransfer><feComposite
         id="feComposite16"
         in="result11"
         in2="result12"
         operator="over"
         result="result13" /><feGaussianBlur
         stdDeviation="1"
         id="feGaussianBlur1"
         in="SourceAlpha"
         result="result14" /><feColorMatrix
         id="feColorMatrix1"
         values="0 0 0 0 0 0 0 0 0 0 0 0 0 0 0 0 0 0 200 -100"
         result="result15" /><feGaussianBlur
         stdDeviation="0.29999999999999999"
         id="feGaussianBlur2"
         result="result16" /><feComposite
         id="feComposite1"
         in2="result16"
         operator="in"
         in="result13"
         result="result17" /><feColorMatrix
         id="feColorMatrix2"
         values="0 0 0 0 0.69999999999999996 0 0 0 0 0.84999999999999998 0 0 0 0 0.92000000000000004 0 0 0 200 -5"
         in="result14" /><feGaussianBlur
         stdDeviation="0.40000000000000002"
         id="feGaussianBlur3"
         result="result18" /><feComposite
         id="feComposite3"
         in2="result18"
         operator="over"
         in="result17"
         result="result19" /><feMerge
         id="feMerge5"><feMergeNode
           inkscape:collect="always"
           id="feMergeNode5"
           in="result19" /></feMerge></filter><filter
       style="color-interpolation-filters:sRGB"
       id="filter29"
       x="-0.42126173"
       y="-0.45116192"
       width="1.8425235"
       height="1.9023238"
       inkscape:label="CoastShelf"><feColorMatrix
         id="feColorMatrix4"
         values="0 0 0 0 0.90000000000000002 0 0 0 0 0.94999999999999996 0 0 0 0 0.96999999999999997 0 0 0 0.5 0"
         in="SourceAlpha"
         result="result11" /><feMorphology
         radius="12"
         id="feMorphology24"
         operator="dilate"
         result="result9"
         in="result11" /><feGaussianBlur
         stdDeviation="5"
         id="feGaussianBlur24"
         result="result1"
         radius="5" /><feTurbulence
         id="feTurbulence24"
         baseFrequency="0.10000000000000001"
         type="turbulence"
         result="result8" /><feColorMatrix
         id="feColorMatrix24"
         values="0 0 0 0 1 0 0 0 0 1 0 0 0 0 1 0 0 0 20 -4"
         result="result2" /><feComposite
         id="feComposite24"
         operator="in"
         result="result3"
         in="result1" /><feGaussianBlur
         stdDeviation="4"
         id="feGaussianBlur26"
         in="result3"
         result="result10" /><feBlend
         mode="color-dodge"
         id="feBlend26"
         result="result7"
         in2="result1" /><feColorMatrix
         id="feColorMatrix5"
         values="0 0 0 0 0.90000000000000002 0 0 0 0 0.94999999999999996 0 0 0 0 0.96999999999999997 0 0 0 0.29999999999999999 0"
         in="SourceAlpha"
         result="result12" /><feMorphology
         radius="25"
         id="feMorphology4"
         in="result12"
         result="result13"
         operator="dilate" /><feGaussianBlur
         stdDeviation="4"
         id="feGaussianBlur5"
         result="result14" /><feBlend
         mode="color-dodge"
         id="feBlend5"
         result="result15"
         in="result14"
         in2="result7" /></filter><filter
       style="color-interpolation-filters:sRGB"
       id="filter10"
       inkscape:label="Blur"
       x="-0.02821318"
       y="-0.039035547"
       width="1.0564264"
       height="1.0780711"><feGaussianBlur
         stdDeviation="2"
         id="feGaussianBlur10" /></filter><filter
       style="color-interpolation-filters:sRGB"
       id="filter10-2"
       inkscape:label="Blur"
       x="-0.20497234"
       y="-0.12114434"
       width="1.3682443"
       height="1.1905043"><feGaussianBlur
         stdDeviation="0.5"
         id="feGaussianBlur10-0" /></filter></defs><g
     inkscape:groupmode="layer"
     id="layer5"
     inkscape:label="SVG filters"
     style="display:inline"><g
       inkscape:groupmode="layer"
       id="layer6"
       inkscape:label="040-forest"><rect
         style="display:inline;fill:#bdd9ea;fill-opacity:1;stroke:none;stroke-width:2.13543;stroke-linecap:round;stroke-linejoin:round;stroke-dasharray:none;stroke-opacity:1"
         id="rect15"
         width="200"
         height="200"
         x="0"
         y="0"
         inkscape:label="ocean" /><path
         id="path14"
         style="font-variation-settings:normal;display:inline;opacity:1;vector-effect:none;fill:#ffffff;fill-opacity:1;stroke:none;stroke-width:1px;stroke-linecap:butt;stroke-linejoin:miter;stroke-miterlimit:4;stroke-dasharray:none;stroke-dashoffset:0;stroke-opacity:1;-inkscape-stroke:none;filter:url(#filter29);stop-color:#000000;stop-opacity:1"
         d="m -10,-10 v 220 h 50.171875 l -0.214844,-11.08008 1.511719,-8.85547 7.992188,-8.85547 5.830078,-1.29492 v -2.80859 l 0.43164,-3.45508 6.91211,-7.77539 2.376953,-3.67188 5.615234,-0.86328 h 2.806641 l 3.023437,-3.67187 1.080078,-2.80859 5.183594,-1.51172 9.072266,-6.26368 6.912109,-0.86328 3.669922,6.04688 4.10352,-0.43164 3.67187,1.51172 1.72852,3.67187 3.24023,2.375 7.55859,-0.86328 7.99219,-6.69531 13.82227,-5.83203 4.75195,-2.48243 1.72852,4.21094 2.80664,1.72852 4.32031,-0.64844 4.32031,2.16016 3.45508,3.88672 11.87891,0.64843 3.88671,-1.29687 5.4004,-4.9668 7.99218,-2.375 L 210,136.93359 V 90.064453 l -10.2168,-4.535156 -6.47851,-4.103516 -3.45508,-1.080078 -3.45703,2.808594 -1.72656,0.646484 -2.8086,-2.591797 -1.94336,-4.318359 1.4043,-3.619141 -0.75586,-2.96875 -5.40039,1.242188 -5.29102,3.185547 -3.29492,4.210937 -3.77929,1.404297 -4.64258,-1.673828 -4.32032,1.080078 h -9.34179 l -2.5918,-2.429687 2.37695,-3.457032 6.10157,-1.835937 3.45507,-4.103516 1.24219,-6.316406 6.04688,-5.615234 -0.16211,-11.716797 -1.45899,-7.298828 6.16602,-0.101563 5.33594,-1.130859 4.05078,-4.96875 3.34765,-12.203125 5.56055,-6.587891 3.64453,-1.970703 3.91602,2.511719 1.1875,6.640625 3.18554,2.970703 L 210,21.759766 V -10 Z m 209.46094,48.984375 -3.67188,1.296875 -2.37695,3.5625 1.4043,2.269531 -1.83594,5.50586 0.86328,2.808593 1.29687,2.050782 0.75586,2.591796 1.61914,-0.214843 2.48438,2.160156 10,0.107422 V 38.984375 Z"
         inkscape:label="Coast" /><path
         id="path15"
         style="font-variation-settings:normal;display:inline;opacity:1;vector-effect:none;fill:#fbf2e1;fill-opacity:1;stroke:#000000;stroke-width:1;stroke-linecap:butt;stroke-linejoin:miter;stroke-miterlimit:4;stroke-dasharray:none;stroke-dashoffset:0;stroke-opacity:1;-inkscape-stroke:none;filter:url(#filter16);stop-color:#000000;stop-opacity:1"
         d="m -10,-10 v 220 h 50.171875 l -0.214844,-11.08008 1.511719,-8.85547 7.992188,-8.85547 5.830078,-1.29492 v -2.80859 l 0.43164,-3.45508 6.91211,-7.77539 2.376953,-3.67188 5.615234,-0.86328 h 2.806641 l 3.023437,-3.67187 1.080078,-2.80859 5.183594,-1.51172 9.072266,-6.26368 6.912109,-0.86328 3.669922,6.04688 4.10352,-0.43164 3.67187,1.51172 1.72852,3.67187 3.24023,2.375 7.55859,-0.86328 7.99219,-6.69531 13.82227,-5.83203 4.75195,-2.48243 1.72852,4.21094 2.80664,1.72852 4.32031,-0.64844 4.32031,2.16016 3.45508,3.88672 11.87891,0.64843 3.88671,-1.29687 5.4004,-4.9668 7.99218,-2.375 L 210,136.93359 V 90.064453 l -10.2168,-4.535156 -6.47851,-4.103516 -3.45508,-1.080078 -3.45703,2.808594 -1.72656,0.646484 -2.8086,-2.591797 -1.94336,-4.318359 1.4043,-3.619141 -0.75586,-2.96875 -5.40039,1.242188 -5.29102,3.185547 -3.29492,4.210937 -3.77929,1.404297 -4.64258,-1.673828 -4.32032,1.080078 h -9.34179 l -2.5918,-2.429687 2.37695,-3.457032 6.10157,-1.835937 3.45507,-4.103516 1.24219,-6.316406 6.04688,-5.615234 -0.16211,-11.716797 -1.45899,-7.298828 6.16602,-0.101563 5.33594,-1.130859 4.05078,-4.96875 3.34765,-12.203125 5.56055,-6.587891 3.64453,-1.970703 3.91602,2.511719 1.1875,6.640625 3.18554,2.970703 L 210,21.759766 V -10 Z m 209.46094,48.984375 -3.67188,1.296875 -2.37695,3.5625 1.4043,2.269531 -1.83594,5.50586 0.86328,2.808593 1.29687,2.050782 0.75586,2.591796 1.61914,-0.214843 2.48438,2.160156 10,0.107422 V 38.984375 Z"
         inkscape:label="Land" /><path
         style="font-variation-settings:normal;display:inline;opacity:1;vector-effect:none;fill:#ceb9a3;fill-opacity:1;stroke:none;stroke-width:1px;stroke-linecap:butt;stroke-linejoin:miter;stroke-miterlimit:4;stroke-dasharray:none;stroke-dashoffset:0;stroke-opacity:1;-inkscape-stroke:none;filter:url(#filter10);stop-color:#000000;stop-opacity:1"
         d="m 166.31518,-5.3452996 -1.9854,5.80346814 -5.19257,3.97079406 -8.55248,-1.5272285 -3.9708,-5.3452997 -25.65744,-0.3054456 -1.22178,3.35990259 -4.88713,4.88713111 -7.17797,3.3599026 -7.02525,0.7636143 -5.345303,-3.5126255 -6.261637,-7.3306967 h -3.665349 l 0.305446,9.9269851 -1.985397,8.2470337 -4.27624,5.3453 -6.108913,4.887131 -4.887132,-0.305446 0.610892,3.970794 -1.679951,6.108914 -5.039854,2.290843 -7.330697,0.152723 -7.177974,-3.512626 -5.039854,1.832674 -1.221783,4.734408 -4.581685,1.374506 -7.177974,-0.916337 -1.985397,-0.763614 -4.27624,5.345299 -6.719805,2.443566 h -3.818071 l 0.916337,5.498022 -4.7344082,6.261637 -7.0252509,5.498023 0.6108913,9.010648 2.1381199,7.636142 4.4289626,7.636142 3.0544573,1.221783 6.261636,-0.152723 4.734409,3.665349 1.06906,5.803466 v 4.88713 l 3.359902,-1.22178 5.650745,-0.91634 6.108914,0.76362 3.359903,5.19257 -1.221783,6.10892 -2.290842,5.03985 -2.596289,2.44357 5.650745,-0.45817 5.039854,0.76361 2.443566,3.9708 1.06906,3.97079 7.636142,-6.26164 6.872528,-1.06906 5.192577,-0.15272 4.428963,1.06906 7.483419,3.05446 3.359903,4.27624 0.916337,7.63614 -4.428963,5.03985 -6.108913,3.35991 -8.705203,5.49802 -8.552479,3.05446 -5.650746,1.22178 -0.458168,4.88713 -2.443566,6.71981 -5.192576,3.81807 -4.428963,2.74901 -5.956191,0.30544 -1.06906,-2.13812 -1.679951,6.87253 v 3.3599 l 5.192577,2.74902 0.610891,3.51262 -5.3453,8.24704 -3.818071,3.66534 -32.6826892,-0.76361 0.4581686,-206.9394583 z"
         id="path19"
         inkscape:label="MountainsHills" /><path
         id="path20"
         style="font-variation-settings:normal;display:inline;opacity:1;vector-effect:none;fill:#000000;fill-opacity:1;stroke:none;stroke-width:0.999999px;stroke-linecap:butt;stroke-linejoin:miter;stroke-miterlimit:4;stroke-dasharray:none;stroke-dashoffset:0;stroke-opacity:1;-inkscape-stroke:none;stop-color:#000000;stop-opacity:1"
         d="m 123.43359,17.710938 -9.50195,1.943359 -0.97266,4.427734 -7.12695,-1.511719 -7.667968,9.179688 -18.035156,-2.376953 -2.375,11.988281 -9.71875,-0.324219 -5.507812,6.263672 L 47.408203,39.09375 43.628906,48.164062 32.720703,44.277344 29.373047,55.400391 8.53125,73.326172 l 6.263672,6.58789 2.916016,-2.701171 9.179687,6.697265 c 0,0 3.347087,13.173503 3.455078,13.605469 0.107992,0.431965 9.287109,1.945313 9.287109,1.945313 l 12.527344,-3.564454 -1.621094,12.203126 8.640626,3.88672 14.146484,-0.32422 4.103516,-22.353516 14.039062,7.126953 18.68164,-6.695313 0.64844,-6.371093 16.09179,-0.648438 1.83594,-13.714844 -4.86133,-4.210937 12.95899,-15.44336 -4.85938,-3.238281 1.4043,-9.828125 z m 41.90039,87.796872 -4.53515,5.72266 11.12305,9.50391 -5.07618,12.95898 c 0,0 -7.88314,6.37052 -7.45117,6.47852 0.43196,0.10798 2.91602,3.88867 2.91602,3.88867 l 6.58789,0.86328 5.72265,-3.34766 4.53711,6.91211 12.09375,-8.53125 -4.10351,-5.18359 6.37304,-6.26367 0.53907,-13.39063 -10.25977,-0.2168 -5.83008,2.8086 0.32227,-10.79883 z"
         inkscape:label="Forest-outline" /><path
         style="fill:none;stroke:#b3d9ec;stroke-width:3.77953;stroke-linecap:butt;stroke-linejoin:miter;stroke-dasharray:none;stroke-opacity:1;filter:url(#filter10-2)"
         d="m 148.00072,146.95963 6.7509,-11.53846 3.56372,-5.50756 0.26997,-5.0216 -3.29373,-3.7257 -9.9892,-1.83586 -9.34126,-4.53563 -5.02159,-1.51188 -8.8013,-0.16199 -3.07775,-1.83585 -5.18359,-5.0216 -6.53348,-3.88769 -9.179263,-4.157667 -1.889849,-2.861771 1.187905,-5.615551 5.993517,-7.289417 0.70195,-2.213823 -0.53996,-5.777538 1.02592,-5.723542 5.07559,-7.937365 1.13391,-4.103672 -1.2419,-6.533477 -1.1879,-3.509719 -4.10368,-2.537797 -3.07775,-3.671706 0.48596,-5.075594 0.37797,-3.455724 -1.72786,-2.645788 -4.859611,-2.969763 -3.023758,-3.131749 -0.971923,-4.265659 0.647948,-6.911447 -1.457883,-4.9136069 -5.507559,-12.0410367"
         id="path16"
         inkscape:label="River A"
         sodipodi:nodetypes="cccccccccccccccccccccccccccccccccc" /><path
         style="fill:none;stroke:#b3d9ec;stroke-width:2.64567;stroke-linecap:butt;stroke-linejoin:miter;stroke-dasharray:none;stroke-opacity:1;filter:url(#filter10-2)"
         d="m 162.09503,38.930886 -5.07559,-3.671707 -4.64363,-2.321814 -5.61555,-2.37581 -2.42981,-2.969762 -0.32397,-4.37365 -2.64579,-6.317495 -2.59179,-2.969762 0.32397,-4.1576678 -1.29589,-3.563715 -4.91361,-3.8336933 -7.01944,-5.1835853"
         id="path17"
         inkscape:label="River B" /><path
         style="fill:none;stroke:#b3d9ec;stroke-width:2.64567;stroke-linecap:butt;stroke-linejoin:miter;stroke-dasharray:none;stroke-opacity:1;filter:url(#filter10-2)"
         d="m 187.23821,13.210526 0.45817,-6.9488893 1.52723,-3.6653483 10.30879,-7.941588"
         id="path18"
         inkscape:label="River C" /></g></g></svg>
