<?xml version="1.0" encoding="UTF-8" standalone="no"?>
<!-- Created with Inkscape (http://www.inkscape.org/) -->

<svg
   width="200"
   height="200"
   viewBox="0 0 200 200"
   version="1.1"
   id="svg1"
   xml:space="preserve"
   xmlns:xlink="http://www.w3.org/1999/xlink"
   xmlns="http://www.w3.org/2000/svg"
   xmlns:svg="http://www.w3.org/2000/svg"><defs
     id="defs1"><filter
       style="color-interpolation-filters:sRGB"
       id="filter16"
       x="-0.048179495"
       y="-0.051599164"
       width="1.096359"
       height="1.1031983"><feTurbulence
         id="feTurbulence14"
         baseFrequency="0.20000000000000001"
         type="turbulence"
         result="result10" /><feGaussianBlur
         stdDeviation="0.80000000000000004"
         id="feGaussianBlur15"
         result="result5" /><feColorMatrix
         id="feColorMatrix14"
         values="0 0 0 0 1 0 0 0 0 1 0 0 0 0 1 0 0 0 8.8000000000000007 -4"
         result="result4" /><feColorMatrix
         id="feColorMatrix15"
         values="0 0 0 0 0.57999999999999996 0 0 0 0 0.55000000000000004 0 0 0 0 0.46999999999999997 0 0 0 20 0"
         result="result6" /><feGaussianBlur
         stdDeviation="0.75"
         id="feGaussianBlur16"
         result="result11" /><feTurbulence
         id="feTurbulence16"
         type="fractalNoise"
         baseFrequency="0.074999999999999997"
         result="result20" /><feColorMatrix
         id="feColorMatrix16"
         values="0 0 0 1 0 0 0 0 1 0 0 0 0 1 0 0 0 0 0 1"
         result="result21" /><feComponentTransfer
         id="feComponentTransfer16"
         result="result12"><feFuncR
           id="feFuncR16"
           type="table"
           tableValues="0.95,0.95,0.95,0.98,0.99,0.99,0.99" /><feFuncG
           id="feFuncG16"
           type="table"
           tableValues="0.9,0.9,0.9,0.94,0.95,0.95,0.95" /><feFuncB
           id="feFuncB16"
           type="table"
           tableValues="0.83,0.83,0.83,0.88,0.89,0.89,0.89" /><feFuncA
           id="feFuncA16"
           type="identity" /></feComponentTransfer><feComposite
         id="feComposite16"
         in="result11"
         in2="result12"
         operator="over"
         result="result13" /><feGaussianBlur
         stdDeviation="1"
         id="feGaussianBlur1"
         in="SourceAlpha"
         result="result14" /><feColorMatrix
         id="feColorMatrix1"
         values="0 0 0 0 0 0 0 0 0 0 0 0 0 0 0 0 0 0 200 -100"
         result="result15" /><feGaussianBlur
         stdDeviation="0.29999999999999999"
         id="feGaussianBlur2"
         result="result16" /><feComposite
         id="feComposite1"
         in2="result16"
         operator="in"
         in="result13"
         result="result17" /><feColorMatrix
         id="feColorMatrix2"
         values="0 0 0 0 0.69999999999999996 0 0 0 0 0.84999999999999998 0 0 0 0 0.92000000000000004 0 0 0 200 -5"
         in="result14" /><feGaussianBlur
         stdDeviation="0.40000000000000002"
         id="feGaussianBlur3"
         result="result18" /><feComposite
         id="feComposite3"
         in2="result18"
         operator="over"
         in="result17"
         result="result19" /><feMerge
         id="feMerge5"><feMergeNode
           id="feMergeNode5"
           in="result19" /></feMerge></filter><filter
       style="color-interpolation-filters:sRGB"
       id="filter29"
       x="-0.42126173"
       y="-0.45116192"
       width="1.8425235"
       height="1.9023238"><feColorMatrix
         id="feColorMatrix4"
         values="0 0 0 0 0.90000000000000002 0 0 0 0 0.94999999999999996 0 0 0 0 0.96999999999999997 0 0 0 0.5 0"
         in="SourceAlpha"
         result="result11" /><feMorphology
         radius="12"
         id="feMorphology24"
         operator="dilate"
         result="result9"
         in="result11" /><feGaussianBlur
         stdDeviation="5"
         id="feGaussianBlur24"
         result="result1"
         radius="5" /><feTurbulence
         id="feTurbulence24"
         baseFrequency="0.10000000000000001"
         type="turbulence"
         result="result8" /><feColorMatrix
         id="feColorMatrix24"
         values="0 0 0 0 1 0 0 0 0 1 0 0 0 0 1 0 0 0 20 -4"
         result="result2" /><feComposite
         id="feComposite24"
         operator="in"
         result="result3"
         in="result1" /><feGaussianBlur
         stdDeviation="4"
         id="feGaussianBlur26"
         in="result3"
         result="result10" /><feBlend
         mode="color-dodge"
         id="feBlend26"
         result="result7"
         in2="result1" /><feColorMatrix
         id="feColorMatrix5"
         values="0 0 0 0 0.90000000000000002 0 0 0 0 0.94999999999999996 0 0 0 0 0.96999999999999997 0 0 0 0.29999999999999999 0"
         in="SourceAlpha"
         result="result12" /><feMorphology
         radius="25"
         id="feMorphology4"
         in="result12"
         result="result13"
         operator="dilate" /><feGaussianBlur
         stdDeviation="4"
         id="feGaussianBlur5"
         result="result14" /><feBlend
         mode="color-dodge"
         id="feBlend5"
         result="result15"
         in="result14"
         in2="result7" /></filter><filter
       style="color-interpolation-filters:sRGB"
       id="filter10-2"
       x="-0.20497234"
       y="-0.12114434"
       width="1.3682443"
       height="1.1905043"><feGaussianBlur
         stdDeviation="0.5"
         id="feGaussianBlur10-0" /></filter><filter
       style="color-interpolation-filters:sRGB"
       id="filter7"
       x="-0.056271435"
       y="-0.079830343"
       width="1.1125429"
       height="1.1596607"><feTurbulence
         id="feTurbulence7"
         result="result1"
         type="fractalNoise"
         baseFrequency="0.22" /><feColorMatrix
         id="feColorMatrix27"
         values="0 0 0 0 0 0 0 0 0 0 0 0 0 0 0 0 0 0 1.3999999999999999 0"
         result="result8" /><feMorphology
         radius="3"
         id="feMorphology26"
         in="SourceGraphic"
         result="result3"
         operator="dilate" /><feGaussianBlur
         stdDeviation="2"
         id="feGaussianBlur27"
         result="result7" /><feComposite
         id="feComposite26"
         in="result7"
         operator="in"
         result="result6"
         in2="result8" /><feGaussianBlur
         stdDeviation="1"
         id="feGaussianBlur23"
         result="result2"
         in="SourceGraphic" /><feBlend
         mode="lighten"
         id="feBlend23"
         in="result6"
         in2="result2"
         result="result4" /><feColorMatrix
         id="feColorMatrix30"
         values="1.0000000 0.0000000 0.0000000 0.0000000 0.0000000 0.0000000 1.0000000 0.0000000 0.0000000 0.0000000 0.0000000 0.0000000 1.0000000 0.0000000 0.0000000 0.0000000 0.0000000 0.0000000 1000.0000 -800.00000 "
         result="result5"
         in="result4" /><feGaussianBlur
         stdDeviation="0.10000000000000001"
         id="feGaussianBlur29"
         result="result9" /><feMerge
         id="feMerge33" /></filter><filter
       style="color-interpolation-filters:sRGB"
       id="filter13"
       x="-0.0679138"
       y="-0.096346964"
       width="1.1358276"
       height="1.1926939"><feTurbulence
         id="feTurbulence10"
         baseFrequency="0.5"
         type="turbulence"
         result="result10" /><feMorphology
         radius="3"
         id="feMorphology10"
         in="SourceAlpha"
         operator="erode"
         result="result14" /><feGaussianBlur
         stdDeviation="1.5"
         id="feGaussianBlur11-0"
         result="result9" /><feComposite
         id="feComposite11"
         operator="in"
         result="result8"
         in2="result9"
         in="result10" /><feColorMatrix
         id="feColorMatrix11-7"
         values="0 0 0 0 1 0 0 0 0 1 0 0 0 0 1 0 0 0 10 -5.7999999999999998"
         result="result4" /><feGaussianBlur
         stdDeviation="0.25"
         id="feGaussianBlur12"
         result="result5" /><feColorMatrix
         id="feColorMatrix12"
         values="0 0 0 0 0.55000000000000004 0 0 0 0 0.52000000000000002 0 0 0 0 0.44 0 0 0 100 0"
         result="result6" /><feGaussianBlur
         stdDeviation="0.40000000000000002"
         id="feGaussianBlur13"
         result="result11" /><feComposite
         id="feComposite13"
         in="result11"
         in2="SourceGraphic"
         operator="over"
         result="result15" /><feMerge
         id="feMerge1"><feMergeNode
           id="feMergeNode1"
           in="result15" /></feMerge></filter><filter
       style="color-interpolation-filters:sRGB"
       id="filter11713-4"
       x="-0.20697539"
       y="-0.29362884"
       width="1.4139508"
       height="1.5872577"><feColorMatrix
         id="feColorMatrix10"
         values="1 0 0 0 0 0 1 0 0 0 0 0 1 0 0 0 0 0 -1 1"
         in="SourceAlpha"
         result="result17" /><feMorphology
         radius="7.5"
         id="feMorphology1-5"
         operator="dilate"
         in="result17" /><feGaussianBlur
         stdDeviation="2.5"
         id="feGaussianBlur1-3"
         result="result1" /><feTurbulence
         id="feTurbulence1-8"
         baseFrequency="0.25"
         type="turbulence" /><feColorMatrix
         id="feColorMatrix1-2"
         values="0 0 0 0 1 0 0 0 0 1 0 0 0 0 1 0 0 0 20 -4"
         result="result2" /><feComposite
         id="feComposite2-6"
         operator="in"
         result="result3"
         in="result1" /><feBlend
         mode="normal"
         id="feBlend2-1"
         result="result7"
         in2="result1" /><feColorMatrix
         id="feColorMatrix9"
         values="0.0000000 0.0000000 0.0000000 0.0000000 0.61000000 0.0000000 0.0000000 0.0000000 0.0000000 0.60000000 0.0000000 0.0000000 0.0000000 0.0000000 0.47000000 0.0000000 0.0000000 0.0000000 1.0000000 0.0000000 "
         result="result16" /><feGaussianBlur
         stdDeviation="0.5"
         id="feGaussianBlur14"
         result="result18" /><feTurbulence
         id="feTurbulence5-6"
         baseFrequency="1"
         type="fractalNoise"
         result="result10" /><feMorphology
         radius="9"
         id="feMorphology6-4"
         in="result17"
         operator="dilate" /><feGaussianBlur
         stdDeviation="1.5"
         id="feGaussianBlur6-7"
         result="result9" /><feComposite
         id="feComposite6-8"
         operator="in"
         result="result8"
         in2="result9"
         in="result10" /><feColorMatrix
         id="feColorMatrix5-1"
         values="0 0 0 0 1 0 0 0 0 1 0 0 0 0 1 0 0 0 9 -5.7999999999999998"
         result="result4" /><feGaussianBlur
         stdDeviation="0.20000000000000001"
         id="feGaussianBlur5-3"
         result="result5" /><feColorMatrix
         id="feColorMatrix6-34"
         values="0 0 0 0 0.55000000000000004 0 0 0 0 0.52000000000000002 0 0 0 0 0.44 0 0 0 50 0"
         result="result6" /><feGaussianBlur
         stdDeviation="0.29999999999999999"
         id="feGaussianBlur7-5"
         result="result11" /><feComposite
         id="feComposite5-2"
         in="result11"
         in2="result18"
         operator="over"
         result="result13" /><feComposite
         id="feComposite9"
         in2="SourceAlpha"
         result="result15"
         operator="in" /><feMorphology
         radius="1.5"
         id="feMorphology2"
         result="result19"
         in="SourceAlpha" /><feComposite
         id="feComposite4"
         in2="SourceAlpha"
         operator="xor" /><feColorMatrix
         id="feColorMatrix7"
         values="0 0 0 0 0.5 0 1 0 0 0.46999999999999997 0 0 1 0 0.41999999999999998 0 0 0 1 0" /><feGaussianBlur
         stdDeviation="0.40000000000000002"
         id="feGaussianBlur8"
         result="result20" /><feComposite
         id="feComposite8"
         in="result20"
         in2="result15"
         result="result21" /><feMerge
         id="feMerge8"><feMergeNode
           id="feMergeNode8"
           in="result21" /></feMerge></filter></defs><g
     id="layer5"
     style="display:inline"><g
       id="layer6"><rect
         style="display:inline;fill:#bdd9ea;fill-opacity:1;stroke:none;stroke-width:2.13543;stroke-linecap:round;stroke-linejoin:round;stroke-dasharray:none;stroke-opacity:1"
         id="rect15"
         width="200"
         height="200"
         x="0"
         y="0" /><path
         id="path14"
         style="font-variation-settings:normal;display:inline;opacity:1;vector-effect:none;fill:#ffffff;fill-opacity:1;stroke:none;stroke-width:1px;stroke-linecap:butt;stroke-linejoin:miter;stroke-miterlimit:4;stroke-dasharray:none;stroke-dashoffset:0;stroke-opacity:1;-inkscape-stroke:none;filter:url(#filter29);stop-color:#000000;stop-opacity:1"
         d="m -10,-10 v 220 h 50.171875 l -0.214844,-11.08008 1.511719,-8.85547 7.992188,-8.85547 5.830078,-1.29492 v -2.80859 l 0.43164,-3.45508 6.91211,-7.77539 2.376953,-3.67188 5.615234,-0.86328 h 2.806641 l 3.023437,-3.67187 1.080078,-2.80859 5.183594,-1.51172 9.072266,-6.26368 6.912109,-0.86328 3.669922,6.04688 4.10352,-0.43164 3.67187,1.51172 1.72852,3.67187 3.24023,2.375 7.55859,-0.86328 7.99219,-6.69531 13.82227,-5.83203 4.75195,-2.48243 1.72852,4.21094 2.80664,1.72852 4.32031,-0.64844 4.32031,2.16016 3.45508,3.88672 11.87891,0.64843 3.88671,-1.29687 5.4004,-4.9668 7.99218,-2.375 L 210,136.93359 V 90.064453 l -10.2168,-4.535156 -6.47851,-4.103516 -3.45508,-1.080078 -3.45703,2.808594 -1.72656,0.646484 -2.8086,-2.591797 -1.94336,-4.318359 1.4043,-3.619141 -0.75586,-2.96875 -5.40039,1.242188 -5.29102,3.185547 -3.29492,4.210937 -3.77929,1.404297 -4.64258,-1.673828 -4.32032,1.080078 h -9.34179 l -2.5918,-2.429687 2.37695,-3.457032 6.10157,-1.835937 3.45507,-4.103516 1.24219,-6.316406 6.04688,-5.615234 -0.16211,-11.716797 -1.45899,-7.298828 6.16602,-0.101563 5.33594,-1.130859 4.05078,-4.96875 3.34765,-12.203125 5.56055,-6.587891 3.64453,-1.970703 3.91602,2.511719 1.1875,6.640625 3.18554,2.970703 L 210,21.759766 V -10 Z m 209.46094,48.984375 -3.67188,1.296875 -2.37695,3.5625 1.4043,2.269531 -1.83594,5.50586 0.86328,2.808593 1.29687,2.050782 0.75586,2.591796 1.61914,-0.214843 2.48438,2.160156 10,0.107422 V 38.984375 Z" /><path
         id="path15"
         style="font-variation-settings:normal;display:inline;opacity:1;vector-effect:none;fill:#fbf2e1;fill-opacity:1;stroke:#000000;stroke-width:1;stroke-linecap:butt;stroke-linejoin:miter;stroke-miterlimit:4;stroke-dasharray:none;stroke-dashoffset:0;stroke-opacity:1;-inkscape-stroke:none;filter:url(#filter16);stop-color:#000000;stop-opacity:1"
         d="m -10,-10 v 220 h 50.171875 l -0.214844,-11.08008 1.511719,-8.85547 7.992188,-8.85547 5.830078,-1.29492 v -2.80859 l 0.43164,-3.45508 6.91211,-7.77539 2.376953,-3.67188 5.615234,-0.86328 h 2.806641 l 3.023437,-3.67187 1.080078,-2.80859 5.183594,-1.51172 9.072266,-6.26368 6.912109,-0.86328 3.669922,6.04688 4.10352,-0.43164 3.67187,1.51172 1.72852,3.67187 3.24023,2.375 7.55859,-0.86328 7.99219,-6.69531 13.82227,-5.83203 4.75195,-2.48243 1.72852,4.21094 2.80664,1.72852 4.32031,-0.64844 4.32031,2.16016 3.45508,3.88672 11.87891,0.64843 3.88671,-1.29687 5.4004,-4.9668 7.99218,-2.375 L 210,136.93359 V 90.064453 l -10.2168,-4.535156 -6.47851,-4.103516 -3.45508,-1.080078 -3.45703,2.808594 -1.72656,0.646484 -2.8086,-2.591797 -1.94336,-4.318359 1.4043,-3.619141 -0.75586,-2.96875 -5.40039,1.242188 -5.29102,3.185547 -3.29492,4.210937 -3.77929,1.404297 -4.64258,-1.673828 -4.32032,1.080078 h -9.34179 l -2.5918,-2.429687 2.37695,-3.457032 6.10157,-1.835937 3.45507,-4.103516 1.24219,-6.316406 6.04688,-5.615234 -0.16211,-11.716797 -1.45899,-7.298828 6.16602,-0.101563 5.33594,-1.130859 4.05078,-4.96875 3.34765,-12.203125 5.56055,-6.587891 3.64453,-1.970703 3.91602,2.511719 1.1875,6.640625 3.18554,2.970703 L 210,21.759766 V -10 Z m 209.46094,48.984375 -3.67188,1.296875 -2.37695,3.5625 1.4043,2.269531 -1.83594,5.50586 0.86328,2.808593 1.29687,2.050782 0.75586,2.591796 1.61914,-0.214843 2.48438,2.160156 10,0.107422 V 38.984375 Z" /><g
         id="g1"
         style="display:inline;filter:url(#filter13)"><path
           id="path26"
           style="font-variation-settings:normal;display:inline;opacity:1;vector-effect:none;fill:#c7cd9d;fill-opacity:1;stroke:none;stroke-width:0.999999px;stroke-linecap:butt;stroke-linejoin:miter;stroke-miterlimit:4;stroke-dasharray:none;stroke-dashoffset:0;stroke-opacity:1;-inkscape-stroke:none;filter:url(#filter7);stop-color:#000000;stop-opacity:1"
           d="m 123.43359,17.710938 -9.50195,1.943359 -0.97266,4.427734 -7.12695,-1.511719 -7.667968,9.179688 -18.035156,-2.376953 -2.375,11.988281 -9.71875,-0.324219 -5.507812,6.263672 L 47.408203,39.09375 43.628906,48.164062 32.720703,44.277344 29.373047,55.400391 8.53125,73.326172 l 6.263672,6.58789 2.916016,-2.701171 9.179687,6.697265 c 0,0 3.347087,13.173503 3.455078,13.605469 0.107992,0.431965 9.287109,1.945313 9.287109,1.945313 l 12.527344,-3.564454 -1.621094,12.203126 8.640626,3.88672 14.146484,-0.32422 4.103516,-22.353516 14.039062,7.126953 18.68164,-6.695313 0.64844,-6.371093 16.09179,-0.648438 1.83594,-13.714844 -4.86133,-4.210937 12.95899,-15.44336 -4.85938,-3.238281 1.4043,-9.828125 z m 41.90039,87.796872 -4.53515,5.72266 11.12305,9.50391 -5.07618,12.95898 c 0,0 -7.88314,6.37052 -7.45117,6.47852 0.43196,0.10798 2.91602,3.88867 2.91602,3.88867 l 6.58789,0.86328 5.72265,-3.34766 4.53711,6.91211 12.09375,-8.53125 -4.10351,-5.18359 6.37304,-6.26367 0.53907,-13.39063 -10.25977,-0.2168 -5.83008,2.8086 0.32227,-10.79883 z" /></g><use
         x="0"
         y="0"
         xlink:href="#path26"
         id="use7"
         style="display:inline;filter:url(#filter11713-4)" /><path
         style="fill:none;stroke:#b3d9ec;stroke-width:3.77953;stroke-linecap:butt;stroke-linejoin:miter;stroke-dasharray:none;stroke-opacity:1;filter:url(#filter10-2)"
         d="m 148.00072,146.95963 6.7509,-11.53846 3.56372,-5.50756 0.26997,-5.0216 -3.29373,-3.7257 -9.9892,-1.83586 -9.34126,-4.53563 -5.02159,-1.51188 -8.8013,-0.16199 -3.07775,-1.83585 -5.18359,-5.0216 -6.53348,-3.88769 -9.179263,-4.157667 -1.889849,-2.861771 1.187905,-5.615551 5.993517,-7.289417 0.70195,-2.213823 -0.53996,-5.777538 1.02592,-5.723542 5.07559,-7.937365 1.13391,-4.103672 -1.2419,-6.533477 -1.1879,-3.509719 -4.10368,-2.537797 -3.07775,-3.671706 0.48596,-5.075594 0.37797,-3.455724 -1.72786,-2.645788 -4.859611,-2.969763 -3.023758,-3.131749 -0.971923,-4.265659 0.647948,-6.911447 -1.457883,-4.9136069 -5.507559,-12.0410367"
         id="path16" /><path
         style="fill:none;stroke:#b3d9ec;stroke-width:2.64567;stroke-linecap:butt;stroke-linejoin:miter;stroke-dasharray:none;stroke-opacity:1;filter:url(#filter10-2)"
         d="m 162.09503,38.930886 -5.07559,-3.671707 -4.64363,-2.321814 -5.61555,-2.37581 -2.42981,-2.969762 -0.32397,-4.37365 -2.64579,-6.317495 -2.59179,-2.969762 0.32397,-4.1576678 -1.29589,-3.563715 -4.91361,-3.8336933 -7.01944,-5.1835853"
         id="path17" /><path
         style="fill:none;stroke:#b3d9ec;stroke-width:2.64567;stroke-linecap:butt;stroke-linejoin:miter;stroke-dasharray:none;stroke-opacity:1;filter:url(#filter10-2)"
         d="m 187.23821,13.210526 0.45817,-6.9488893 1.52723,-3.6653483 10.30879,-7.941588"
         id="path18" /></g></g></svg>
