<?xml version="1.0" encoding="UTF-8" standalone="no"?>
<!-- Created with Inkscape (http://www.inkscape.org/) -->

<svg
   width="200"
   height="200"
   viewBox="0 0 200 200"
   version="1.1"
   id="svg1"
   xml:space="preserve"
   xmlns:xlink="http://www.w3.org/1999/xlink"
   xmlns="http://www.w3.org/2000/svg"
   xmlns:svg="http://www.w3.org/2000/svg"><defs
     id="defs1"><filter
       style="color-interpolation-filters:sRGB"
       id="filter16"
       x="-0.048179495"
       y="-0.051599164"
       width="1.096359"
       height="1.1031983"><feTurbulence
         id="feTurbulence14"
         baseFrequency="0.20000000000000001"
         type="turbulence"
         result="result10" /><feGaussianBlur
         stdDeviation="0.80000000000000004"
         id="feGaussianBlur15"
         result="result5" /><feColorMatrix
         id="feColorMatrix14"
         values="0 0 0 0 1 0 0 0 0 1 0 0 0 0 1 0 0 0 8.8000000000000007 -4"
         result="result4" /><feColorMatrix
         id="feColorMatrix15"
         values="0 0 0 0 0.57999999999999996 0 0 0 0 0.55000000000000004 0 0 0 0 0.46999999999999997 0 0 0 20 0"
         result="result6" /><feGaussianBlur
         stdDeviation="0.75"
         id="feGaussianBlur16"
         result="result11" /><feTurbulence
         id="feTurbulence16"
         type="fractalNoise"
         baseFrequency="0.074999999999999997"
         result="result20" /><feColorMatrix
         id="feColorMatrix16"
         values="0 0 0 1 0 0 0 0 1 0 0 0 0 1 0 0 0 0 0 1"
         result="result21" /><feComponentTransfer
         id="feComponentTransfer16"
         result="result12"><feFuncR
           id="feFuncR16"
           type="table"
           tableValues="0.95,0.95,0.95,0.98,0.99,0.99,0.99" /><feFuncG
           id="feFuncG16"
           type="table"
           tableValues="0.9,0.9,0.9,0.94,0.95,0.95,0.95" /><feFuncB
           id="feFuncB16"
           type="table"
           tableValues="0.83,0.83,0.83,0.88,0.89,0.89,0.89" /><feFuncA
           id="feFuncA16"
           type="identity" /></feComponentTransfer><feComposite
         id="feComposite16"
         in="result11"
         in2="result12"
         operator="over"
         result="result13" /><feGaussianBlur
         stdDeviation="1"
         id="feGaussianBlur1"
         in="SourceAlpha"
         result="result14" /><feColorMatrix
         id="feColorMatrix1"
         values="0 0 0 0 0 0 0 0 0 0 0 0 0 0 0 0 0 0 200 -100"
         result="result15" /><feGaussianBlur
         stdDeviation="0.29999999999999999"
         id="feGaussianBlur2"
         result="result16" /><feComposite
         id="feComposite1"
         in2="result16"
         operator="in"
         in="result13"
         result="result17" /><feColorMatrix
         id="feColorMatrix2"
         values="0 0 0 0 0.69999999999999996 0 0 0 0 0.84999999999999998 0 0 0 0 0.92000000000000004 0 0 0 200 -5"
         in="result14" /><feGaussianBlur
         stdDeviation="0.40000000000000002"
         id="feGaussianBlur3"
         result="result18" /><feComposite
         id="feComposite3"
         in2="result18"
         operator="over"
         in="result17"
         result="result19" /><feMerge
         id="feMerge5"><feMergeNode
           id="feMergeNode5"
           in="result19" /></feMerge></filter><filter
       style="color-interpolation-filters:sRGB"
       id="filter29"
       x="-0.42126173"
       y="-0.45116192"
       width="1.8425235"
       height="1.9023238"><feColorMatrix
         id="feColorMatrix4"
         values="0 0 0 0 0.90000000000000002 0 0 0 0 0.94999999999999996 0 0 0 0 0.96999999999999997 0 0 0 0.5 0"
         in="SourceAlpha"
         result="result11" /><feMorphology
         radius="12"
         id="feMorphology24"
         operator="dilate"
         result="result9"
         in="result11" /><feGaussianBlur
         stdDeviation="5"
         id="feGaussianBlur24"
         result="result1"
         radius="5" /><feTurbulence
         id="feTurbulence24"
         baseFrequency="0.10000000000000001"
         type="turbulence"
         result="result8" /><feColorMatrix
         id="feColorMatrix24"
         values="0 0 0 0 1 0 0 0 0 1 0 0 0 0 1 0 0 0 20 -4"
         result="result2" /><feComposite
         id="feComposite24"
         operator="in"
         result="result3"
         in="result1" /><feGaussianBlur
         stdDeviation="4"
         id="feGaussianBlur26"
         in="result3"
         result="result10" /><feBlend
         mode="color-dodge"
         id="feBlend26"
         result="result7"
         in2="result1" /><feColorMatrix
         id="feColorMatrix5"
         values="0 0 0 0 0.90000000000000002 0 0 0 0 0.94999999999999996 0 0 0 0 0.96999999999999997 0 0 0 0.29999999999999999 0"
         in="SourceAlpha"
         result="result12" /><feMorphology
         radius="25"
         id="feMorphology4"
         in="result12"
         result="result13"
         operator="dilate" /><feGaussianBlur
         stdDeviation="4"
         id="feGaussianBlur5"
         result="result14" /><feBlend
         mode="color-dodge"
         id="feBlend5"
         result="result15"
         in="result14"
         in2="result7" /></filter><filter
       style="color-interpolation-filters:sRGB"
       id="filter10"
       x="-0.21818182"
       y="-0.050526316"
       width="1.4363636"
       height="1.1010526"><feGaussianBlur
         stdDeviation="2"
         id="feGaussianBlur10" /></filter><filter
       style="color-interpolation-filters:sRGB"
       id="filter10-2"
       x="-0.20497234"
       y="-0.12114434"
       width="1.3810819"
       height="1.1905043"><feGaussianBlur
         stdDeviation="0.5"
         id="feGaussianBlur10-0" /></filter><filter
       style="color-interpolation-filters:sRGB"
       id="filter7"
       x="-0.076753375"
       y="-0.10888736"
       width="1.1535068"
       height="1.2177747"><feTurbulence
         id="feTurbulence7"
         result="result1"
         type="fractalNoise"
         baseFrequency="0.22" /><feColorMatrix
         id="feColorMatrix27"
         values="0 0 0 0 0 0 0 0 0 0 0 0 0 0 0 0 0 0 1.5 0"
         result="result8" /><feMorphology
         radius="2"
         id="feMorphology26"
         in="SourceGraphic"
         result="result3"
         operator="dilate" /><feGaussianBlur
         stdDeviation="3"
         id="feGaussianBlur27"
         result="result7" /><feComposite
         id="feComposite26"
         in="result7"
         operator="in"
         result="result6"
         in2="result8" /><feGaussianBlur
         stdDeviation="2"
         id="feGaussianBlur23"
         result="result2"
         in="SourceGraphic" /><feBlend
         mode="lighten"
         id="feBlend23"
         in="result6"
         in2="result2"
         result="result4" /><feColorMatrix
         id="feColorMatrix30"
         values="1 0 0 0 0 0 1 0 0 0 0 0 1 0 0 0 0 0 80 -60"
         result="result5"
         in="result4" /><feGaussianBlur
         stdDeviation="0.10000000000000001"
         id="feGaussianBlur29"
         result="result9" /></filter><filter
       style="color-interpolation-filters:sRGB"
       id="filter33"
       x="-0.086253378"
       y="-0.11945234"
       width="1.1725068"
       height="1.2389047"><feTurbulence
         id="feTurbulence31"
         baseFrequency="0.5"
         type="turbulence"
         result="result10"
         numOctaves="1" /><feMorphology
         radius="3"
         id="feMorphology31"
         in="SourceAlpha"
         operator="erode"
         result="result14" /><feGaussianBlur
         stdDeviation="1.5"
         id="feGaussianBlur31"
         result="result9" /><feComposite
         id="feComposite31"
         operator="in"
         result="result8"
         in2="result9"
         in="result10" /><feColorMatrix
         id="feColorMatrix31"
         values="0 0 0 0 1 0 0 0 0 1 0 0 0 0 1 0 0 0 10 -5.7999999999999998"
         result="result4"
         in="result8" /><feGaussianBlur
         stdDeviation="0.29999999999999999"
         id="feGaussianBlur32"
         result="result5" /><feColorMatrix
         id="feColorMatrix32"
         values="0 0 0 0 0.55000000000000004 0 0 0 0 0.52000000000000002 0 0 0 0 0.44 0 0 0 100 0"
         result="result6" /><feColorMatrix
         id="feColorMatrix39"
         values="1 0 0 0 0 0 1 0 0 0 0 0 1 0 0 0 0 0 0.69999999999999996 0" /><feGaussianBlur
         stdDeviation="0.40000000000000002"
         id="feGaussianBlur33"
         result="result11" /><feComposite
         id="feComposite33"
         in="result11"
         in2="SourceGraphic"
         operator="over"
         result="result15" /></filter><filter
       style="color-interpolation-filters:sRGB"
       id="filter64"
       x="-0.21300338"
       y="-0.26041135"
       width="1.4260068"
       height="1.5208227"><feColorMatrix
         id="feColorMatrix56"
         values="0 0 0 0 0 0 0 0 0 0 0 0 0 0 0 0 0 0 -1 1"
         in="SourceAlpha"
         result="result17" /><feMorphology
         radius="9"
         id="feMorphology56"
         operator="dilate"
         in="result17" /><feGaussianBlur
         stdDeviation="3.5"
         id="feGaussianBlur56"
         result="result1" /><feTurbulence
         id="feTurbulence56"
         baseFrequency="0.25"
         type="fractalNoise" /><feColorMatrix
         id="feColorMatrix57"
         values="0 0 0 0 1 0 0 0 0 1 0 0 0 0 1 0 0 0 -1 1"
         result="result2" /><feComposite
         id="feComposite57"
         operator="in"
         result="result3"
         in="result1" /><feBlend
         mode="color-dodge"
         id="feBlend57"
         result="result7"
         in2="result17" /><feColorMatrix
         id="feColorMatrix58"
         values="0 0 0 0 0.67000000000000004 0 0 0 0 0.71999999999999997 0 0 0 0 0.57999999999999996 0 0 0 2 0"
         result="result16" /><feGaussianBlur
         stdDeviation="0.5"
         id="feGaussianBlur58"
         result="result18" /><feTurbulence
         id="feTurbulence58"
         baseFrequency="0.75"
         type="fractalNoise"
         result="result10" /><feMorphology
         radius="9"
         id="feMorphology58"
         in="result17"
         operator="dilate"
         result="result24" /><feGaussianBlur
         stdDeviation="1.5"
         id="feGaussianBlur59"
         result="result9" /><feComposite
         id="feComposite59"
         operator="in"
         result="result8"
         in2="result9"
         in="result10" /><feColorMatrix
         id="feColorMatrix59"
         values="0 0 0 0 1 0 0 0 0 1 0 0 0 0 1 0 0 0 9 -6"
         result="result4" /><feGaussianBlur
         stdDeviation="0.34999999999999998"
         id="feGaussianBlur60"
         result="result5" /><feColorMatrix
         id="feColorMatrix60"
         values="0 0 0 0 0.58999999999999997 0 0 0 0 0.56000000000000005 0 0 0 0 0.47999999999999998 0 0 0 50 0"
         result="result6" /><feGaussianBlur
         stdDeviation="0.5"
         id="feGaussianBlur61"
         result="result11" /><feColorMatrix
         id="feColorMatrix65"
         values="1 0 0 0 0 0 1 0 0 0 0 0 1 0 0 0 0 0 0.75 0"
         result="result22" /><feComposite
         id="feComposite61"
         in="result22"
         in2="result18"
         operator="over"
         result="result13" /><feComposite
         id="feComposite62"
         in2="SourceAlpha"
         result="result15"
         operator="in" /><feMorphology
         radius="1.5"
         id="feMorphology62"
         result="result19"
         in="SourceAlpha" /><feComposite
         id="feComposite63"
         in2="SourceAlpha"
         operator="xor"
         result="result23" /><feColorMatrix
         id="feColorMatrix63"
         values="0 0 0 0 0.5 0 1 0 0 0.46999999999999997 0 0 1 0 0.41999999999999998 0 0 0 1 0" /><feGaussianBlur
         stdDeviation="0.40000000000000002"
         id="feGaussianBlur63"
         result="result20" /><feComposite
         id="feComposite64"
         in="result20"
         in2="result15"
         result="result21" /><feMerge
         id="feMerge69"><feMergeNode
           id="feMergeNode69"
           in="result21" /></feMerge></filter><filter
       style="color-interpolation-filters:sRGB"
       id="filter10-4"
       x="-0.012474464"
       y="-0.03549663"
       width="1.0266174"
       height="1.0709933"><feGaussianBlur
         stdDeviation="0.5"
         id="feGaussianBlur10-6" /></filter></defs><g
     id="layer5"
     style="display:inline"><g
       id="layer7"><rect
         style="display:inline;fill:#bdd9ea;fill-opacity:1;stroke:none;stroke-width:2.13543;stroke-linecap:round;stroke-linejoin:round;stroke-dasharray:none;stroke-opacity:1"
         id="rect2"
         width="200"
         height="200"
         x="0"
         y="0" /><path
         id="path67"
         style="display:inline;fill:#000000;fill-opacity:1;filter:url(#filter29)"
         d="m -10,-10 v 158.16797 l 10,0.0469 1.75,-0.73632 1.75,-0.73633 2.1210938,-0.46289 2.1230468,-0.46289 3.0781254,1.59179 3.078125,1.5918 h 2.939453 2.939453 l 2.359375,1.9668 2.361328,1.96679 3.267578,0.0332 3.269531,0.0332 5.230469,-2.71094 5.232422,-2.71094 5.230469,-5.40429 5.232422,-5.4043 3.394531,0.63867 3.396484,0.63672 2.730469,-1.03906 2.730469,-1.03906 -0.429688,-3.68555 -0.429687,-3.68555 1.394531,-2.79687 1.396484,-2.79688 2.175782,-0.44336 L 70.5,122.11523 74.25,121.51172 78,120.91016 V 119.95508 119 l 4,-4 4,-4 v -1.10352 -1.10351 l 4.648438,-4.14649 4.65039,-4.14648 1.84961,-1.75 L 99,97 h 0.541016 0.539064 l 2.96094,-2.1875 2.95898,-2.189453 1.50781,-2.025391 2.67578,0.166016 2.29883,2.289062 -3.45117,6.166016 -2.18555,4.37695 -2.18554,4.375 -2.33008,2.18946 L 100,112.34766 V 114.67383 117 h 0.97461 0.97461 l -0.62305,3.25 -0.62305,3.25 -2.052729,3 -2.054688,3 -0.638672,0.5 -0.640625,0.5 -1.779297,4.71289 -1.779297,4.71094 0.589844,1.53906 L 92.9375,143 l 1.78125,0.0234 1.78125,0.0234 3.875,3.48828 3.87305,3.49023 0.46679,4.23633 0.46485,4.23828 -3.08985,2.9375 L 99,164.375 v 1.75391 1.7539 l 1,0.61719 1,0.61719 v 1.9414 V 173 h 0.92969 0.93164 l 0.37305,2.25 0.375,2.25 -1.5,2.71289 -1.49805,2.71484 1.80664,5.78516 1.80664,5.78711 1.00977,1.25 1.00976,1.25 H 108 109.75586 L 111,195.5 112.24414,194 h 2.65625 2.6543 l 2.22461,1.55859 2.22461,1.55664 0.99804,-0.61718 L 126.92578,210 h 20.91602 l 0.0781,-11 2.53906,-2.74023 L 153,193.51953 152.1582,184 l -0.65234,-2.97656 -0.6543,-2.97461 0.73438,-1.1875 0.73242,-1.1875 0.6875,-3.08594 0.27734,-3.53711 -4.15234,-5.38086 -4.15039,-5.38086 2.5957,-4.64453 2.59571,-4.64453 2.66406,-0.004 2.66406,-0.004 3.25,-1.98047 3.25,-1.98242 v -1.35742 -1.35743 l 3.25391,-1.75195 3.2539,-1.75195 4.42383,-6.65625 4.42383,-6.6543 0.0723,-3.96875 -1.14257,-1.48242 3.88867,-1.94922 5.13476,2.73437 -1.04101,0.66797 0.40234,4 0.40039,4 0.20117,4.5 0.20118,4.5 -0.69532,6.30274 -0.69531,6.30469 -3.05469,3.85742 -3.05468,3.85547 -0.83204,4.44921 -0.83007,4.44727 -1.65625,2.36328 -1.6543,2.36328 -0.10352,8.02735 0.96875,10.27929 5.63477,2.375 1.5,0.78907 1.5,0.78906 0.32031,2.14648 0.31836,2.14844 1.9375,8.25 L 210,210 V 72.232422 L 202.24805,70.820312 195,69.228516 l -1.25,-2.365235 -1.25,-2.367187 -1.54297,-2.175782 -1.54297,-2.173828 -2.45703,-1.005859 -2.45703,-1.005859 -5.6875,-1.683594 -1.35742,-0.402344 -4.33008,-1.283203 -2.12305,-1.978516 -2.12304,-1.976562 0.96093,-11.003906 -6.32226,-6.306641 0.0586,-5.5 0.0586,-5.5 0.65234,-2.386719 L 165.68359,15 167.73047,7.5 166.86523,5.8164062 166,4.1308594 V 1.9355469 L 165.646,-10 Z" /><path
         id="path29"
         style="display:inline;fill:#000000;fill-opacity:1;filter:url(#filter16)"
         d="m -10,-10 v 158.16797 l 10,0.0469 1.75,-0.73632 1.75,-0.73633 2.1210938,-0.46289 2.1230468,-0.46289 3.0781254,1.59179 3.078125,1.5918 h 2.939453 2.939453 l 2.359375,1.9668 2.361328,1.96679 3.267578,0.0332 3.269531,0.0332 5.230469,-2.71094 5.232422,-2.71094 5.230469,-5.40429 5.232422,-5.4043 3.394531,0.63867 3.396484,0.63672 2.730469,-1.03906 2.730469,-1.03906 -0.429688,-3.68555 -0.429687,-3.68555 1.394531,-2.79687 1.396484,-2.79688 2.175782,-0.44336 L 70.5,122.11523 74.25,121.51172 78,120.91016 V 119.95508 119 l 4,-4 4,-4 v -1.10352 -1.10351 l 4.648438,-4.14649 4.65039,-4.14648 1.84961,-1.75 L 99,97 h 0.541016 0.539064 l 2.96094,-2.1875 2.95898,-2.189453 1.50781,-2.025391 2.67578,0.166016 2.29883,2.289062 -3.45117,6.166016 -2.18555,4.37695 -2.18554,4.375 -2.33008,2.18946 L 100,112.34766 V 114.67383 117 h 0.97461 0.97461 l -0.62305,3.25 -0.62305,3.25 -2.052729,3 -2.054688,3 -0.638672,0.5 -0.640625,0.5 -1.779297,4.71289 -1.779297,4.71094 0.589844,1.53906 L 92.9375,143 l 1.78125,0.0234 1.78125,0.0234 3.875,3.48828 3.87305,3.49023 0.46679,4.23633 0.46485,4.23828 -3.08985,2.9375 L 99,164.375 v 1.75391 1.7539 l 1,0.61719 1,0.61719 v 1.9414 V 173 h 0.92969 0.93164 l 0.37305,2.25 0.375,2.25 -1.5,2.71289 -1.49805,2.71484 1.80664,5.78516 1.80664,5.78711 1.00977,1.25 1.00976,1.25 H 108 109.75586 L 111,195.5 112.24414,194 h 2.65625 2.6543 l 2.22461,1.55859 2.22461,1.55664 0.99804,-0.61718 L 126.92578,210 h 20.91602 l 0.0781,-11 2.53906,-2.74023 L 153,193.51953 152.1582,184 l -0.65234,-2.97656 -0.6543,-2.97461 0.73438,-1.1875 0.73242,-1.1875 0.6875,-3.08594 0.27734,-3.53711 -4.15234,-5.38086 -4.15039,-5.38086 2.5957,-4.64453 2.59571,-4.64453 2.66406,-0.004 2.66406,-0.004 3.25,-1.98047 3.25,-1.98242 v -1.35742 -1.35743 l 3.25391,-1.75195 3.2539,-1.75195 4.42383,-6.65625 4.42383,-6.6543 0.0723,-3.96875 -1.14257,-1.48242 3.88867,-1.94922 5.13476,2.73437 -1.04101,0.66797 0.40234,4 0.40039,4 0.20117,4.5 0.20118,4.5 -0.69532,6.30274 -0.69531,6.30469 -3.05469,3.85742 -3.05468,3.85547 -0.83204,4.44921 -0.83007,4.44727 -1.65625,2.36328 -1.6543,2.36328 -0.10352,8.02735 0.96875,10.27929 5.63477,2.375 1.5,0.78907 1.5,0.78906 0.32031,2.14648 0.31836,2.14844 1.9375,8.25 L 210,210 V 72.232422 L 202.24805,70.820312 195,69.228516 l -1.25,-2.365235 -1.25,-2.367187 -1.54297,-2.175782 -1.54297,-2.173828 -2.45703,-1.005859 -2.45703,-1.005859 -5.6875,-1.683594 -1.35742,-0.402344 -4.33008,-1.283203 -2.12305,-1.978516 -2.12304,-1.976562 0.96093,-11.003906 -6.32226,-6.306641 0.0586,-5.5 0.0586,-5.5 0.65234,-2.386719 L 165.68359,15 167.73047,7.5 166.86523,5.8164062 166,4.1308594 V 1.9355469 L 165.646,-10 Z" /><path
         style="display:inline;fill:#c1d8a2;fill-opacity:1;stroke-width:1.00157;stroke-dasharray:none;filter:url(#filter7)"
         d="m 125.98365,195.96945 -5.69508,-6.81024 -9.01346,1.10172 L 106,182.9632 l 0.17384,-8.77724 1.38049,-9.54683 2.44567,-9.1268 -3.45228,-8.27989 -6.52779,-5.93424 0.80506,-7.39785 2.62276,-8.5517 2.05606,-10.41901 4.71374,-7.08052 4.68956,-7.868129 -0.88377,-8.583095 -10.37892,-2.484094 -7.385043,0.0862 -3.30556,5.102834 L 86.278131,98 83,103.75511 l -9.278811,3.887 0.05776,8.08362 -9.683845,1.25862 -6.095107,-5.59016 -1.74338,1.25215 0.990692,11.49213 -3.875357,7.26493 -9.251907,3.5966 -4.147516,7.05362 -9.242199,3.66953 -9.078798,-3.51127 -9.727999,-4.85477 2.461344,-9.48697 -2.565432,-9.3732 3.793231,-5.88423 -4.133767,-7.03454 -4.7330072,-4.6825 L 12.573579,94.189436 11.855702,86.820285 13.07903,76.193694 19,71.113544 10.507775,67.9536 8.4855988,59.036855 6,50.485711 9.4711171,42.291167 1.259377,44 -20,45.066698 V 9.5 L 6.8722723,9.8963441 7.5119886,1.9622273 7.744119,-18 H 162.53248 l -1.48223,17.19991691 -9.32842,1.64521547 0.96309,4.09383422 7.09457,6.3982664 -0.91386,12.153764 -7.35384,2.625674 -2.34133,1.675124 3.89231,8.208205 8.26804,-1.502645 3.64185,10.473906 -2.064,5.639742 1.61217,9.729269 7.362,-1.340272 7.83607,5.838436 7.06191,3.661564 6.29596,6.07133 5.09608,6.817643 L 220,86.20389 v 59.49981 l -21.77126,-2.47655 -4.51723,-8.53972 4.05902,-8.86899 -7.18847,-6.14716 L 171,116 l -2,7.72187 -3.29621,8.6416 -7.21501,3.89096 -2.01395,7.77734 -13.32091,0.46823 0.5838,9.66342 -2.73772,7.65994 6.79662,4.74349 -0.70638,7.87754 1.43746,9.25055 1.25832,9.30506 -8.38461,4.38865 -14.43411,0.41876 z"
         id="path27" /><use
         x="0"
         y="0"
         xlink:href="#path27"
         id="use30"
         style="font-variation-settings:normal;display:inline;opacity:1;fill:#a09789;fill-opacity:1;stroke:none;stroke-width:1.00157;stroke-linecap:butt;stroke-linejoin:miter;stroke-miterlimit:4;stroke-dasharray:none;stroke-dashoffset:0;stroke-opacity:1;filter:url(#filter33);stop-color:#000000;stop-opacity:1" /><use
         x="0"
         y="0"
         xlink:href="#path27"
         id="use31"
         style="display:inline;fill:#c4d9a1;fill-opacity:1;filter:url(#filter64)" /><path
         style="font-variation-settings:normal;display:inline;opacity:1;vector-effect:none;fill:none;fill-opacity:1;stroke:#b3d9ec;stroke-width:3.77953;stroke-linecap:butt;stroke-linejoin:miter;stroke-miterlimit:4;stroke-dasharray:none;stroke-dashoffset:0;stroke-opacity:1;-inkscape-stroke:none;filter:url(#filter10-2);stop-color:#000000;stop-opacity:1"
         d="m 108.85273,93.469887 2.31658,-3.635474 1.30893,-5.698427 -0.80065,-11.759764 3.52591,-4.451713 3.23406,-5.193212 -0.75648,-6.169598 -0.0151,-9.495361 -1.06513,-3.793438 -1.80662,-2.625836 -1.27525,-4.835894 0.72295,-8.2679 -3.49152,-4.103322 -1.56657,-2.483452 -3.6724,-2.02707 -4.06412,-2.262656 -6.294127,-0.214934 -3.62357,-6.917309 -0.766264,-6.911447 -5.435365,-6.9465389"
         id="path24" /><path
         style="font-variation-settings:normal;display:inline;opacity:1;vector-effect:none;fill:none;fill-opacity:1;stroke:#b3d9ec;stroke-width:3.77953;stroke-linecap:butt;stroke-linejoin:miter;stroke-miterlimit:4;stroke-dasharray:none;stroke-dashoffset:0;stroke-opacity:1;-inkscape-stroke:none;filter:url(#filter10-2);stop-color:#000000;stop-opacity:1"
         d="m 180.31059,120.4492 -0.64128,-5.86479 4.59446,-6.78681 2.82328,-6.10291 0.0788,-5.865929 6.15088,-5.900318 3.66293,-5.904433 -0.10348,-9.848915 0.0839,-2.556001 0.22631,-3.156166"
         id="path31" /><g
         id="text67"
         style="font-size:43.554px;line-height:0;fill:#385535;stroke-width:1.0208;filter:url(#filter10-4)"
         transform="scale(1.0208101,0.97961413)"
         aria-label="JUNGLES"><path
           style="font-size:40.832px;line-height:1.05;font-family:'High Tower Text';-inkscape-font-specification:'High Tower Text'"
           d="m 42.58827,11.697258 q 0.07975,0.518375 -0.937063,0.817437 -1.276,0.358875 -1.694687,0.657938 -0.55825,0.418687 -0.55825,1.335812 v 21.034063 q 0,4.525813 -2.532063,6.998063 -2.292813,2.233 -6.001188,2.233 -2.432375,0 -3.828,-0.857313 -0.418687,-0.259187 -0.418687,-0.71775 0,-0.458562 0.378812,-1.256062 0.55825,-1.176313 1.216188,-1.176313 0.39875,0 1.595,0.777563 1.575062,1.016812 2.851062,1.016812 1.794375,0 2.47225,-1.1165 0.757626,-1.236125 0.757626,-4.725187 V 14.30907 q 0,-0.857312 -0.498438,-1.19625 -0.358875,-0.23925 -1.874125,-0.638 -0.857313,-0.23925 -0.817438,-0.777562 0.05981,-0.618062 0.917125,-0.538312 4.286563,0.39875 8.034813,-0.1595 0.55825,-0.07975 0.697813,0.03987 0.1595,0.119625 0.23925,0.657937 z"
           id="path69" /><path
           style="font-size:19.0548px;line-height:1.05;font-family:'High Tower Text';-inkscape-font-specification:'High Tower Text';stroke:#314c31;stroke-width:0.321;stroke-dasharray:none;stroke-opacity:1"
           d="m 58.104822,21.485285 q 0,0.186082 -0.418685,0.288427 -0.72572,0.167474 -0.921106,0.334948 -0.260515,0.232602 -0.260515,0.865281 v 5.33125 q 0,2.558628 -1.330486,3.944939 -1.367703,1.432832 -3.963548,1.432832 -5.489419,0 -5.489419,-5.163776 v -5.582461 q 0,-0.88389 -1.032756,-1.069972 -0.353556,-0.06513 -0.437293,-0.120953 -0.07443,-0.05582 -0.07443,-0.223299 0,-0.288427 0.139561,-0.334947 0.06513,-0.02791 0.437293,-0.0093 2.502803,0.130257 3.823986,0 0.279123,-0.02791 0.334947,0.02791 0.06513,0.05582 0.06513,0.316339 0,0.195386 -0.400076,0.288427 -0.781545,0.167474 -0.902498,0.241907 -0.297731,0.186082 -0.297731,0.762936 v 5.377771 q 0,2.372546 0.986234,3.479734 0.986235,1.107188 3.172699,1.107188 3.749553,0 3.749553,-4.317103 v -5.359162 q 0,-0.632679 -0.325644,-0.921106 -0.260514,-0.241907 -0.911802,-0.353556 -0.511725,-0.09304 -0.511725,-0.344252 0,-0.288427 0.148865,-0.334948 0.05582,-0.01861 0.437293,-0.0093 2.58654,0.102345 3.563471,0 0.372164,-0.03722 0.409381,0.148866 0.0093,0.06513 0.0093,0.195386 z m 16.124007,-0.130257 q 0,0.232602 -0.502421,0.381468 -1.116492,0.316339 -1.116492,1.29327 v 6.689649 q 0,2.112031 0.05582,3.405301 0.01861,0.493117 -0.232602,0.558246 -0.418685,0.102345 -0.707112,-0.437293 -0.465205,-0.883889 -3.647208,-4.354319 -2.660973,-2.893576 -5.154472,-5.405683 -0.08374,-0.08374 -0.167474,-0.04652 -0.09304,0.04652 -0.09304,0.213995 v 7.629363 q 0,1.228141 1.237446,1.460744 0.511725,0.102345 0.511725,0.36286 0,0.353556 -0.576854,0.325643 -2.214376,-0.09304 -3.442518,0 -0.400076,0.02791 -0.400076,-0.325643 0,-0.195386 0.400076,-0.279123 0.716416,-0.167474 0.958323,-0.455901 0.241906,-0.288427 0.241906,-0.976931 v -8.23413 q 0,-0.539638 -0.223298,-0.828065 -0.213994,-0.260515 -0.828065,-0.539638 -0.455901,-0.213994 -0.437293,-0.437292 0.02791,-0.251211 0.418685,-0.195387 1.209533,0.167474 2.093423,0.07443 0.455901,-0.04652 0.818761,0.344252 l 7.796837,8.308563 q 0.158169,0.176778 0.213994,0.176778 0.07443,0 0.07443,-0.251211 V 23.08559 q 0,-1.18162 -1.237446,-1.395615 -0.437292,-0.07443 -0.437292,-0.260515 0,-0.390772 0.400076,-0.344251 1.525873,0.167473 3.405301,-0.03722 0.325644,-0.03722 0.418685,-0.0093 0.158169,0.04652 0.158169,0.31634 z m 15.416896,6.512871 q 0,0.297731 -0.437292,0.36286 -0.614071,0.09304 -0.716416,0.130257 -0.334948,0.139562 -0.334948,0.539638 v 2.912184 q 0,0.548942 -1.432832,1.172316 -1.609609,0.697808 -3.619295,0.697808 -2.921488,0 -4.866045,-1.739867 -1.97247,-1.767779 -1.97247,-4.531097 0,-2.819143 2.037598,-4.689268 1.97247,-1.804995 4.745092,-1.804995 2.13064,0 3.619296,0.511725 1.097884,0.372164 1.144404,0.744328 0.09304,0.707112 0.09304,2.093423 0,0.307036 -0.381468,0.325644 -0.446597,0.01861 -0.548942,-0.251211 -0.511725,-1.386311 -1.442136,-1.991078 -0.921106,-0.61407 -2.540019,-0.61407 -2.232985,0 -3.489038,1.367703 -1.293271,1.423527 -1.293271,4.075196 0,2.558628 1.488657,4.121717 1.442135,1.525873 3.712336,1.525873 1.163013,0 2.167856,-0.418685 0.958322,-0.400076 0.958322,-0.809457 V 29.66359 q 0,-0.688503 -0.279123,-0.995539 -0.241906,-0.279123 -0.958322,-0.493117 -0.530334,-0.15817 -0.502422,-0.381468 0.03722,-0.241907 0.120954,-0.297731 0.09304,-0.05582 0.455901,-0.0093 1.981773,0.241907 3.851898,0.03722 0.102345,-0.0093 0.167474,-0.0093 0.25121,0 0.25121,0.353556 z m 11.174225,3.219219 q -0.31634,1.190925 -0.31634,2.232984 0,0.176778 -0.595463,0.148866 -1.470048,-0.07443 -3.637904,-0.07443 -2.307417,0 -4.112413,0.09304 -0.269819,0.01861 -0.334947,-0.04652 -0.06513,-0.05582 -0.06513,-0.279123 0,-0.241906 0.400076,-0.279123 0.911802,-0.09304 0.911802,-0.97693 v -8.587686 q 0,-0.651287 -0.176778,-0.967627 -0.213994,-0.372164 -0.818761,-0.576854 -0.36286,-0.130257 -0.316339,-0.418684 0.02791,-0.204691 0.120953,-0.241907 0.09304,-0.03722 0.483814,0.0093 1.358398,0.148866 3.237827,-0.01861 0.334948,-0.02791 0.381468,-0.01861 0.186082,0.02791 0.213994,0.25121 0.02791,0.251211 -0.120953,0.344252 -0.05582,0.03722 -0.381468,0.111649 -0.651287,0.148866 -0.818761,0.344252 -0.167474,0.186082 -0.167474,0.800153 v 8.327171 q 0,0.781544 0.52103,1.069971 0.530334,0.279123 1.916645,0.279123 1.321182,0 1.953861,-0.334947 0.641983,-0.344252 1.042061,-1.283966 0.14887,-0.372164 0.4559,-0.251211 0.29773,0.07443 0.2233,0.344252 z m 11.30449,0 q -0.26052,1.107188 -0.34426,2.232984 -0.009,0.176778 -0.56755,0.148866 -1.45144,-0.07443 -3.70303,-0.07443 -2.47489,0 -4.26128,0.09304 -0.40007,0.01861 -0.40007,-0.325644 0,-0.241906 0.40007,-0.279123 0.55825,-0.06513 0.71642,-0.213994 0.19538,-0.186082 0.19538,-0.781545 v -8.569077 q 0,-0.865282 -0.15817,-1.08858 -0.15816,-0.232602 -0.87458,-0.455901 -0.38147,-0.120953 -0.27912,-0.455901 0.0465,-0.176778 0.14886,-0.195386 0.093,-0.02791 0.49312,0.03722 0.59546,0.09304 3.10757,0.09304 2.5028,0 4.3078,-0.111649 0.60476,-0.03722 0.60476,0.08374 0,0.04652 -0.0186,0.09304 -0.19539,0.911802 -0.16748,2.093423 0.009,0.288427 -0.26982,0.288427 -0.26051,0 -0.36286,-0.251211 -0.26051,-0.651287 -0.4559,-0.883889 -0.29773,-0.353556 -0.85597,-0.446597 -0.4466,-0.08374 -3.14479,-0.08374 -0.30704,0 -0.39077,0.102345 -0.0465,0.05582 -0.0465,0.279123 v 3.889115 q 0,0.232602 0.26982,0.232602 0.85597,-0.01861 2.45628,-0.120953 0.27912,-0.02791 0.40938,-0.269819 0.10234,-0.186082 0.21399,-0.772241 0.0837,-0.400076 0.4373,-0.288427 0.31634,0.05582 0.26981,0.288427 -0.26051,1.265358 -0.16747,3.293652 0.009,0.223299 -0.30703,0.269819 -0.27913,0.03722 -0.32565,-0.307035 -0.093,-0.716416 -0.2419,-0.939714 -0.13957,-0.232603 -0.53964,-0.279123 -0.76294,-0.09304 -2.30742,-0.09304 -0.16747,0 -0.16747,0.130257 v 4.056588 q 0,0.865282 1.00484,1.060668 0.25121,0.04652 1.73987,0.04652 2.31672,0 2.89357,-1.618913 0.13956,-0.381468 0.4559,-0.251211 0.29773,0.07443 0.23261,0.344252 z m 10.69041,-0.911802 q 0,1.572393 -1.15371,2.521411 -1.20023,0.986235 -3.28435,0.986235 -2.74471,0 -3.21922,-1.014147 -0.28843,-0.614071 -0.57685,-1.563089 -0.12096,-0.437293 0.17678,-0.56755 0.37216,-0.167474 0.58615,0.148865 0.79085,1.172317 1.59101,1.665435 0.77224,0.474509 1.80499,0.474509 2.58654,0 2.58654,-2.065511 0,-0.809457 -0.56755,-1.377007 -0.54894,-0.530334 -2.2702,-1.460744 -2.17716,-1.172317 -2.86566,-1.842212 -0.84668,-0.828065 -0.84668,-2.046902 0,-1.29327 1.07928,-2.205072 1.08858,-0.911802 2.77262,-0.911802 1.19093,0 2.31672,0.297731 0.86528,0.232603 0.97693,0.595462 0.23261,0.753633 0.30704,1.860821 0.0186,0.400076 -0.26982,0.446597 -0.36286,0.05582 -0.51173,-0.251211 -0.57685,-1.163013 -1.31187,-1.637522 -0.6792,-0.437293 -1.77709,-0.437293 -0.97693,0 -1.54448,0.455901 -0.56755,0.455901 -0.56755,1.29327 0,0.781545 0.55825,1.349095 0.53033,0.530334 1.95386,1.24675 2.19577,1.097884 3.02383,1.86082 1.03276,0.939714 1.03276,2.17716 z"
           id="path70" /></g><path
         style="font-variation-settings:normal;opacity:1;vector-effect:none;fill:#ceb9a3;fill-opacity:1;stroke:none;stroke-width:1px;stroke-linecap:butt;stroke-linejoin:miter;stroke-miterlimit:4;stroke-dasharray:none;stroke-dashoffset:0;stroke-opacity:1;-inkscape-stroke:none;filter:url(#filter10);stop-color:#000000;stop-opacity:1"
         d="m -2.625,49.75 5.875,4.5 2,5.375 0.375,11.125 0.875,6.75 1.125,6.75 -2.25,13.25 -0.625,8.625 -0.375,6 2.125,5.75 1.125,5.5 -0.375,8.25 -3,8.125 -4.75,4.75 -13.875,0.25 1.625,-94.5 z"
         id="path71" /><path
         style="font-variation-settings:normal;opacity:1;vector-effect:none;fill:#b0ab8f;fill-opacity:1;stroke:none;stroke-width:1px;stroke-linecap:butt;stroke-linejoin:miter;stroke-miterlimit:4;stroke-dasharray:none;stroke-dashoffset:0;stroke-opacity:1;-inkscape-stroke:none;filter:url(#filter10);stop-color:#000000;stop-opacity:1"
         d="m 131.34508,92.454212 -7.24784,2.474873 -7.24785,9.015615 -3.53553,9.89949 -2.65165,9.72272 -4.77297,9.19239 3.00521,10.25304 4.24263,8.13173 -2.65164,20.85965 1.94454,11.49049 8.3085,3.0052 12.55115,6.54074 8.66206,-6.18718 -0.53033,-14.67246 -5.30331,-9.8995 1.59099,-9.36917 1.76777,-7.42462 3.00521,-7.77817 12.02081,-10.07628 -2.2981,-12.02081 -8.3085,-15.909904 -4.24264,-6.010407 z"
         id="path72" /></g></g></svg>
