<?xml version="1.0" encoding="UTF-8" standalone="no"?>
<!-- Created with Inkscape (http://www.inkscape.org/) -->

<svg
   width="202.14166mm"
   height="202.14166mm"
   viewBox="0 0 202.14166 202.14166"
   version="1.1"
   id="svg1"
   xml:space="preserve"
   xmlns:xlink="http://www.w3.org/1999/xlink"
   xmlns="http://www.w3.org/2000/svg"
   xmlns:svg="http://www.w3.org/2000/svg"><defs
     id="defs1"><filter
       style="color-interpolation-filters:sRGB"
       id="filter1"
       x="-0.091666735"
       y="-0.091666721"
       width="1.1833335"
       height="1.1833334"><feColorMatrix
         id="feColorMatrix1"
         values="0 0 0 0 0.80000000000000004 0 0 0 0 0.89000000000000001 0 0 0 0 0.96999999999999997 0 0 0 1 0"
         in="SourceAlpha" /><feMorphology
         radius="10"
         id="feMorphology1"
         operator="dilate" /><feGaussianBlur
         stdDeviation="5"
         id="feGaussianBlur1" /></filter><filter
       style="color-interpolation-filters:sRGB"
       id="filter29"
       x="-0.12750009"
       y="-0.12749999"
       width="1.2550002"
       height="1.255"><feColorMatrix
         id="feColorMatrix4-1"
         values="0 0 0 0 0.85999999999999999 0 0 0 0 0.92000000000000004 0 0 0 0 0.95999999999999996 0 0 0 1 0"
         in="SourceAlpha"
         result="result11" /><feMorphology
         radius="9"
         id="feMorphology24"
         operator="dilate"
         result="result9"
         in="result11" /><feGaussianBlur
         stdDeviation="5"
         id="feGaussianBlur24"
         result="result1"
         radius="5" /><feTurbulence
         id="feTurbulence24"
         baseFrequency="0.10000000000000001"
         type="turbulence"
         result="result8" /><feColorMatrix
         id="feColorMatrix24"
         values="0 0 0 0 0 0 0 0 0 0 0 0 0 0 0 0 0 0 1 0"
         result="result2" /><feComposite
         id="feComposite24"
         operator="in"
         result="result3"
         in="result1" /><feGaussianBlur
         stdDeviation="4"
         id="feGaussianBlur26"
         in="result3"
         result="result10" /><feBlend
         mode="overlay"
         id="feBlend26"
         result="result7"
         in2="result1" /></filter></defs><g
     id="layer2"
     style="display:none;opacity:1"
     transform="translate(-1195.9166,-1541.9917)"><g
       id="g281"
       transform="matrix(1.8183898,0,0,1.8188387,1336.9717,751.7235)"
       style="display:inline;opacity:1;fill:#c1d7ec;fill-opacity:1;stroke-width:0.549869"><path
         id="rect281"
         style="display:inline;fill:#cde2f7;stroke-width:0.145486px"
         d="m -88.570071,423.49461 v 84.04742 l 0.08668,-0.0119 31.802612,0.13439 4.41088,-1.374 4.847676,-3.35258 15.565254,-14.93266 3.417075,-7.47997 2.76259,-7.57685 0.45328,-28.82062 1.468114,-4.24983 2.406503,-3.40516 2.826817,-2.43631 3.886269,-1.37399 5.1250442,0.0375 3.8521666,1.48309 3.6574979,3.39464 4.3529056,6.62477 2.2411055,5.15532 0.9920999,4.30637 -0.021598,13.35211 -1.222292,5.58576 -8.9684008,20.37209 -3.9226452,8.12207 -4.7340017,5.84942 -12.471016,12.94014 -6.915996,6.93503 -5.068491,4.05181 -8.993125,4.45638 -4.624305,1.1163 -7.125158,-0.10853 -8.643574,-1.30609 -7.59009,-1.55214 -11.898662,0.79127 -1.955213,0.11024 v 21.06676 H 43.414733 V 423.49461 Z" /></g><g
       id="g2"
       style="display:inline;opacity:1;mix-blend-mode:normal;fill:#b9d8e7;fill-opacity:1"
       transform="translate(1.2708334e-5)"><path
         id="path250"
         style="display:inline;opacity:1;fill:#b9d8e7;fill-opacity:1"
         d="m -246.73073,648.67102 v 4.48603 l 0.0636,-0.0429 0.42478,-0.9524 0.42529,-0.9524 0.016,-2.15077 0.003,-0.38757 z m 205.082577,0 0.397908,0.77359 0.399976,2.59158 0.400492,2.59105 0.521416,1.00821 0.520898,1.00821 1.3224,0.3669 1.3224,0.36742 0.445967,0.002 0.446485,0.002 0.668693,1.10019 0.66921,1.09968 1.390096,0.82941 1.390612,0.82889 0.601514,1.57509 0.601514,1.5751 0.976684,0.21446 0.977202,0.21446 0.854728,-0.31936 0.855245,-0.31885 1.655196,-0.24339 1.655713,-0.24288 0.637687,-1.29915 0.63717,-1.29914 2.520777,-1.2821 2.520776,-1.28209 1.21698,-0.92811 1.216463,-0.92759 h 1.457793 1.457275 l 1.154968,0.70383 1.1549684,0.70435 1.6210897,10e-4 1.2469523,10e-4 v -9.41596 z m -187.781817,8.25634 -0.42065,0.49196 -0.42013,0.49196 -0.7953,1.22473 -0.7953,1.22525 -1.66811,0.47129 -1.66812,0.47077 v 1.01079 1.01079 l 0.94155,1.1188 0.94102,1.11879 0.73433,0.29714 0.73432,0.29714 0.98805,0.0222 0.98754,0.0227 1.00975,-0.52245 1.00976,-0.52245 0.8506,-1.08624 0.85007,-1.08675 -0.98495,-2.06809 -0.98495,-2.06758 -0.38809,-0.24029 -0.38861,-0.23978 -0.26613,-0.72037 z m 35.93424,28.32385 -1.08056,1.68414 -1.08055,1.68413 -0.98444,0.90537 -0.98495,0.90589 -1.12086,0.44132 -1.12086,0.44132 -0.61702,0.68109 -0.6165,0.68161 -1.96629,0.56534 -1.9668,0.56483 -0.96635,0.49247 -0.96687,0.49248 -0.74672,1.4919 -0.74724,1.4919 -1.09709,1.15445 -1.09761,1.15445 -2.39934,0.71468 -2.39985,0.71469 -1.31568,1.12965 -1.31569,1.12913 -0.44596,0.59583 -0.44545,0.59531 -1.62109,1.09399 -1.62058,1.09399 -2.31355,0.0744 -2.31304,0.0744 -0.32659,-1.23455 -0.32608,-1.23455 -0.36432,-0.44132 -0.3638,-0.4408 h -1.37615 -1.37562 l -1.49138,1.36116 -1.49139,1.36064 -0.7059,0.35657 -0.70538,0.35656 -1.29914,0.2341 -1.29967,0.23461 -0.34468,1.13481 -0.34468,1.13533 -0.21963,0.99064 -0.22014,0.99115 -1.39164,1.50947 -1.39165,1.50999 -1.37821,0.62115 -1.37821,0.62167 -0.39326,0.86299 -0.39326,0.86352 0.0124,0.77721 0.0124,0.77721 0.42891,0.76947 0.4284,0.76997 1.23455,0.83251 1.23455,0.83303 0.0512,3.25148 0.0506,3.25148 0.22066,0.8785 0.22014,0.87798 1.49294,0.92501 1.49241,0.92449 0.96997,0.90537 0.97048,0.90537 v 1.36839 1.3684 l -0.44132,0.77049 -0.4408,0.7705 -0.17621,5.34489 -0.17674,5.34489 -1.08882,1.35806 -1.08934,1.35806 -0.37207,0.70538 -0.37207,0.70538 -0.39067,2.53732 -0.39119,2.53679 v 1.23042 1.2299 l 0.55449,0.55449 0.55448,0.55448 h 2.74247 2.74195 l 0.53951,0.61702 0.53898,0.61753 0.23875,1.41129 0.23874,1.41076 0.35864,1.13482 0.35863,1.1343 3.06338,1.58181 3.06338,1.58233 1.1343,0.0176 1.13429,0.0171 2.21641,-1.20716 2.21691,-1.20717 2.00195,-0.24133 2.00246,-0.24081 0.82011,-0.8785 0.8201,-0.87798 0.88212,-0.45734 0.8816,-0.45733 3.40496,-0.25425 3.40444,-0.25373 1.42937,-1.45986 1.42937,-1.46038 0.57051,-1.37046 0.57051,-1.37045 0.76067,-1.02888 0.76068,-1.02888 -0.49093,-0.30334 -0.49092,-0.30334 -1.5043,-0.22531 -1.5043,-0.22583 -0.90692,-0.71313 -0.90693,-0.71314 v -0.894 -0.89348 l 0.88212,-1.048 0.88212,-1.048 v -1.70997 -1.70946 l -1.89033,-1.61437 -1.8898,-1.61489 h -0.50075 -0.50074 l -1.87792,1.41077 -1.87793,1.41128 h -1.49758 -1.49758 l -0.54829,-0.61753 -0.5488,-0.61702 -0.53899,-1.30586 -0.5395,-1.30587 -1.93683,-1.09295 -1.93684,-1.09296 -0.42167,-0.5085 -0.4222,-0.50849 0.19223,-0.97307 0.19172,-0.97358 0.5271,-2.04742 0.52659,-2.04742 0.40721,-0.49093 0.40721,-0.49093 1.72961,-0.57412 1.72961,-0.57464 3.09387,-2.48254 3.09386,-2.48305 2.20865,-1.00614 2.20866,-1.00563 0.34933,-0.91829 0.34881,-0.91777 -0.001,-2.18178 -0.001,-2.18229 -0.70384,-1.15497 -0.70435,-1.15497 v -1.17409 -1.17409 l 0.79892,-1.19837 0.79892,-1.1989 2.5461,-1.33687 2.54558,-1.33635 1.23817,-2.57504 1.23868,-2.57503 0.94464,-3.97134 0.94413,-3.97133 1.87792,-1.41748 1.87793,-1.41801 0.39274,-1.45882 0.39222,-1.45934 0.52762,-1.02061 0.52761,-1.02061 v -1.20561 -1.20561 l -0.61908,-0.6842 -0.6196,-0.6842 h -0.96687 z m 17.38757,21.44159 -1.13223,0.0393 -1.13275,0.0388 -0.45475,0.59893 -0.45527,0.59841 -2.22209,2.19315 -2.22209,2.19315 -0.19378,1.19631 -0.19431,1.19682 0.91674,1.08934 0.91726,1.08986 0.008,0.65474 0.008,0.65474 -2.14509,1.93993 -2.14509,1.94045 -0.32918,1.41129 -0.32917,1.41076 -0.031,2.72335 -0.031,2.72335 0.21859,0.35295 0.21808,0.35347 2.27376,-1.12138 2.27377,-1.12138 0.47438,-1.42575 0.47388,-1.42627 0.80408,-0.11731 0.80409,-0.11782 0.93224,0.86816 0.93173,0.86868 0.77101,0.39585 0.7705,0.39584 h 0.89503 0.89504 l 1.89601,-0.83871 1.896,-0.83819 0.24288,-0.63407 0.2434,-0.63407 -0.22686,-1.51154 -0.22634,-1.51153 0.77876,-1.25988 0.77825,-1.25987 v -1.25212 -1.25212 l -0.74053,-0.78858 -0.74104,-0.78858 0.002,-2.09393 0.002,-2.09393 -0.95395,-2.01435 -0.95343,-2.01434 -0.90072,-0.35037 -0.90072,-0.34985 -0.88212,-0.0558 z m 126.27601,67.1034 -0.750341,0.52606 -0.750342,0.52607 -0.238745,1.73168 -0.238229,1.73271 -0.781864,0.73484 -0.782381,0.73483 -2.067058,0.71107 -2.067057,0.71159 h -0.840775 -0.840776 l -1.021643,-0.75551 -1.02216,-0.75551 -1.345137,0.2067 -1.345138,0.20619 -2.59519,2.75436 -2.595191,2.75332 0.233061,3.23391 0.233061,3.23339 -2.22002,1.17616 -2.22002,1.17564 -0.324011,0.93586 -0.324528,0.93431 0.438216,1.56528 0.4377,1.56372 2.500106,0.38758 2.500622,0.38654 0.909505,0.67748 0.910022,0.67696 0.176217,2.78691 0.176733,2.78691 0.826823,1.15858 0.826823,1.1591 1.289844,0.60979 1.289844,0.60874 -0.108521,2.28824 -0.108004,2.28875 0.02739,4.97179 0.02687,4.97179 -1.40715,1.76785 -1.407666,1.76681 -1.555977,1.27538 -1.556494,1.27486 -0.247013,2.30735 -0.247014,2.30683 -0.727604,0.38913 -0.727604,0.38964 -1.954403,-0.16227 -1.954402,-0.16174 -1.095541,-1.30483 -1.095023,-1.30432 -3.866948,0.10387 -3.867464,0.10491 -1.702738,-1.32344 -1.702739,-1.32291 h -1.930631 -1.930632 l -1.04283,0.5395 -1.042831,0.53898 -0.877982,1.39113 -0.877983,1.39113 -1.0604,0.54881 -1.060401,0.54777 0.0124,0.78444 0.01292,0.78445 0.503845,0.88264 0.504362,0.8816 0.0124,1.09709 0.0124,1.0976 -0.926559,1.3653 -0.926041,1.36529 -0.17415,1.29553 -0.173633,1.29656 1.011825,1.27951 1.012341,1.2795 1.146183,0.68317 1.1467,0.68213 v 2.39933 2.39986 l -0.82889,1.22783 -0.828373,1.22835 -0.630969,1.94045 -0.630453,1.94045 -0.625284,1.23455 -0.624769,1.23455 -1.002522,0.93586 -1.002523,0.93586 -2.227776,0.56224 -2.22777,0.56224 -1.5074,0.88315 -1.50688,0.88315 h -0.97307 -0.97307 l -1.00356,-0.71417 -1.00355,-0.7152 -0.20412,-0.64234 -0.20413,-0.64337 -0.89193,-0.40566 -0.89142,-0.40721 h -0.87695 -0.87643 l -1.31155,0.57877 -1.31155,0.57878 -3.35173,0.2837 -3.35122,0.28422 -2.74763,0.48834 -2.74712,0.48835 -1.48622,1.44229 -1.48569,1.4428 -1.5875,0.39843 -1.5875,0.39791 -0.96325,0.37672 -0.96377,0.37568 -1.90117,2.5182 -1.90118,2.51716 -1.13533,2.2934 -1.13533,2.29236 -0.91674,0.97049 -0.91674,0.96996 -4.25556,-0.005 -4.25555,-0.005 -0.88212,-0.43718 -0.8816,-0.4377 -1.05833,-2.11511 -1.05833,-2.1146 -2.99879,-0.35295 -2.99826,-0.35244 -0.50488,-1.1467 -0.50488,-1.1467 -0.37724,-0.002 -0.37724,-0.002 -2.59054,0.94258 -2.59054,0.94309 -0.83767,1.32705 -0.83768,1.32705 -2.10891,0.9462 -2.1084,0.94619 -0.22272,1.0139 -0.22273,1.01389 -1.00149,0.71313 -1.00097,0.71314 -1.62729,0.22324 -1.62729,0.22272 -1.33481,-0.60203 -1.3348,-0.60203 -1.56579,0.11214 -1.56632,0.11162 -0.3085,2.16835 -0.0997,0.69918 H -6.7309046 v -94.75442 l -0.2619995,-0.007 -0.9746175,0.50384 -0.9746175,0.50436 -0.4687052,0.56483 -0.4692221,0.56534 -0.5973796,1.83916 -0.597379,1.83968 -0.904855,0.10852 -0.905371,0.10852 -1.001489,-1.2485 -1.000973,-1.24798 -1.411283,-2.7187 -1.411283,-2.71922 -1.41025,-0.4749 -1.41025,-0.47439 -0.478007,-0.47853 -0.478524,-0.478 -0.360701,-3.12591 -0.361219,-3.12591 -1.144116,-1.2733 -1.144116,-1.27279 -0.134875,-0.40566 -0.135393,-0.40566 -3.120223,-0.50488 -3.120739,-0.5054 -1.315682,-1.42523 -1.315682,-1.42524 -1.567863,-0.6935 -1.567863,-0.6935 -1.403532,-0.0734 -1.403015,-0.0739 -2.539897,0.26406 -2.539897,0.26459 -2.000911,-0.91519 -2.000395,-0.91674 h -0.58446 z m -165.88755,96.66128 -0.18397,0.47956 -0.18448,0.47955 -1.55701,0.39223 -1.55701,0.39222 -0.92915,0.73071 -0.92914,0.73122 -0.23616,1.30741 -0.23616,1.30793 -0.28112,0.54726 -0.28164,0.54777 -3.35896,1.67845 -3.35949,1.67845 -4.69119,0.35708 -4.69118,0.35709 -1.33015,0.50384 -1.33016,0.50333 h -2.26032 -2.26033 l -0.86196,-1.10123 -0.49145,-0.62786 v 7.94835 h 38.34443 v -0.2558 l 0.8785,-0.81442 0.87902,-0.81442 0.53227,-1.27383 0.53226,-1.27434 v -1.23196 -1.23249 l -0.73483,-0.68471 -0.73536,-0.68471 -1.55804,-0.39274 -1.55753,-0.39223 -0.002,-1.67069 -0.002,-1.67019 0.58188,-1.62419 0.58239,-1.62419 -0.22582,-0.89865 -0.22531,-0.89814 -1.11311,-0.38809 -1.11311,-0.38757 h -2.02624 z"
         transform="translate(1422.6475,873.32087)" /></g></g><g
     id="layer3"
     style="display:inline"
     transform="translate(-1195.9166,-1541.9917)"><path
       id="rect1"
       clip-path="none"
       style="display:inline;opacity:1;fill:#c2d6ed;fill-opacity:1;stroke-width:0.264583px;-inkscape-stroke:none"
       d="m 1175.9168,1521.9919 v 239.9998 h 239.9998 v -239.9998 z" /><use
       x="0"
       y="0"
       xlink:href="#g281"
       id="use281"
       style="display:inline;opacity:1;fill:#000000;fill-opacity:1;filter:url(#filter1)"
       clip-path="none" /><use
       x="0"
       y="0"
       xlink:href="#g2"
       id="use5"
       style="font-variation-settings:normal;display:inline;opacity:1;vector-effect:none;fill:#ffffff;fill-opacity:1;stroke:none;stroke-width:0.264583px;stroke-linecap:butt;stroke-linejoin:miter;stroke-miterlimit:4;stroke-dasharray:none;stroke-dashoffset:0;stroke-opacity:1;-inkscape-stroke:none;filter:url(#filter29);stop-color:#000000;stop-opacity:1"
       clip-path="none" /></g></svg>
