<?xml version="1.0" encoding="UTF-8" standalone="no"?>
<!-- Created with Inkscape (http://www.inkscape.org/) -->

<svg
   width="200mm"
   height="200mm"
   viewBox="0 0 200 199.99999"
   version="1.1"
   id="svg1"
   xml:space="preserve"
   xmlns:xlink="http://www.w3.org/1999/xlink"
   xmlns="http://www.w3.org/2000/svg"
   xmlns:svg="http://www.w3.org/2000/svg"><defs
     id="defs1"><filter
       style="color-interpolation-filters:sRGB"
       id="filter1"
       x="-0.099999992"
       y="-0.099999997"
       width="1.2"
       height="1.2"><feColorMatrix
         id="feColorMatrix1"
         values="0 0 0 0 0.80000000000000004 0 0 0 0 0.89000000000000001 0 0 0 0 0.96999999999999997 0 0 0 1 0"
         in="SourceAlpha" /><feMorphology
         radius="10"
         id="feMorphology1"
         operator="dilate" /><feGaussianBlur
         stdDeviation="5"
         id="feGaussianBlur1" /></filter><filter
       style="color-interpolation-filters:sRGB"
       id="filter2"
       x="-0.011363646"
       y="-0.011363634"
       width="1.0227273"
       height="1.0227273"><feGaussianBlur
         stdDeviation="1"
         id="feGaussianBlur4"
         in="SourceAlpha"
         result="result3" /><feColorMatrix
         id="feColorMatrix5"
         values="0 0 0 0 0 0 0 0 0 0 0 0 0 0 0 0 0 0 9 -4"
         result="result4" /><feMorphology
         radius="0.10000000000000001"
         id="feMorphology5"
         result="result6"
         operator="dilate" /><feColorMatrix
         id="feColorMatrix4"
         values="0 0 0 0 0.72999999999999998 0 0 0 0 0.84999999999999998 0 0 0 0 0.91000000000000003 0 0 0 1 0"
         result="result1"
         in="result6" /><feMorphology
         radius="1"
         id="feMorphology4"
         in="result4"
         operator="erode"
         result="result5" /><feComposite
         id="feComposite8"
         in2="result5"
         operator="out"
         in="result1" /></filter><filter
       style="color-interpolation-filters:sRGB"
       id="filter29"
       x="-0.14363648"
       y="-0.14363633"
       width="1.287273"
       height="1.2872727"><feColorMatrix
         id="feColorMatrix4-1"
         values="0 0 0 0 0.85999999999999999 0 0 0 0 0.92000000000000004 0 0 0 0 0.95999999999999996 0 0 0 1 0"
         in="SourceAlpha"
         result="result11" /><feMorphology
         radius="9"
         id="feMorphology24"
         operator="dilate"
         result="result9"
         in="result11" /><feGaussianBlur
         stdDeviation="5"
         id="feGaussianBlur24"
         result="result1"
         radius="5" /><feTurbulence
         id="feTurbulence24"
         baseFrequency="0.10000000000000001"
         type="turbulence"
         result="result8" /><feColorMatrix
         id="feColorMatrix24"
         values="0 0 0 0 0 0 0 0 0 0 0 0 0 0 0 0 0 0 1 0"
         result="result2" /><feComposite
         id="feComposite24"
         operator="in"
         result="result3"
         in="result1" /><feGaussianBlur
         stdDeviation="4"
         id="feGaussianBlur26"
         in="result3"
         result="result10" /><feBlend
         mode="overlay"
         id="feBlend26"
         result="result7"
         in2="result1" /></filter><filter
       style="color-interpolation-filters:sRGB"
       id="filter16"
       x="-0.024454565"
       y="-0.024454539"
       width="1.0489091"
       height="1.0489091"><feTurbulence
         id="feTurbulence14"
         baseFrequency="0.5"
         type="turbulence"
         result="result10" /><feGaussianBlur
         stdDeviation="0.20000000000000001"
         id="feGaussianBlur15"
         result="result5" /><feColorMatrix
         id="feColorMatrix14"
         values="0 0 0 0 0.57999999999999996 0 0 0 0 0.55000000000000004 0 0 0 0 0.46999999999999997 0 0 0 10.800000000000001 -5.4000000000000004"
         result="result4" /><feGaussianBlur
         stdDeviation="0.25"
         id="feGaussianBlur16"
         result="result11" /><feMorphology
         radius="7"
         id="feMorphology6"
         in="SourceAlpha"
         result="result25" /><feColorMatrix
         id="feColorMatrix6"
         values="0 0 0 0 1 0 0 0 0 1 0 0 0 0 1 0 0 0 -1 0.40000000000000002"
         in="result25" /><feGaussianBlur
         stdDeviation="3"
         id="feGaussianBlur6"
         result="result26" /><feTurbulence
         id="feTurbulence16"
         type="fractalNoise"
         baseFrequency="0.14999999999999999"
         result="result20" /><feMorphology
         radius="0.69999999999999996"
         id="feMorphology10"
         operator="dilate" /><feBlend
         mode="normal"
         id="feBlend6"
         in="result26"
         result="result29" /><feColorMatrix
         id="feColorMatrix9"
         values="0.0000000 0.0000000 0.0000000 0.0000000 0.95000000 0.0000000 0.0000000 0.0000000 0.0000000 0.90000000 0.0000000 0.0000000 0.0000000 0.0000000 0.85000000 0.0000000 0.0000000 0.0000000 20.000000 -13.000000 "
         result="result28" /><feColorMatrix
         id="feColorMatrix3"
         values="0.0000000 0.0000000 0.0000000 0.0000000 0.96000000 0.0000000 0.0000000 0.0000000 0.0000000 0.92000000 0.0000000 0.0000000 0.0000000 0.0000000 0.86000000 0.0000000 0.0000000 0.0000000 20.000000 -14.000000 "
         result="result24"
         in="result29" /><feBlend
         mode="normal"
         id="feBlend9"
         in="result24"
         result="result30"
         in2="result28" /><feComposite
         id="feComposite16"
         in="result11"
         in2="result23"
         operator="over"
         result="result13" /><feColorMatrix
         id="feColorMatrix10"
         values="0 0 0 0 0.98999999999999999 0 0 0 0 0.93999999999999995 0 0 0 0 0.88 0 0 0 1 0"
         in="SourceAlpha"
         result="result32" /><feBlend
         mode="normal"
         id="feBlend10"
         result="result31"
         in="result13"
         in2="result32" /><feGaussianBlur
         stdDeviation="1"
         id="feGaussianBlur8"
         in="SourceAlpha" /><feColorMatrix
         id="feColorMatrix8"
         values="1 0 0 0 0 0 1 0 0 0 0 0 1 0 0 0 0 0 9 -4"
         result="result27" /><feComposite
         id="feComposite9"
         in="result31"
         operator="in"
         result="result22" /></filter><filter
       style="color-interpolation-filters:sRGB"
       id="filter278"
       x="-0.46446081"
       y="-0.25896818"
       width="1.9289216"
       height="1.5179364"><feColorMatrix
         id="feColorMatrix278"
         values="0 0 0 0 0.92000000000000004 0 0 0 0 0.97999999999999998 0 0 0 0 0.81999999999999995 0 0 0 0.5 0"
         in="SourceAlpha" /><feGaussianBlur
         stdDeviation="10"
         id="feGaussianBlur278" /></filter><filter
       style="color-interpolation-filters:sRGB"
       id="filter20"
       x="-0.020722918"
       y="-0.032447455"
       width="1.0414458"
       height="1.0648949"><feTurbulence
         id="feTurbulence3"
         result="result1"
         type="fractalNoise"
         baseFrequency="0.25"
         numOctaves="1" /><feColorMatrix
         id="feColorMatrix15"
         values="0 0 0 0 0 0 0 0 0 0 0 0 0 0 0 0 0 0 1.5 0"
         result="result8"
         baseFrequency="0.25" /><feMorphology
         radius="0.69999999999999996"
         id="feMorphology15"
         in="SourceAlpha"
         result="result3"
         operator="dilate" /><feGaussianBlur
         stdDeviation="1"
         id="feGaussianBlur17"
         result="result7"
         in="result3" /><feComposite
         id="feComposite17"
         in="result7"
         operator="in"
         result="result6"
         in2="result8" /><feMorphology
         radius="0.29999999999999999"
         id="feMorphology17"
         in="SourceAlpha"
         result="result10" /><feGaussianBlur
         stdDeviation="0.5"
         id="feGaussianBlur18"
         result="result2"
         in="result10" /><feBlend
         mode="normal"
         id="feBlend18"
         in="result6"
         in2="result2"
         result="result4" /><feColorMatrix
         id="feColorMatrix18"
         values="0 0 0 0 0.79000000000000004 0 0 0 0 0.81999999999999995 0 0 0 0 0.62 0 0 0 80 -60"
         result="result5"
         in="result4" /></filter><filter
       style="color-interpolation-filters:sRGB"
       id="filter43"
       x="-0.1356315"
       y="-0.21236859"
       width="1.271263"
       height="1.4247372"><feTurbulence
         id="feTurbulence22"
         result="result1"
         type="fractalNoise"
         baseFrequency="0.25"
         numOctaves="1" /><feColorMatrix
         id="feColorMatrix22"
         values="0 0 0 0 0 0 0 0 0 0 0 0 0 0 0 0 0 0 1.5 0"
         result="result8"
         baseFrequency="0.25" /><feMorphology
         radius="0.69999999999999996"
         id="feMorphology22"
         in="SourceAlpha"
         result="result3"
         operator="dilate" /><feGaussianBlur
         stdDeviation="1"
         id="feGaussianBlur22"
         result="result7"
         in="result3" /><feComposite
         id="feComposite22"
         in="result7"
         operator="in"
         result="result6"
         in2="result8" /><feMorphology
         radius="0.29999999999999999"
         id="feMorphology23"
         in="SourceAlpha"
         result="result10" /><feGaussianBlur
         stdDeviation="0.5"
         id="feGaussianBlur25"
         result="result2"
         in="result10" /><feBlend
         mode="normal"
         id="feBlend25"
         in="result6"
         in2="result2"
         result="result4" /><feColorMatrix
         id="feColorMatrix25"
         values="0 0 0 0 0.5 0 0 0 0 0.46999999999999997 0 0 0 0 0.41999999999999998 0 0 0 80 -60"
         result="result5"
         in="result4" /><feColorMatrix
         id="feColorMatrix26"
         values="0 0 0 0 0 0 0 0 0 0 0 0 0 0 0 0 0 0 -1 1"
         in="result5"
         result="result517" /><feMorphology
         radius="5.5"
         id="feMorphology27"
         operator="dilate"
         in="result517" /><feGaussianBlur
         stdDeviation="3"
         id="feGaussianBlur28"
         result="result51" /><feTurbulence
         id="feTurbulence28"
         baseFrequency="0.20000000000000001"
         type="fractalNoise" /><feColorMatrix
         id="feColorMatrix28"
         values="0 0 0 0 1 0 0 0 0 1 0 0 0 0 1 0 0 0 -1 1"
         result="result52" /><feComposite
         id="feComposite28"
         operator="in"
         result="result53"
         in="result51" /><feBlend
         mode="color-dodge"
         id="feBlend28"
         result="result57"
         in2="result517" /><feColorMatrix
         id="feColorMatrix29"
         values="0.0000000 0.0000000 0.0000000 0.0000000 0.66000000 0.0000000 0.0000000 0.0000000 0.0000000 0.64000000 0.0000000 0.0000000 0.0000000 0.0000000 0.50000000 0.0000000 0.0000000 0.0000000 4.5000000 -0.50000000 "
         result="result516" /><feTurbulence
         id="feTurbulence29"
         baseFrequency="1"
         type="fractalNoise"
         result="result510" /><feMorphology
         radius="6"
         id="feMorphology29"
         in="result517"
         operator="dilate"
         result="result524" /><feGaussianBlur
         stdDeviation="1"
         id="feGaussianBlur29"
         result="result59" /><feTurbulence
         id="feTurbulence30"
         type="fractalNoise"
         baseFrequency="0.17999999999999999" /><feColorMatrix
         id="feColorMatrix31"
         values="0 0 0 0 0 0 0 0 0 0 0 0 0 0 0 0 0 0 100 -70" /><feComposite
         id="feComposite31"
         in2="result59"
         result="result528" /><feComposite
         id="feComposite32"
         operator="in"
         result="result58"
         in2="result528"
         in="result510" /><feColorMatrix
         id="feColorMatrix32"
         values="0 0 0 0 1 0 0 0 0 1 0 0 0 0 1 0 0 0 9 -6"
         result="result54" /><feGaussianBlur
         stdDeviation="0.20000000000000001"
         id="feGaussianBlur32"
         result="result55" /><feColorMatrix
         id="feColorMatrix33"
         values="0 0 0 0 0.58999999999999997 0 0 0 0 0.56000000000000005 0 0 0 0 0.47999999999999998 0 0 0 70 0"
         result="result56" /><feGaussianBlur
         stdDeviation="0.29999999999999999"
         id="feGaussianBlur33"
         result="result511" /><feColorMatrix
         id="feColorMatrix34"
         values="1 0 0 0 0 0 1 0 0 0 0 0 1 0 0 0 0 0 0.75 0"
         result="result522" /><feComposite
         id="feComposite34"
         in2="result516"
         operator="over"
         result="result513" /><feColorMatrix
         id="feColorMatrix39"
         values="0 0 0 0 0 0 0 0 0 0 0 0 0 0 0 0 0 0 1 0"
         in="result5"
         result="result525" /><feComposite
         id="feComposite41"
         result="result515"
         operator="in"
         in2="result525"
         in="result513" /><feMorphology
         radius="0.80000000000000004"
         id="feMorphology41"
         result="result519"
         in="result525" /><feMorphology
         radius="0.20000000000000001"
         id="feMorphology42"
         in="result525"
         operator="dilate"
         result="result527" /><feComposite
         id="feComposite42"
         in2="result527"
         operator="xor"
         result="result523"
         in="result519" /><feColorMatrix
         id="feColorMatrix42"
         values="0 0 0 0 0.5 0 1 0 0 0.46999999999999997 0 0 1 0 0.41999999999999998 0 0 0 1 0"
         result="result526" /><feGaussianBlur
         stdDeviation="0.20000000000000001"
         id="feGaussianBlur42"
         result="result520" /><feComposite
         id="feComposite43"
         in="result520"
         in2="result515"
         result="result521" /><feMerge
         id="feMerge43"><feMergeNode
           id="feMergeNode43"
           in="result521" /></feMerge></filter></defs><g
     id="layer2"
     style="display:none;opacity:1"
     transform="translate(-645.78003,-706.18402)"><g
       id="g281"
       transform="matrix(1.8183898,0,0,1.8188387,1336.9717,751.7235)"
       style="display:inline;opacity:1;fill:#c1d7ec;fill-opacity:1;stroke-width:0.549869"><path
         id="rect281"
         style="display:inline;fill:#cde2f7;stroke-width:0.145486px"
         d="M -385.61144,-30.535484 V 90.42082 h 120.98617 V -30.535484 Z" /></g><g
       id="g2"
       style="display:inline;opacity:1;mix-blend-mode:normal;fill:#fcf0e0;fill-opacity:1;stroke:#bad9e8;stroke-width:2;stroke-dasharray:none"><path
         id="path252"
         style="display:inline;opacity:1;fill:#fcf0e0;fill-opacity:1;stroke:#bad9e8;stroke-width:2;stroke-dasharray:none"
         d="m -786.8677,-177.13649 v 35.42419 l 0.48472,0.14625 1.44177,0.43563 2.07533,2.0283 2.08411,1.81333 0.85421,0.54363 -1.36271,0.28319 -0.34416,0.56689 -0.57309,1.72444 -0.57309,1.72496 v 1.29966 1.30018 l 1.31568,1.13688 1.31516,1.13689 0.29198,1.51101 0.29248,1.51102 0.015,1.79731 0.0155,1.79782 -0.61753,0.54571 -0.61702,0.5457 -1.89032,0.2527 -1.89084,0.25269 -0.66714,0.66715 -0.66715,0.66766 v 0.71313 0.71365 l -0.98288,1.07487 v 42.364859 l 0.0641,-0.06408 h 1.75855 1.75854 l 1.61024,0.730705 1.61076,0.731221 0.61288,0.327112 0.61236,0.327629 h 1.22732 1.2268 l 0.41806,0.79375 0.41806,0.79375 0.38809,0.259415 0.38809,0.258899 0.83148,0.0057 0.83095,0.0052 1.46193,-1.128096 1.46193,-1.128613 1.49138,-1.341004 1.49138,-1.341003 h 1.43712 1.43712 l 0.51108,1.223181 0.51108,1.223698 v 1.832446 1.832446 l -1.04128,1.62264 -1.04128,1.62264 -0.57464,1.37511 -0.57412,1.37511 0.0305,3.955314 0.0305,3.955314 -0.58807,0.486276 -0.58963,0.486275 -0.64182,1.449007 -0.64338,1.449007 -1.52962,1.373043 -1.5291,1.373043 -1.05575,0.563273 -1.05575,0.563273 -0.59531,1.25367 -0.59583,1.254187 v 1.820561 1.821077 l 0.55707,1.829863 0.55604,1.830379 0.64595,1.5875 0.64596,1.5875 0.009,5.974312 0.009,5.974313 -0.90382,1.542024 -0.9033,1.542025 0.17983,2.53783 0.17984,2.537829 0.98495,2.106332 0.98547,2.1068479 2.29237,3.3341634 2.29236,3.3336466 1.16479,3.6710938 1.16479,3.670577 1.68465,2.4690999 1.68465,2.4696164 0.66404,1.295528 0.66456,1.296045 0.65836,1.906861 0.65887,1.907377 0.002,2.325956 0.002,2.326473 -0.41652,2.733683 -0.41599,2.733684 1.73684,3.616316 1.73685,3.616317 0.11317,5.62653 0.0687,3.389457 h 189.73261 V -177.13649 Z m 0,106.435363 v 3.56464 l 0.18913,-1.676383 0.18862,-1.676901 z"
         transform="translate(1422.6475,873.32087)" /></g><g
       id="g278"
       style="display:inline;opacity:1;mix-blend-mode:normal;fill:#e9edd2;fill-opacity:1;stroke:none"><path
         id="path276"
         style="fill:#e9edd2;fill-opacity:1;stroke:none;stroke-width:0.264583px;stroke-linecap:butt;stroke-linejoin:miter;stroke-opacity:1"
         d="m 855.77981,770.92555 -21.73873,12.60182 -6.36085,25.81806 -17.96066,25.44444 -5.61258,20.20549 12.72222,8.60567 38.9506,-3.35741 z" /></g><g
       id="g280"
       style="display:inline;opacity:1;fill:#c8d09d;fill-opacity:1;stroke:none"
       transform="translate(1422.6475,873.32087)"><path
         id="path316"
         style="fill:#c8d09d;fill-opacity:1;stroke:none"
         d="m -773.54552,-112.51615 -1.24075,0.66405 -1.24127,0.66404 v 1.90221 1.90169 h -2.4908 -2.49132 l -0.33538,1.28313 -0.33538,1.28312 h -1.24385 -1.24334 l -1.07694,1.18959 -1.07693,1.1896 0.1757,2.17816 0.17518,2.178158 -0.8971,-0.07235 v 14.505575 h 0.0181 l 1.58285,1.881022 1.58234,1.881022 1.90634,-0.05426 1.90583,-0.05426 1.17098,1.0604 1.17151,1.059884 h 2.38745 2.38797 l 0.9064,-2.17041 0.90692,-2.169894 1.53996,-0.38654 1.53996,-0.386539 2.97346,1.013375 2.97295,1.012858 0.076,1.703772 0.076,1.703772 -0.11472,0.84956 -0.11524,0.849561 0.75913,0.914673 0.75913,0.914672 h 1.20458 1.20406 v 0.291455 0.291456 l -1.60352,1.604036 -1.60352,1.60352 v 1.205094 1.205095 l 0.48111,0.48059 0.4811,0.480074 0.65888,2.34301 0.65939,2.343009 1.58595,0.802535 1.58595,0.802019 1.17357,0.0098 1.17305,0.0093 2.74919,-2.749186 2.74919,-2.749187 0.43356,-1.366841 0.43408,-1.366842 1.85726,-0.647506 1.85673,-0.647505 1.09296,-2.13217 1.09295,-2.132686 0.63821,-0.411861 0.63768,-0.411862 -1.20871,-2.474784 -1.20819,-2.474784 -1.71566,-0.198438 -1.71566,-0.198437 0.91364,-2.18643 0.91364,-2.186947 v -1.733744 -1.734261 l -1.06143,-1.173055 -1.06195,-1.173572 h -1.42576 -1.42575 l -0.80512,0.970484 -0.80512,0.969966 -0.86403,-0.717269 -0.86454,-0.717269 1.34823,-1.091923 1.34824,-1.091406 -0.45578,-2.076876 -0.45631,-2.076359 -1.56321,-1.686718 -1.56321,-1.686719 0.65836,-0.657837 0.65835,-0.65836 v -1.36374 -1.36322 l -1.53685,-1.44384 -1.53738,-1.44384 -1.83089,0.20929 -1.8309,0.20929 -1.11311,-1.76372 -1.11311,-1.76423 h -1.56373 -1.56424 l -1.97353,1.66088 -1.97352,1.66036 v -1.45883 -1.45934 l -1.39475,-1.48466 -1.39474,-1.48467 h -1.21337 z" /><path
         style="fill:#c8d09d;fill-opacity:1;stroke:none"
         d="m -672.61947,-8.1196066 -0.76212,-0.9182969 -0.40473,-2.0236975 -0.40474,-2.023698 h -1.119 -1.11899 l -3.28673,-2.616935 -3.28674,-2.616935 0.15587,-5.241294 0.15587,-5.241295 3.09482,-0.19747 3.09483,-0.19747 -0.76101,-0.916965 -0.76101,-0.916964 0.35666,-0.92946 0.35667,-0.929459 -1.29408,-1.64515 -1.29407,-1.64515 0.21591,-1.121114 0.2159,-1.121114 2.34799,-1.105584 2.34799,-1.105584 0.48753,-0.788835 0.48753,-0.788835 -0.13936,-2.361775 -0.13935,-2.361776 1.57926,-1.876851 1.57927,-1.87685 0.2064,-2.528047 0.20639,-2.528047 2.15808,-0.320744 2.15808,-0.320744 -2.6392,-2.115066 -2.63919,-2.115065 v -0.932003 -0.932004 h -3.16088 -3.16088 l -1.32954,-1.69023 -1.32953,-1.690231 v -0.733157 -0.733157 l 1.30952,-1.12125 1.30953,-1.12125 -1.0965,-1.856217 -1.09649,-1.856218 1.08473,-1.655514 1.08474,-1.655514 h 0.94744 0.94744 v -0.539949 -0.539948 l -2.56595,-0.768778 -2.56595,-0.768778 v -1.858384 -1.858383 l -2.17342,0.352697 -2.17341,0.352697 -2.15663,-1.502693 -2.15663,-1.502692 -1.76409,-1.576304 -1.7641,-1.576305 v -1.733056 -1.733055 l -2.23741,-0.419741 -2.23741,-0.419742 -0.68639,-1.282529 -0.68639,-1.282529 0.19748,-2.328835 0.19747,-2.328836 1.92447,-0.614405 1.92446,-0.61441 1.01275,-0.87853 1.01274,-0.87852 h 2.06706 2.06706 l 0.87654,2.09786 0.87654,2.097855 1.33593,1.209003 1.33594,1.209004 v -1.603721 -1.60372 l 1.17311,-1.061651 1.17312,-1.06166 h 0.75135 0.75135 v -0.57393 -0.57393 l 2.40558,0.61856 2.40558,0.61856 1.53483,0.36839 1.53484,0.36838 1.81417,1.992568 1.81417,1.992564 0.0188,0.80186 0.0188,0.801861 h 1.28298 1.28298 v -0.618919 -0.618918 l 1.32398,-0.708573 1.32398,-0.708574 0.76085,0.623731 0.76086,0.623731 1.60372,0.133279 1.60372,0.13328 1.44335,-0.07101 1.44335,-0.07101 v -0.641488 -0.641488 l -1.44335,-7.83e-4 -1.44335,-7.84e-4 -1.86387,-1.602937 -1.86387,-1.60294 h 0.69423 0.69423 l 0.22435,-1.1226 0.22436,-1.12261 -1.83082,-0.79182 -1.83082,-0.79183 0.11194,-2.41561 0.11193,-2.41562 -0.0622,-1.07799 -0.0621,-1.07799 -1.44335,-0.20498 -1.44335,-0.20499 -0.20845,-1.82082 -0.20846,-1.82083 1.10974,-1.22624 1.10974,-1.22625 h 1.5043 1.50429 v -0.94744 -0.94745 l 1.55434,-1.01844 1.55433,-1.01843 0.42028,-2.48761 0.42028,-2.48761 0.86467,-0.71761 0.86468,-0.71762 2.77373,0.19957 2.77374,0.19957 0.62314,1.41993 0.62315,1.41992 1.3926,-0.34952 1.3926,-0.34952 1.99355,1.03091 1.99356,1.0309 v 0.75029 0.75028 l 1.68705,1.7609 1.68704,1.7609 -0.40731,1.06143 -0.4073,1.06143 -1.21608,0.31801 -1.21608,0.31801 -0.32776,1.70593 -0.32776,1.70592 0.27079,0.27398 0.27079,0.27398 1.87841,-1.79964 1.87842,-1.79963 1.5299,0.29246 1.5299,0.29246 -0.0472,-2.61574 -0.0472,-2.61573 1.68774,-0.19561 1.68774,-0.19562 0.37901,-2.37033 0.37901,-2.37034 -0.37837,-1.44677 -0.37836,-1.44676 0.79574,-0.95882 0.79575,-0.95881 h 2.13508 2.13509 l 3.19713,0.68566 3.19713,0.68566 0.79268,0.95512 0.79268,0.95512 2.02978,0.8481 2.02978,0.84809 1.70984,2.91763 1.70985,2.91763 v 1.66574 1.66574 l -1.7641,0.62589 -1.76409,0.62588 -1.1139,0.64122 -1.1139,0.64121 h -0.92833 -0.92832 l -0.20298,1.76409 -0.20299,1.76409 -2.08483,0.20102 -2.08484,0.20101 v 0.5223 0.5223 l 1.00912,0.83749 1.00912,0.83749 1.32632,2.59982 1.32633,2.59981 0.55296,-1.4948 0.55297,-1.4948 1.22195,-0.31954 1.22196,-0.31955 0.32816,-1.25489 0.32816,-1.25489 2.60374,-1.02278 2.60375,-1.02278 0.35783,-1.12744 0.35783,-1.12743 1.63529,-0.41043 1.63529,-0.41043 1.23545,0.39212 1.23546,0.39212 0.97167,1.879 0.97167,1.879 h 0.94033 0.94032 l 0.80123,1.28298 0.80123,1.28297 h 1.02925 1.02924 l 1.06166,1.17312 1.06165,1.17312 v 1.77363 1.77364 l -1.28297,0.335509 -1.28298,0.335506 v 1.819699 1.819699 l -1.5109,1.139674 -1.5109,1.139674 1.35053,0.673311 1.35053,0.673311 v 4.461936 4.461936 l -2.98804,1.418626 -2.98804,1.418627 -0.41763,0.675746 -0.41764,0.675745 h -2.16949 -2.16949 l -0.39646,-0.641488 -0.39646,-0.641488 h -1.89935 -1.89936 l -2.5532,-1.611767 -2.55321,-1.611768 v -0.821659 -0.821658 l -2.56595,-0.684892 -2.56595,-0.684892 v 1.065556 1.065556 l -0.76979,0.769786 -0.76978,0.769786 h -1.47543 -1.47542 l -0.076,2.40558 -0.076,2.405581 0.11234,0.962232 0.11233,0.962232 1.33629,1.137646 1.33629,1.137646 1.58124,-1.036067 1.58123,-1.036066 2.33842,0.436941 2.33843,0.436941 0.80186,0.66263 0.80186,0.662631 v 1.446627 1.446626 l 1.03846,0.861852 1.03847,0.861852 -0.33916,3.74034 -0.33916,3.74034 -1.65536,1.534134 -1.65536,1.534133 0.41207,1.158963 0.41207,1.158963 0.91628,1.069703 0.91627,1.069704 -0.21192,1.496249 -0.21192,1.496248 -1.44335,0.204989 -1.44335,0.204988 v 1.509192 1.509193 l -3.04707,2.611722 -3.04706,2.611723 -0.78539,0.0041 -0.78539,0.0041 -0.98534,-1.905448 -0.98535,-1.905448 -1.23618,-0.661584 -1.23618,-0.661584 0.34641,2.13465 0.3464,2.13465 -1.02805,1.028049 -1.02805,1.02805 v 1.82755 1.82755 l -0.96303,1.374916 -0.96303,1.374917 -1.87007,0.410738 -1.87008,0.410738 -0.47271,1.083405 -0.4727,1.083405 -0.062,0.962232 -0.062,0.962232 -2.12674,0.204141 -2.12674,0.204141 -0.92033,-0.763804 -0.92033,-0.763804 v -1.525173 -1.525174 h -0.54207 -0.54206 l -1.16108,1.282977 -1.16108,1.282976 h -1.18355 -1.18355 v 1.912243 1.912242 l -1.6084,0.403681 -1.60839,0.403682 -1.59905,-1.047736 -1.59904,-1.047736 v -1.111222 -1.111222 l -2.14518,-0.671428 -2.14517,-0.671428 -0.78652,0.262175 -0.78653,0.262175 1.32798,0.93015 1.32797,0.93015 v 2.19236 2.19236 l -1.92446,0.995179 -1.92446,0.995179 v 1.170778 1.170778 l 0.71443,2.04944 0.71444,2.049441 -1.19123,1.316297 -1.19123,1.316296 0.20805,1.587607 0.20804,1.587607 -1.33497,0.349104 -1.33497,0.349103 v 0.808868 0.8088673 l -0.863,0.7162255 -0.863,0.7162255 -1.89926,0.3798515 -1.89926,0.3798515 z"
         id="path314" /></g></g><g
     id="layer3"
     style="display:inline"
     transform="translate(-645.78003,-706.18402)"><use
       x="0"
       y="0"
       xlink:href="#g281"
       id="use281"
       style="display:inline;opacity:1;fill:#cde3f8;fill-opacity:1;filter:url(#filter1)"
       clip-path="none" /><use
       x="0"
       y="0"
       xlink:href="#g2"
       id="use5"
       style="font-variation-settings:normal;display:inline;opacity:1;vector-effect:none;fill:#ffffff;fill-opacity:1;stroke:none;stroke-width:0.264583px;stroke-linecap:butt;stroke-linejoin:miter;stroke-miterlimit:4;stroke-dasharray:none;stroke-dashoffset:0;stroke-opacity:1;-inkscape-stroke:none;filter:url(#filter29);stop-color:#000000;stop-opacity:1"
       clip-path="none" /><use
       x="0"
       y="0"
       xlink:href="#g2"
       id="use1"
       style="font-variation-settings:normal;display:inline;opacity:1;vector-effect:none;fill:#f3eadb;fill-opacity:1;stroke-width:0.264583;stroke-linecap:butt;stroke-linejoin:miter;stroke-miterlimit:4;stroke-dasharray:none;stroke-dashoffset:0;stroke-opacity:1;-inkscape-stroke:none;filter:url(#filter16);stop-color:#000000;stop-opacity:1"
       clip-path="none" /><use
       x="0"
       y="0"
       xlink:href="#g278"
       id="use278"
       style="display:inline;opacity:1;filter:url(#filter278)" /><use
       x="0"
       y="0"
       xlink:href="#g280"
       id="use2"
       style="display:inline;opacity:1;filter:url(#filter20)" /><use
       x="0"
       y="0"
       xlink:href="#g280"
       id="use3"
       style="display:inline;opacity:1;filter:url(#filter43)" /><use
       x="0"
       y="0"
       xlink:href="#g2"
       id="use273"
       style="display:inline;opacity:1;fill:#faefdd;fill-opacity:1;stroke:#000000;stroke-opacity:1;filter:url(#filter2)"
       clip-path="none" /><g
       id="g364"
       style="display:inline;opacity:1;stroke:#bbd8e7;stroke-width:1.5;stroke-dasharray:none;stroke-opacity:1"><path
         id="path364"
         style="display:inline;opacity:1;fill:none;stroke:#bbd8e7;stroke-width:1.5;stroke-dasharray:none;stroke-opacity:1"
         d="m 689.46076,696.18438 2.16782,3.34191 2.64119,0.80461 6.70295,1.3472 4.23333,2.20607 3.88038,1.30741 4.23334,-0.39067 4.58628,-1.40302 3.02979,-1.81436 1.1684,-4.14186 0.39946,-1.25729 z m -48.27561,40.95797 3.6959,0.12479 3.52795,1.07591 4.23333,1.18545 3.52744,1.59681 3.30626,2.90421 1.89445,2.44791 1.23972,2.03657 3.08457,1.67173 5.29166,-2.32957 6.35,-0.66973 4.93924,-1.36632 2.11666,-0.23461 4.58577,-3.00809 4.58628,-2.5833 2.82205,-1.52859 3.52795,-1.45004 12.7,0.45268 3.52382,1.0201 2.66392,2.69699 2.99413,2.70836 5.98775,-0.11369 3.88038,1.82366 7.36803,0.56224 2.87218,2.18127 5.98774,1.63504 3.175,-0.31729 5.99705,-3.93361 5.29167,-3.252 2.82205,-1.86242 3.8809,-2.15801 4.58577,-1.63349 6.70656,-4.80746 4.22972,-3.49901 2.82205,-1.55649 2.11667,0.0589 5.64461,1.64486 3.88039,-0.0496 3.8809,1.01389 2.4691,-0.75448 2.46961,-1.06608 2.46962,0.0232 3.14968,-0.23254 1.64021,-1.28623 0.88263,-2.06137 2.44636,-3.54449 3.87522,-1.11879 2.46962,0.0868 3.175,0.58136 4.93871,0.59737 2.81844,-1.55494 2.58072,-2.3027 2.71508,-1.08676 4.23333,1.6521 3.88038,0.64854 3.175,-0.39223 2.46962,-1.01595 0.99581,-0.42168 v -20.19722 m -6.99751,209.396 -0.31471,3.52795 -0.154,2.11667 0.0661,3.88038" /></g></g></svg>
