<?xml version="1.0" encoding="UTF-8" standalone="no"?>
<!-- Created with Inkscape (http://www.inkscape.org/) -->

<svg
   width="200mm"
   height="200mm"
   viewBox="0 0 200 199.99999"
   version="1.1"
   id="svg1"
   xml:space="preserve"
   xmlns:xlink="http://www.w3.org/1999/xlink"
   xmlns="http://www.w3.org/2000/svg"
   xmlns:svg="http://www.w3.org/2000/svg"><defs
     id="defs1"><filter
       style="color-interpolation-filters:sRGB"
       id="filter1"
       x="-0.091666736"
       y="-0.091666734"
       width="1.1833335"
       height="1.1833335"><feColorMatrix
         id="feColorMatrix1"
         values="0 0 0 0 0.80000000000000004 0 0 0 0 0.89000000000000001 0 0 0 0 0.96999999999999997 0 0 0 1 0"
         in="SourceAlpha" /><feMorphology
         radius="10"
         id="feMorphology1"
         operator="dilate" /><feGaussianBlur
         stdDeviation="5"
         id="feGaussianBlur1" /></filter><filter
       style="color-interpolation-filters:sRGB"
       id="filter2"
       x="-0.010416686"
       y="-0.010416677"
       width="1.0208334"
       height="1.0208334"><feGaussianBlur
         stdDeviation="1"
         id="feGaussianBlur4"
         in="SourceAlpha"
         result="result3" /><feColorMatrix
         id="feColorMatrix5"
         values="0 0 0 0 0 0 0 0 0 0 0 0 0 0 0 0 0 0 9 -4"
         result="result4" /><feMorphology
         radius="0.10000000000000001"
         id="feMorphology5"
         result="result6"
         operator="dilate" /><feColorMatrix
         id="feColorMatrix4"
         values="0 0 0 0 0.72999999999999998 0 0 0 0 0.84999999999999998 0 0 0 0 0.91000000000000003 0 0 0 1 0"
         result="result1"
         in="result6" /><feMorphology
         radius="1"
         id="feMorphology4"
         in="result4"
         operator="erode"
         result="result5" /><feComposite
         id="feComposite8"
         in2="result5"
         operator="out"
         in="result1" /></filter><filter
       style="color-interpolation-filters:sRGB"
       id="filter29"
       x="-0.13166691"
       y="-0.13166679"
       width="1.2633338"
       height="1.2633336"><feColorMatrix
         id="feColorMatrix4-1"
         values="0 0 0 0 0.85999999999999999 0 0 0 0 0.92000000000000004 0 0 0 0 0.95999999999999996 0 0 0 1 0"
         in="SourceAlpha"
         result="result11" /><feMorphology
         radius="9"
         id="feMorphology24"
         operator="dilate"
         result="result9"
         in="result11" /><feGaussianBlur
         stdDeviation="5"
         id="feGaussianBlur24"
         result="result1"
         radius="5" /><feTurbulence
         id="feTurbulence24"
         baseFrequency="0.10000000000000001"
         type="turbulence"
         result="result8" /><feColorMatrix
         id="feColorMatrix24"
         values="0 0 0 0 0 0 0 0 0 0 0 0 0 0 0 0 0 0 1 0"
         result="result2" /><feComposite
         id="feComposite24"
         operator="in"
         result="result3"
         in="result1" /><feGaussianBlur
         stdDeviation="4"
         id="feGaussianBlur26"
         in="result3"
         result="result10" /><feBlend
         mode="overlay"
         id="feBlend26"
         result="result7"
         in2="result1" /></filter><filter
       style="color-interpolation-filters:sRGB"
       id="filter276"
       x="-0.017135249"
       y="-0.019715259"
       width="1.0338807"
       height="1.0427306"><feMorphology
         radius="1"
         id="feMorphology7"
         in="SourceAlpha"
         result="result7" /><feGaussianBlur
         stdDeviation="1"
         id="feGaussianBlur274"
         in="result7"
         result="result3" /><feColorMatrix
         id="feColorMatrix274"
         values="0 0 0 0 0 0 0 0 0 0 0 0 0 0 0 0 0 0 9 -4"
         result="result4" /><feMorphology
         radius="0.5"
         id="feMorphology274"
         result="result6"
         operator="dilate" /><feColorMatrix
         id="feColorMatrix275"
         values="0 0 0 0 0.72999999999999998 0 0 0 0 0.84999999999999998 0 0 0 0 0.91000000000000003 0 0 0 1 0"
         result="result1"
         in="result6" /><feMorphology
         radius="0.5"
         id="feMorphology275"
         in="result4"
         operator="erode"
         result="result5" /><feColorMatrix
         id="feColorMatrix276"
         values="0 0 0 0 0.80000000000000004 0 0 0 0 0.87 0 0 0 0 0.96999999999999997 0 0 0 1 0"
         in="result5"
         result="result2" /><feComposite
         id="feComposite276"
         in="result1"
         operator="out" /></filter><filter
       style="color-interpolation-filters:sRGB"
       id="filter39"
       x="-0.017135249"
       y="-0.019715259"
       width="1.0338807"
       height="1.0427306"><feMorphology
         radius="1"
         id="feMorphology9"
         in="SourceAlpha"
         result="result5" /><feGaussianBlur
         stdDeviation="1"
         id="feGaussianBlur37"
         in="result5"
         result="result3" /><feColorMatrix
         id="feColorMatrix37"
         values="0 0 0 0 0.80000000000000004 0 0 0 0 0.89000000000000001 0 0 0 0 0.96999999999999997 0 0 0 9 -4"
         result="result4" /></filter><filter
       style="color-interpolation-filters:sRGB"
       id="filter44"
       x="-0.23063979"
       y="-0.27108481"
       width="1.4608898"
       height="1.5454697"><feMorphology
         radius="1"
         id="feMorphology8"
         in="SourceAlpha"
         result="result12" /><feColorMatrix
         id="feColorMatrix43"
         values="0 0 0 0 0.85999999999999999 0 0 0 0 0.92000000000000004 0 0 0 0 0.96999999999999997 0 0 0 -1 1"
         in="result12"
         result="result11" /><feMorphology
         radius="9"
         id="feMorphology43"
         operator="dilate"
         result="result9"
         in="result11" /><feGaussianBlur
         stdDeviation="5"
         id="feGaussianBlur43"
         result="result1"
         radius="5" /><feTurbulence
         id="feTurbulence43"
         baseFrequency="0.10000000000000001"
         type="turbulence"
         result="result8" /><feColorMatrix
         id="feColorMatrix44"
         values="0 0 0 0 0 0 0 0 0 0 0 0 0 0 0 0 0 0 1 0"
         result="result2" /><feComposite
         id="feComposite44"
         operator="in"
         result="result3"
         in="result1" /><feGaussianBlur
         stdDeviation="4"
         id="feGaussianBlur44"
         in="result3"
         result="result10" /><feBlend
         mode="overlay"
         id="feBlend44"
         result="result7"
         in2="result1" /><feGaussianBlur
         stdDeviation="1"
         id="feGaussianBlur11"
         in="result12" /><feColorMatrix
         id="feColorMatrix11"
         values="1 0 0 0 0 0 0 0 0 0 0 0 0 0 0 0 0 0 9 -4" /><feComposite
         id="feComposite45"
         operator="in"
         in="result7" /></filter><filter
       style="color-interpolation-filters:sRGB"
       id="filter16"
       x="-0.022416708"
       y="-0.022416688"
       width="1.0448334"
       height="1.0448334"><feTurbulence
         id="feTurbulence14"
         baseFrequency="0.5"
         type="turbulence"
         result="result10" /><feGaussianBlur
         stdDeviation="0.20000000000000001"
         id="feGaussianBlur15"
         result="result5" /><feColorMatrix
         id="feColorMatrix14"
         values="0 0 0 0 0.57999999999999996 0 0 0 0 0.55000000000000004 0 0 0 0 0.46999999999999997 0 0 0 10.800000000000001 -5.4000000000000004"
         result="result4" /><feGaussianBlur
         stdDeviation="0.25"
         id="feGaussianBlur16"
         result="result11" /><feMorphology
         radius="7"
         id="feMorphology6"
         in="SourceAlpha"
         result="result25" /><feColorMatrix
         id="feColorMatrix6"
         values="0 0 0 0 1 0 0 0 0 1 0 0 0 0 1 0 0 0 -1 0.40000000000000002"
         in="result25" /><feGaussianBlur
         stdDeviation="3"
         id="feGaussianBlur6"
         result="result26" /><feTurbulence
         id="feTurbulence16"
         type="fractalNoise"
         baseFrequency="0.14999999999999999"
         result="result20" /><feMorphology
         radius="0.69999999999999996"
         id="feMorphology10"
         operator="dilate" /><feBlend
         mode="normal"
         id="feBlend6"
         in="result26"
         result="result29" /><feColorMatrix
         id="feColorMatrix9"
         values="0.0000000 0.0000000 0.0000000 0.0000000 0.95000000 0.0000000 0.0000000 0.0000000 0.0000000 0.90000000 0.0000000 0.0000000 0.0000000 0.0000000 0.85000000 0.0000000 0.0000000 0.0000000 20.000000 -13.000000 "
         result="result28" /><feColorMatrix
         id="feColorMatrix3"
         values="0.0000000 0.0000000 0.0000000 0.0000000 0.96000000 0.0000000 0.0000000 0.0000000 0.0000000 0.92000000 0.0000000 0.0000000 0.0000000 0.0000000 0.86000000 0.0000000 0.0000000 0.0000000 20.000000 -14.000000 "
         result="result24"
         in="result29" /><feBlend
         mode="normal"
         id="feBlend9"
         in="result24"
         result="result30"
         in2="result28" /><feComposite
         id="feComposite16"
         in="result11"
         in2="result23"
         operator="over"
         result="result13" /><feColorMatrix
         id="feColorMatrix10"
         values="0 0 0 0 0.98999999999999999 0 0 0 0 0.93999999999999995 0 0 0 0 0.88 0 0 0 1 0"
         in="SourceAlpha"
         result="result32" /><feBlend
         mode="normal"
         id="feBlend10"
         result="result31"
         in="result13"
         in2="result32" /><feGaussianBlur
         stdDeviation="1"
         id="feGaussianBlur8"
         in="SourceAlpha" /><feColorMatrix
         id="feColorMatrix8"
         values="1 0 0 0 0 0 1 0 0 0 0 0 1 0 0 0 0 0 9 -4"
         result="result27" /><feComposite
         id="feComposite9"
         in="result31"
         operator="in"
         result="result22" /></filter><filter
       style="color-interpolation-filters:sRGB"
       id="filter7-9"
       x="-0.016666656"
       y="-0.016666578"
       width="1.0333333"
       height="1.0333332"><feTurbulence
         id="feTurbulence7"
         result="result1"
         type="fractalNoise"
         baseFrequency="0.25"
         numOctaves="1" /><feColorMatrix
         id="feColorMatrix27"
         values="0 0 0 0 0 0 0 0 0 0 0 0 0 0 0 0 0 0 1.5 0"
         result="result8"
         baseFrequency="0.25" /><feMorphology
         radius="0.69999999999999996"
         id="feMorphology26"
         in="SourceAlpha"
         result="result3"
         operator="dilate" /><feGaussianBlur
         stdDeviation="1"
         id="feGaussianBlur27"
         result="result7"
         in="result3" /><feComposite
         id="feComposite26"
         in="result7"
         operator="in"
         result="result6"
         in2="result8" /><feMorphology
         radius="0.29999999999999999"
         id="feMorphology2"
         in="SourceAlpha"
         result="result10" /><feGaussianBlur
         stdDeviation="0.5"
         id="feGaussianBlur23"
         result="result2"
         in="result10" /><feBlend
         mode="normal"
         id="feBlend23"
         in="result6"
         in2="result2"
         result="result4" /><feColorMatrix
         id="feColorMatrix30"
         values="0 0 0 0 0 0 0 0 0 0 0 0 0 0 0 0 0 0 80 -60"
         result="result5"
         in="result4" /><feTurbulence
         id="feTurbulence2"
         type="fractalNoise"
         baseFrequency="0.040000000000000001" /><feColorMatrix
         id="feColorMatrix7"
         values="0 0 0 0 0.74 0 0 0 0 0.85 0 0 0 0 0.62 0 0 0 0 1" /><feComponentTransfer
         id="feComponentTransfer2"><feFuncR
           id="feFuncR2"
           type="identity"
           tableValues="0.74" /><feFuncG
           id="feFuncG2"
           type="identity"
           tableValues="0.85" /><feFuncB
           id="feFuncB2"
           type="identity"
           tableValues="0.62" /><feFuncA
           id="feFuncA2"
           type="identity"
           tableValues="1" /></feComponentTransfer><feComposite
         id="feComposite7"
         operator="in"
         in2="result5" /></filter><filter
       style="color-interpolation-filters:sRGB"
       id="filter13"
       x="-0.11116659"
       y="-0.11116608"
       width="1.2223332"
       height="1.2223322"><feTurbulence
         id="feTurbulence1"
         result="result1"
         type="fractalNoise"
         baseFrequency="0.25"
         numOctaves="1" /><feColorMatrix
         id="feColorMatrix2"
         values="0 0 0 0 0 0 0 0 0 0 0 0 0 0 0 0 0 0 1.5 0"
         result="result8"
         baseFrequency="0.25" /><feMorphology
         radius="0.69999999999999996"
         id="feMorphology3"
         in="SourceAlpha"
         result="result3"
         operator="dilate" /><feGaussianBlur
         stdDeviation="1"
         id="feGaussianBlur3"
         result="result7"
         in="result3" /><feComposite
         id="feComposite3"
         in="result7"
         operator="in"
         result="result6"
         in2="result8" /><feMorphology
         radius="0.29999999999999999"
         id="feMorphology11"
         in="SourceAlpha"
         result="result10" /><feGaussianBlur
         stdDeviation="0.5"
         id="feGaussianBlur12"
         result="result2"
         in="result10" /><feBlend
         mode="normal"
         id="feBlend12"
         in="result6"
         in2="result2"
         result="result4" /><feColorMatrix
         id="feColorMatrix12"
         values="0 0 0 0 0.5 0 0 0 0 0.46999999999999997 0 0 0 0 0.41999999999999998 0 0 0 80 -60"
         result="result5"
         in="result4" /><feColorMatrix
         id="feColorMatrix13"
         values="0 0 0 0 0 0 0 0 0 0 0 0 0 0 0 0 0 0 -1 1"
         in="result5"
         result="result517" /><feMorphology
         radius="6"
         id="feMorphology556"
         operator="dilate"
         in="result517" /><feGaussianBlur
         stdDeviation="3"
         id="feGaussianBlur556"
         result="result51" /><feTurbulence
         id="feTurbulence556"
         baseFrequency="0.20000000000000001"
         type="fractalNoise" /><feColorMatrix
         id="feColorMatrix557"
         values="0 0 0 0 1 0 0 0 0 1 0 0 0 0 1 0 0 0 -1 1"
         result="result52" /><feComposite
         id="feComposite557"
         operator="in"
         result="result53"
         in="result51" /><feBlend
         mode="color-dodge"
         id="feBlend557"
         result="result57"
         in2="result517" /><feColorMatrix
         id="feColorMatrix558"
         values="0 0 0 0 0.65000000000000002 0 0 0 0 0.70999999999999996 0 0 0 0 0.56000000000000005 0 0 0 4.5 -0.5"
         result="result516" /><feTurbulence
         id="feTurbulence558"
         baseFrequency="1"
         type="fractalNoise"
         result="result510" /><feMorphology
         radius="6"
         id="feMorphology558"
         in="result517"
         operator="dilate"
         result="result524" /><feGaussianBlur
         stdDeviation="1"
         id="feGaussianBlur559"
         result="result59" /><feTurbulence
         id="feTurbulence17"
         type="fractalNoise"
         baseFrequency="0.17999999999999999" /><feColorMatrix
         id="feColorMatrix17"
         values="0 0 0 0 0 0 0 0 0 0 0 0 0 0 0 0 0 0 100 -70" /><feComposite
         id="feComposite19"
         in2="result59"
         result="result528" /><feComposite
         id="feComposite559"
         operator="in"
         result="result58"
         in2="result528"
         in="result510" /><feColorMatrix
         id="feColorMatrix559"
         values="0 0 0 0 1 0 0 0 0 1 0 0 0 0 1 0 0 0 9 -6"
         result="result54" /><feGaussianBlur
         stdDeviation="0.20000000000000001"
         id="feGaussianBlur560"
         result="result55" /><feColorMatrix
         id="feColorMatrix560"
         values="0 0 0 0 0.58999999999999997 0 0 0 0 0.56000000000000005 0 0 0 0 0.47999999999999998 0 0 0 70 0"
         result="result56" /><feGaussianBlur
         stdDeviation="0.29999999999999999"
         id="feGaussianBlur561"
         result="result511" /><feColorMatrix
         id="feColorMatrix565"
         values="1 0 0 0 0 0 1 0 0 0 0 0 1 0 0 0 0 0 0.75 0"
         result="result522" /><feComposite
         id="feComposite561"
         in2="result516"
         operator="over"
         result="result513" /><feColorMatrix
         id="feColorMatrix16"
         values="0 0 0 0 0 0 0 0 0 0 0 0 0 0 0 0 0 0 1 0"
         in="result5"
         result="result525" /><feComposite
         id="feComposite562"
         result="result515"
         operator="in"
         in2="result525"
         in="result516" /><feMorphology
         radius="0.80000000000000004"
         id="feMorphology562"
         result="result519"
         in="result525" /><feMorphology
         radius="0.20000000000000001"
         id="feMorphology16"
         in="result525"
         operator="dilate"
         result="result527" /><feComposite
         id="feComposite563"
         in2="result527"
         operator="xor"
         result="result523"
         in="result519" /><feColorMatrix
         id="feColorMatrix563"
         values="0 0 0 0 0.5 0 1 0 0 0.46999999999999997 0 0 1 0 0.41999999999999998 0 0 0 1 0"
         result="result526" /><feGaussianBlur
         stdDeviation="0.20000000000000001"
         id="feGaussianBlur563"
         result="result520" /><feComposite
         id="feComposite564"
         in="result520"
         in2="result515"
         result="result521" /></filter></defs><g
     id="layer2"
     style="display:none;opacity:1"
     transform="translate(-1124.001,-1817.433)"><g
       id="g281"
       transform="matrix(1.8183898,0,0,1.8188387,1336.9717,751.7235)"
       style="display:inline;opacity:1;fill:#c1d7ec;fill-opacity:1;stroke-width:0.549869"><path
         id="rect281"
         style="display:inline;fill:#cde2f7;stroke-width:0.145486px"
         d="M -128.11941,574.9329 V 706.88513 H 3.8653931 V 574.9329 Z" /></g><g
       id="g2"
       style="display:inline;opacity:1;mix-blend-mode:normal;fill:#fcf0e0;fill-opacity:1;stroke:#bad9e8;stroke-width:2;stroke-dasharray:none"><path
         id="path252"
         style="display:inline;opacity:1;fill:#fcf0e0;fill-opacity:1;stroke:#bad9e8;stroke-width:2;stroke-dasharray:none"
         d="m -318.64683,924.11283 v 158.63477 l 0.58136,-0.3586 0.91674,-0.5659 0.46716,-1.6676 0.46715,-1.6681 2.87941,-2.945 2.87941,-2.9451 0.4992,-0.01 0.49919,-0.01 1.55236,-1.0516 1.55236,-1.0522 h 0.89452 0.894 l 0.8077,-0.7581 0.80719,-0.7586 0.15813,0.494 0.15813,0.4936 0.21962,1.3229 0.22015,1.3229 h -0.32712 -0.32711 l -0.40411,1.6056 -0.40411,1.6056 -1.44745,2.1208 -1.44746,2.1203 -0.83612,0.5477 -0.83613,0.5478 v 0.8527 0.8526 l 0.52917,1.2666 0.52916,1.2666 v 0.5855 0.585 l -2.45359,4.5604 -2.45412,4.561 -0.75706,2.0236 -0.75654,2.0237 0.14573,0.4382 0.14624,0.4382 1.74201,0.5514 1.7415,0.5509 0.66611,1.2443 0.66611,1.2439 1.37666,0.5881 1.37614,0.5875 -0.1018,3.1068 -0.10232,3.1073 -1.22887,0.6129 -1.22834,0.6134 -0.24598,0.6217 -0.24598,0.6216 -0.0248,1.6754 -0.0243,1.6758 h 0.35295 0.35192 v 1.7235 1.7234 l 0.88263,0.5777 0.88212,0.5777 v 0.6527 0.6527 l -0.70745,1.5973 -0.7059,1.5973 -0.0646,0.8289 -0.0641,0.8284 1.47587,3.0939 1.47537,3.0933 v 0.3152 0.3147 l 1.49965,0.2734 1.49965,0.2729 0.52865,-0.096 0.52916,-0.096 0.72812,-0.6749 0.72864,-0.6749 h 1.15704 1.15652 l 0.185,0.7054 0.18397,0.7059 h 0.72502 0.72502 l 1.47794,1.5426 1.47795,1.5425 0.62477,0.3493 0.62425,0.3499 1.01182,-0.3824 1.01183,-0.3819 1.1467,0.4573 1.1467,0.4569 0.90899,0.2837 0.90898,0.2837 1.38442,-0.5204 1.38337,-0.5209 2.2934,-0.3705 2.29289,-0.3706 1.27434,-0.804 1.2733,-0.8041 0.9648,-1.6459 0.9648,-1.6459 -0.0145,-1.6438 -0.0145,-1.6439 -0.90123,-2.389 -0.90124,-2.3895 v -0.831 -0.8304 l 0.55862,-1.3369 0.55862,-1.3368 v -1.4966 -1.497 l -0.43821,-0.8186 -0.43822,-0.8191 -0.79271,-0.6232 -0.7922,-0.6232 -0.56276,-1.6511 -0.56276,-1.651 v -1.1059 -1.1054 l 0.68472,-1.4169 0.68419,-1.4165 0.46251,-0.3648 0.46198,-0.3649 1.05834,-0.2413 1.05833,-0.2413 2.38125,-0.8966 2.38125,-0.8966 v -0.3033 -0.3039 l 1.72909,-2.0779 1.7291,-2.0774 1.07177,-0.4439 1.07125,-0.4439 1.60145,-2.1606 1.60197,-2.1606 0.85783,-2.4799 0.85835,-2.48 0.59324,-2.0278 0.59273,-2.0277 0.28577,-0.1763 0.28525,-0.1767 0.79479,1.3224 0.79478,1.3224 0.52297,2.6458 0.52245,2.6459 0.0109,3.175 0.0103,3.175 -0.062,3.6246 -0.0615,3.6245 -1.63505,1.6671 -1.63452,1.6671 -0.62529,1.4113 -0.62528,1.4108 -0.25787,2.1135 -0.25735,2.1136 -0.8046,1.2382 -0.80408,1.2376 -0.40153,1.5307 -0.40101,1.5306 0.0904,2.3497 0.0909,2.3503 -0.0429,2.9104 -0.0419,2.9099 0.76687,0.1731 0.7674,0.1726 1.75235,0.2744 1.75286,0.2749 0.26975,1.0517 0.27027,1.0521 0.37155,1.4971 0.37156,1.497 0.95756,0.4899 0.95705,0.4899 1.47898,0.2455 1.47898,0.2454 0.32918,0.4134 0.32969,0.4135 0.65371,2.9347 0.65371,2.9342 1.24127,-0.2326 1.24126,-0.2331 0.23048,-0.3725 0.22996,-0.3731 0.43925,-2.8226 0.43925,-2.8226 1.77457,-1.9756 1.77457,-1.9756 0.20257,-0.1762 0.20257,-0.1767 0.38396,-0.694 0.38447,-0.6946 2.68976,-1.0557 2.69027,-1.0558 0.59583,-2.528 0.59635,-2.5285 -0.21963,-0.572 -0.21962,-0.5726 h -2.50373 -2.50372 l -0.71262,-0.3814 -0.7121,-0.3809 -0.49919,-1.1952 -0.4992,-1.1948 v -0.708 -0.7079 l 1.07694,-0.5566 1.07694,-0.557 0.68678,-0.6868 0.68678,-0.6868 v -4.0447 -4.0447 l 0.76119,-0.4072 0.76068,-0.4073 4.09019,0.2414 4.08967,0.2413 1.71462,-1.2232 1.71463,-1.2237 1.63659,-0.2274 1.63659,-0.2278 1.5875,-1.756 1.5875,-1.756 2.69803,-0.4625 2.69803,-0.463 1.60248,-1.0614 1.60249,-1.0615 5.68441,-0.7699 5.68492,-0.7705 1.37666,-0.5509 1.37718,-0.5509 1.74873,-1.927 1.74925,-1.927 0.24701,-2.9657 0.24701,-2.9657 0.75293,-0.4904 0.75344,-0.4905 1.35961,-0.4898 1.3596,-0.4894 0.75706,0.9348 0.75706,0.9348 0.70539,0.072 0.70538,0.072 0.73329,-0.041 0.73329,-0.041 1.56011,-1.0257 1.55959,-1.0258 2.82205,-0.4222 2.82257,-0.4207 0.70538,-0.3689 0.70539,-0.3695 0.99373,-0.8263 0.99374,-0.8263 2.00505,-0.5726 2.00504,-0.5715 1.3069,-0.722 1.3069,-0.7214 0.52761,-1.3187 0.52762,-1.3188 1.04231,-0.7421 1.0418,-0.7416 h 1.74615 1.74614 l 0.84543,0.8734 0.84491,0.8728 0.57619,0.6728 0.57619,0.6734 1.89343,-0.4197 1.89342,-0.4201 1.12035,-2.0893 1.12034,-2.0898 0.7705,-0.6242 0.77101,-0.6243 4.10621,0.01 4.10569,0.01 0.51057,0.323 0.51004,0.3235 0.72451,-0.3721 0.7245,-0.3705 0.94826,-0.8847 0.94827,-0.8837 2.05052,-0.8671 2.05,-0.8661 1.55546,-0.4992 1.55546,-0.4997 h 1.37098 1.37149 l 0.86558,0.8661 0.8661,0.8661 v 0.8097 0.8093 l -2.1022,1.8138 -2.10168,1.8134 -1.85312,0.4444 -1.85363,0.4444 -0.61909,0.741 -0.61908,0.7411 -0.0119,1.8314 -0.0114,1.8324 -1.32292,1.0703 -1.32292,1.0697 -2.46961,1.975 -2.46962,1.9751 -0.61237,1.4082 -0.61288,1.4077 -2.71611,-0.079 -2.71611,-0.079 -1.54668,1.556 -1.54668,1.5549 -0.64595,1.2351 -0.64544,1.2351 -1.07332,1.3456 -1.07332,1.3467 0.18759,0.4894 0.1881,0.4899 1.20303,0.7095 1.20354,0.7095 v 0.3654 0.3648 h 0.69298 0.69298 l 0.36535,0.6816 0.36536,0.6832 v 1.2128 1.2139 l -1.85209,2.8546 -1.85208,2.8546 -1.67587,0.012 -1.67586,0.012 v 1.9022 1.9027 l 0.52916,0.2031 0.52917,0.2031 v 0.6997 0.7002 l -1.28984,0.3561 -1.28985,0.356 -0.94774,0.9085 -0.94827,0.9085 -1.26245,0.2046 -1.26246,0.2052 -1.93425,1.8732 -1.93373,1.8733 -0.24081,1.095 -0.24029,1.095 -1.0201,0.4295 -1.02061,0.4294 -2.1978,1.9405 -2.19779,1.9404 -1.16117,1.1111 -1.16117,1.1115 v 1.4625 1.4619 l 0.85266,0.8532 0.85318,0.8526 1.7048,-0.1922 1.70481,-0.1917 0.88211,1.1353 0.8816,1.1353 0.52917,0.4594 0.52917,0.4589 1.53272,1.2568 1.53272,1.2562 h 2.77089 2.77089 l 0.85887,1.1462 0.85886,1.1467 0.22014,0.7271 0.22014,0.7271 1.1436,1.093 1.14412,1.0929 1.77767,1.0377 1.77818,1.0371 0.86765,-0.3286 0.86816,-0.3292 1.53893,0.1669 1.53892,0.1664 0.63769,0.6563 0.63769,0.6563 0.44235,2.6892 0.44235,2.6898 -2.0898,2.0629 -2.08979,2.0624 -2.99879,1.5033 -2.99826,1.5027 -0.61754,0.01 -0.61753,0.01 v 0.1349 h 74.355151 V 924.11283 Z"
         transform="translate(1422.6475,873.32087)" /></g><g
       id="g365"
       style="display:inline;opacity:1;fill:#bdd99e;fill-opacity:1;stroke:none;stroke-opacity:1"
       transform="translate(1422.6475,873.32087)"><path
         id="path280"
         style="fill:#bdd99e;fill-opacity:1;stroke:none;stroke-opacity:1"
         d="m -251.93204,924.11283 v 1.65727 2.20865 h -1.55753 -1.55701 l -1.26142,1.60352 -1.26142,1.60403 h -1.29088 -1.29088 l 0.29973,-1.14773 0.30024,-1.14773 -1.16169,-1.02423 -1.1622,-1.02371 -2.40554,-0.39429 -2.40554,-0.39429 -2.16214,-0.38137 -2.16214,-0.38086 -2.64945,1.67225 -2.64894,1.67225 v 1.91616 1.91668 h 0.64183 0.6413 v 0.6413 0.64131 h -1.52497 -1.52549 l -0.80719,0.97255 -0.80718,0.97255 0.39067,3.35742 0.39016,3.35793 -0.52038,0.83199 -0.51987,0.83199 -0.82372,-0.99218 -0.82424,-0.99271 h -1.12551 -1.12603 l -0.7984,0.96222 -0.79892,0.96221 h -0.89245 -0.89194 l -1.24333,-0.77618 -1.24282,-0.77618 -1.79576,0.62735 -1.79523,0.62787 -0.19689,1.69189 -0.19741,1.69189 -1.52393,0.38292 -1.52446,0.3824 -0.44183,1.44178 -0.44184,1.44177 -0.62218,0.77825 -0.62167,0.77824 -1.52032,-0.99632 -1.52084,-0.99632 -2.1425,0.70693 -2.14302,0.70745 -2.28513,2.48564 -2.28514,2.48512 -1.99057,-1.26039 -1.99058,-1.25987 -1.30379,0.41393 -1.30328,0.41341 v 1.56063 1.56063 l -1.12293,0.076 -0.1602,0.0109 v 116.07455 l 0.12816,-0.4945 0.50281,-1.9394 2.73162,-0.5876 2.73213,-0.5876 -0.0439,-2.5517 -0.0434,-2.5518 1.64744,-0.1235 1.64693,-0.1235 5.09168,-5e-4 h 5.09168 l 0.52141,0.3225 0.52142,0.3224 v 1.4377 1.4376 l -0.7059,0.7059 -0.7059,0.7059 0.83819,2.3187 0.83871,2.3188 -1.98024,1.8081 -1.97973,1.8082 -0.48989,1.5498 -0.48938,1.5502 -1.19114,0.8382 -1.19114,0.8382 v 2.5317 2.5321 l -1.28261,2.3937 -1.28313,2.3936 v 1.0945 1.094 l -0.6413,0.3964 -0.64182,0.3968 v 1.1333 1.1333 l 1.44332,1.2991 1.44332,1.2992 1.05885,0.3715 1.05885,0.3716 0.4346,2.574 0.4346,2.5735 0.91209,0.757 0.91209,0.7571 v 0.7849 0.7855 l -0.90227,1.8624 -0.90227,1.8625 -0.4222,3.8493 -0.42219,3.8489 0.59634,1.6035 0.59635,1.6041 -0.69143,1.5167 -0.69143,1.5172 2.08824,1.866 2.08825,1.8655 4.14238,-0.4242 4.1429,-0.4248 v 1.4139 1.4138 l 0.66404,1.2408 0.66404,1.2407 h 1.54306 1.54358 l 0.39739,-0.6433 0.39739,-0.6429 1.20199,0.6429 1.202,0.6433 h 1.60817 1.60765 l 0.4129,-0.6676 0.41237,-0.6672 2.512,-1.5859 2.51199,-1.5855 v -1.5172 -1.5172 l -0.8909,-0.7395 -0.89091,-0.7395 -0.75085,-2.9807 -0.75035,-2.9812 0.99994,-0.5596 0.99994,-0.5597 v -1.572 -1.5715 l -1.28261,-1.2831 -1.28312,-1.2831 h -1.28313 -1.28313 l -0.0517,-0.4811 -0.0522,-0.4811 -0.13385,-1.8645 -0.13384,-1.865 1.23507,-1.1504 1.23506,-1.1508 -0.30644,-2.758 -0.30644,-2.7579 4.50774,-0.1959 4.50722,-0.1958 0.58446,-0.3613 0.58446,-0.3612 -0.24805,-2.1265 -0.24856,-2.1264 1.79007,0.3576 1.79007,0.3581 0.92501,-2.2138 0.92501,-2.2139 0.8356,-2.6773 0.83561,-2.6774 h 0.48524 0.48525 v -2.2293 -2.2293 l 1.64537,0.6258 1.6459,0.6253 h 2.12442 2.12493 l 0.66714,0.8041 0.66715,0.8035 3.58117,1.5767 3.58118,1.5766 v 0.4315 0.4315 l -1.28313,0.3354 -1.28261,0.3354 v 4.4767 4.4767 l 1.76372,1.1721 1.76423,1.1725 3.52847,0.124 3.52795,0.124 1.17099,-1.2474 1.17099,-1.2475 1.30741,1.6619 1.30741,1.6625 2.65359,-0.1938 2.65358,-0.1938 0.20464,-1.4433 0.20516,-1.4434 h 2.12183 2.12235 l 0.64079,-0.802 0.64079,-0.8015 0.44493,-3.6788 0.44494,-3.6784 0.59634,-0.3684 0.59687,-0.369 v 1.8505 1.8506 l 1.59731,1.5007 1.59732,1.5006 1.48467,-0.6764 1.48518,-0.677 1.56838,0.8692 1.56838,0.8687 1.10019,0.023 1.10071,0.023 2.19159,-1.9244 2.19212,-1.9244 2.48098,-0.01 2.48151,-0.01 1.60352,-0.8206 1.60352,-0.8201 v -2.6355 -2.636 l 1.76423,-1.3922 1.76423,-1.3922 v -1.4495 -1.4495 l 2.13941,-0.6568 2.1394,-0.6563 0.69143,1.8319 0.69143,1.8319 h 3.2582 3.25768 l 0.76378,-1.2237 0.7643,-1.2236 1.96783,0.3193 1.96784,0.3194 1.76372,-1.3875 1.76423,-1.3876 v -1.7709 -1.771 l 0.38603,-0.386 0.38602,-0.386 2.22312,1.0599 2.22312,1.0599 1.72082,-0.9659 1.72083,-0.9658 v -0.9374 -0.9379 l 1.91564,-1.3028 1.91617,-1.3022 1.39629,1.6231 1.3963,1.6237 h 3.16467 3.16414 l 1.06092,-0.8806 1.06092,-0.8805 v -1.5844 -1.5844 l 1.24282,-1.5803 1.24333,-1.5803 1.87327,1.9601 1.87327,1.9606 h 2.67064 2.67064 l 0.69866,-1.5332 0.69867,-1.5327 1.53272,-0.6987 1.53324,-0.6982 v -1.6541 -1.6537 l 1.88567,1.1142 1.88568,1.1141 2.62413,-0.8661 2.62361,-0.8661 0.75086,0.7504 0.75034,0.7508 h 1.79627 1.79576 v 1.402 1.402 l 1.34152,1.4278 1.34152,1.4278 -1.98283,1.7663 -1.98282,1.7668 v 3.5218 3.5212 l -1.17306,-1.0614 -1.17305,-1.0614 h -1.03611 -1.0356 l -0.83819,1.1322 -0.83819,1.1327 -1.79834,0.7933 -1.79782,0.7937 -0.65578,1.8805 -0.65526,1.8805 -1.55597,1.0196 -1.55546,1.0191 v 1.387 1.3875 l 1.39474,1.4846 1.39475,1.4847 h -1.03766 -1.03767 l -0.99838,1.4258 -0.99891,1.4257 v 1.4144 1.4144 l 1.60404,1.2614 1.60352,1.2614 v 1.3514 1.3508 h -1.91668 -1.9172 l -0.41289,2.5822 -0.4129,2.5823 -1.25315,-0.3974 -1.25264,-0.3979 -1.38906,1.2253 -1.38855,1.2252 -1.76423,1.0956 -1.76372,1.095 v 1.2459 1.2454 l 1.28261,0.6868 1.28313,0.6862 -0.004,0.7798 -0.004,0.7793 -1.9203,1.0925 -1.92029,1.0929 v 3.8788 3.8789 h -1.47536 -1.47537 l -0.76997,0.7694 -0.76947,0.77 v 1.7493 1.7497 l 1.76372,1.3188 1.76423,1.3188 0.53795,0.5953 0.53796,0.5958 1.51773,1.6604 1.51774,1.6604 h 2.21537 2.21537 l -1.04903,3.2799 -1.04852,3.2804 1.74925,1.3947 1.74925,1.3948 v 1.0609 1.0604 l -0.64131,0.3964 -0.64182,0.3968 0.0207,1.4051 0.0202,1.4056 0.92915,1.2278 0.92914,1.2279 -1.27021,2.0552 -1.2702,2.0556 v 0.9581 0.9576 l -1.60249,-0.3065 -1.60249,-0.3059 -1.60507,1.0516 -0.68316,0.4476 h 45.095956 l -0.08682,-0.3452 -0.444417,-1.771 -1.205089,-0.3152 -1.20561,-0.3152 2.093922,-1.8382 2.093413,-1.8381 2.719214,-0.4351 2.719213,-0.4346 0.591696,-1.5555 0.591178,-1.5554 v -1.7545 -1.7544 l -0.7059,-0.7059 -0.706417,-0.7064 1.507918,-0.4563 1.507919,-0.4558 1.498099,-1.6924 1.4981,-1.6924 -0.363285,-2.2836 -0.363802,-2.2835 2.85874,-1.3886 2.858224,-1.3891 0.406693,-1.62 0.406694,-1.6196 -0.409278,-1.6314 -0.409794,-1.6314 -1.037663,-0.3979 -1.037662,-0.3984 -1.885157,0.7115 -1.885156,0.7116 0.376205,-0.9798 0.375687,-0.9797 v -2.1503 -2.1503 l 1.764234,-0.2025 1.764233,-0.2031 0.591178,-2.3937 0.591696,-2.3936 -0.94878,-1.1348 -0.948262,-1.1343 -0.751892,-1.7643 -0.751892,-1.7642 h -0.975652 -0.976167 v -0.6361 -0.6367 l 2.405538,-1.1286 2.405538,-1.1291 0.209806,-1.8294 0.209289,-1.8298 -1.284676,-1.3767 -1.284159,-1.3767 -0.440283,-1.7719 -0.439767,-1.7725 -0.979785,-0.5483 -0.980302,-0.5483 1.051616,-2.1079 1.051615,-2.1079 v -1.4588 -1.4588 l -1.707389,-1.3431 -1.707906,-1.3431 1.226798,-0.9028 1.226282,-0.9033 2.020548,-0.3834 2.020032,-0.3829 0.743107,-0.8951 0.743107,-0.8955 1.933732,-0.3266 V 924.11283 Z m 30.80794,9.31778 1.78697,2.14251 1.78646,2.14302 1.08933,-0.21859 1.08883,-0.21808 1.44642,1.76269 1.44591,1.7632 2.07067,0.39894 2.07068,0.39946 2.99103,-2.94866 2.99103,-2.94866 2.04794,1.74873 2.04845,1.74873 0.58808,1.28313 0.58808,1.28261 2.08927,0.20154 2.08928,0.20153 0.3576,-0.93276 0.35812,-0.93276 1.53272,1.53324 1.53324,1.53324 h 1.05989 1.05988 l -0.50953,1.12242 -0.50953,1.12241 -0.0398,2.3058 -0.0403,2.30529 -0.7183,0.90175 -0.7183,0.90227 -0.78807,2.44585 -0.78806,2.44584 1.1529,1.27383 1.1529,1.27382 1.94252,-0.19172 1.94251,-0.1912 0.74363,-1.50017 0.74362,-1.50017 0.4315,0.69815 0.4315,0.69815 h 1.56063 1.56011 l 0.77153,-1.23507 0.77101,-1.23506 1.76837,0.91467 1.76836,0.91416 h 2.62827 2.62826 l 1.57355,1.69757 1.57303,1.69705 0.10025,0.70848 0.10025,0.70797 0.22738,1.60404 0.22738,1.60352 0.16226,4.00957 0.16226,4.00906 h -2.10736 -2.10737 l -0.72502,1.59163 -0.72553,1.59112 -1.10071,0.34933 -1.10123,0.34985 -1.17512,1.29863 -1.17564,1.29863 0.68265,1.80764 0.68213,1.80816 -0.61185,1.09347 -0.61185,1.09348 -1.21491,-1.09968 -1.21543,-1.09967 -3.1626,0.37465 -3.1626,0.37466 -0.34158,-0.89039 -0.34158,-0.88987 -2.28617,-0.42891 -2.28616,-0.42891 -0.3514,-0.56845 -0.3514,-0.56895 h -1.53014 -1.53014 l -1.72341,1.48259 -1.72341,1.48208 0.94672,1.80765 0.94722,1.80712 -0.7028,1.5167 -0.70228,1.51619 -1.23248,0.005 -1.23248,0.005 -1.17771,1.06557 -1.17771,1.06608 -1.43867,0.71417 -1.43919,0.71468 -0.2067,1.44178 -0.20722,1.44229 1.69912,3.03237 1.69912,3.03236 0.27492,3.2887 0.27492,3.2887 -2.08773,0.7788 -2.08773,0.7787 -2.63602,1.2248 -2.63653,1.2247 h -0.6997 -0.69969 l -0.51315,0.8687 -0.51263,0.8687 -1.51929,0.7978 -1.51929,0.7984 0.33538,2.5033 0.3359,2.5026 h -1.52807 -1.52807 l -1.05007,1.603 -1.05058,1.603 1.0356,2.1823 1.03559,2.1829 v 0.3017 0.3024 l -2.48253,0.3968 -2.48254,0.3969 -0.64131,0.8077 -0.6413,0.8077 -0.78703,2.4433 -0.78755,2.4432 0.817,1.9725 0.81701,1.9725 -1.71669,1.2506 -1.71721,1.2511 v 1.0511 1.0516 l -0.99891,-1.4258 -0.99838,-1.4257 h -2.06603 -2.06602 l -1.42576,0.9989 -1.42575,0.9984 v 2.0567 2.0567 l -1.44332,0.6331 -1.44332,0.6335 -0.95498,1.9771 -0.95447,1.9772 -2.19573,1.7115 -2.19573,1.7105 -1.33997,-0.087 -1.33997,-0.087 -1.30276,-0.2594 -1.30225,-0.2594 -0.62218,-1.3725 -0.62167,-1.3725 -2.21692,-0.7338 -2.21692,-0.7338 -0.524,-2.0227 -0.524,-2.0221 -1.32653,-0.71 -1.32705,-0.71 -3.30936,0.2139 -3.30988,0.214 0.20464,-1.7503 0.20464,-1.7508 -1.12913,-1.9121 -1.12965,-1.9115 1.20562,-1.3322 1.20561,-1.3322 -0.84336,-2.3828 -0.84336,-2.3823 -0.63872,-0.8015 -0.63821,-0.802 h -1.31465 -1.31413 l -1.17305,1.0614 -1.17306,1.062 v -1.5787 -1.5788 l -1.60403,-2.1735 -1.60352,-2.1735 v -0.5906 -0.5907 l 1.5813,1.0361 1.58078,1.0356 h 0.88573 0.88522 l 1.11466,-1.2314 1.11414,-1.231 -0.18707,-2.5905 -0.18706,-2.59 0.45527,-0.4548 0.45475,-0.4553 v -1.7058 -1.7058 l -1.48467,-1.3948 -1.48466,-1.3947 h -0.76016 -0.76068 v -0.9622 -0.9623 h 1.47537 1.47536 l 0.76998,-0.7694 0.76946,-0.77 v -1.3208 -1.3214 l 1.32912,-0.8299 1.3286,-0.83 -0.16175,-3.0468 -0.16175,-3.04687 0.47439,-0.76791 0.47491,-0.76791 h 2.8484 2.84893 l 1.28312,1.28261 1.28313,1.28313 h 1.26349 1.264 l 1.42265,-1.92443 1.42266,-1.92443 h 1.1715 1.17099 l 1.23817,-0.7736 1.23868,-0.77308 1.26194,1.14205 1.26194,1.14256 1.80609,-0.20877 1.80609,-0.20825 0.65629,-1.28313 0.65629,-1.28313 1.72548,0.19948 1.72496,0.19895 1.27485,-1.27434 1.27434,-1.27486 1.81126,-0.20774 1.81126,-0.20722 0.20154,-2.80913 0.20102,-2.80862 -1.69705,-1.77146 -1.69706,-1.77147 0.85422,-0.53589 0.85472,-0.53536 1.02423,0.16794 1.02423,0.16847 0.81545,-0.98289 0.81546,-0.98237 -0.33642,-1.28622 -0.33641,-1.28674 h 1.5074 1.5074 l 0.83819,-1.16479 0.83819,-1.16479 1.13689,-0.42426 1.13739,-0.42427 0.41083,-1.07125 0.41135,-1.07177 -0.66611,-1.76423 -0.66611,-1.76423 1.67638,-1.67639 1.67587,-1.67586 -0.69712,-1.1157 -0.69711,-1.11569 -1.67639,-0.95188 -1.67586,-0.95188 -1.89394,0.7152 -1.89343,0.71468 -2.30063,-2.35592 -2.30064,-2.35645 v -0.75189 -0.75241 l 1.28313,-0.68678 1.28261,-0.68626 v -1.86966 -1.86913 l -2.24483,-1.71256 -2.24534,-1.71256 v -1.84795 -1.84846 h 0.55604 0.55656 l 1.68516,-2.54713 1.68569,-2.54713 3.69228,-1.06609 3.69177,-1.06608 0.48937,-0.71676 z" /></g><g
       id="g3"
       style="display:inline;opacity:1;fill:#cde2f7;fill-opacity:1;stroke:#bad9e8;stroke-width:2;stroke-dasharray:none;stroke-opacity:1"><path
         style="display:inline;opacity:1;fill:#cde2f7;fill-opacity:1;stroke:#bad9e8;stroke-width:2;stroke-dasharray:none;stroke-opacity:1"
         d="m -228.02119,937.13453 0.55707,0.46251 0.55707,0.46198 1.99368,0.60359 1.99367,0.60306 1.19166,1.31568 1.19166,1.31568 0.97152,0.63356 0.97203,0.63355 0.20826,1.04231 0.20877,1.04232 0.57309,0.0124 0.57309,0.0124 0.87644,0.48524 0.87591,0.48473 0.67696,-0.36225 0.67645,-0.36174 3.41684,-0.44648 3.41633,-0.44649 0.92346,-0.92397 0.92397,-0.92346 h 0.8723 0.87282 l 2.14664,1.27899 2.14715,1.27848 2.37453,0.49816 2.37454,0.49764 1.32446,1.29346 1.32499,1.29398 v 1.63039 1.63091 l -0.81649,0.7674 -0.81649,0.76687 h -0.39791 -0.39791 l -0.10852,1.49914 -0.10852,1.49965 0.33848,1.5875 0.33848,1.5875 0.0145,2.20503 0.014,2.20503 1.02474,-5.1e-4 h 1.02423 l 2.20813,-1.23455 2.20762,-1.23507 h 0.94103 0.94051 l 2.28875,0.91571 2.28875,0.9157 1.65209,-0.22169 1.6521,-0.22169 4.58628,-0.29559 4.58577,-0.29611 0.7059,-0.13332 0.70538,-0.13384 -0.077,0.52916 -0.0765,0.52917 -0.30282,1.41128 -0.30231,1.41129 -0.46095,0.8816 -0.46147,0.88211 -1.19218,1.47537 -1.19217,1.47587 -3.13108,1.57924 -3.13107,1.57871 -1.71566,1.66295 -1.71514,1.66295 -1.13533,0.48575 -1.13534,0.48628 -2.21588,-5.2e-4 h -2.2164 l -1.8557,-0.70538 -1.85622,-0.70538 h -1.3286 -1.32912 l -0.75603,0.52968 -0.75602,0.52968 -0.231,1.0511 -0.23099,1.05162 -1.46296,0.39377 -1.46296,0.39429 -0.95085,0.79995 -0.95136,0.80047 -2.30218,0.62322 -2.30167,0.62322 -0.23255,0.56999 -0.23202,0.57051 0.0527,2.65978 0.0527,2.65979 -0.92966,1.66346 -0.92966,1.66347 -0.69815,0.48886 -0.69763,0.48886 -0.34985,2.52181 -0.34933,2.52181 0.75085,1.21489 0.75086,1.2149 1.08727,0.8511 1.08728,0.8506 -1.10898,0.5736 -1.10898,0.5736 -0.51056,0.7866 -0.51108,0.786 -0.44752,2.4468 -0.44751,2.4464 -0.72037,0.7808 -0.72089,0.7803 -1.76423,0.5902 -1.76372,0.5896 -3.07113,0.476 -3.07061,0.4764 -0.88005,0.6455 -0.88005,0.6459 -0.12713,0.5292 -0.12764,0.5291 0.3204,0.969 0.31987,0.9689 -0.18965,1.6769 -0.18965,1.6769 -0.49041,3.0815 -0.49093,3.0814 -0.61236,0.677 -0.61237,0.6764 -2.08979,0.7819 -2.09032,0.7814 -0.7369,1.1932 -0.73742,1.1927 h -0.23565 -0.23616 l -0.75448,1.1441 -0.75447,1.1441 -0.41703,1.8102 -0.41703,1.8102 -0.94206,0.8356 -0.94206,0.8357 -0.94775,0.3524 -0.94723,0.3529 -1.93218,1.8485 -1.93218,1.848 -0.2372,1.7249 -0.23771,1.725 -1.11931,1.0237 -1.11931,1.0242 -0.74983,0.6212 -0.74982,0.6211 -0.84078,-0.9948 -0.84129,-0.9994 -2.37505,-1.8433 -2.37505,-1.8433 -3.08973,-1.0196 -3.08922,-1.0195 -1.23455,-0.2476 -1.23506,-0.2475 -0.83871,-0.7555 -0.83923,-0.7555 -0.48369,-1.1353 -0.48421,-1.1354 v -2.4339 -2.434 l -1.62109,-2.4278 -1.62109,-2.4282 -0.54312,-0.6093 -0.5426,-0.6093 0.7984,-5.5645 0.79892,-5.564 0.48473,-1.5875 0.48524,-1.5875 -0.22583,-3.3993 -0.22531,-3.3987 0.43512,-2.3058 0.43511,-2.3058 0.0842,-1.3508 0.0848,-1.3509 0.0574,-1.157 0.0568,-1.15702 0.97048,0.65939 0.96997,0.65883 2.11667,1.4139 2.11666,1.4144 1.81023,0.3478 1.81022,0.3478 1.46555,-0.9995 1.46554,-0.9994 h 1.93632 1.93683 l 2.54868,-1.2718 2.54868,-1.27118 0.94,-0.8816 0.93948,-0.88212 4.38267,-0.26096 4.3832,-0.26045 2.87993,-1.53479 2.87941,-1.53428 1.9544,-1.86241 1.95389,-1.86294 0.51159,-1.22473 0.51212,-1.22473 0.4904,-0.28422 0.49093,-0.28371 0.23151,-1.41128 0.23151,-1.41128 -1.77715,-0.78135 -1.77715,-0.78187 v -1.22266 -1.22318 l 0.98185,-0.69918 0.98237,-0.69919 1.29243,-0.24236 1.29242,-0.24236 0.62219,-0.45475 0.62166,-0.45527 0.5731,-1.71411 0.57309,-1.71411 1.65468,-0.30437 1.65468,-0.30438 0.37672,-0.70486 0.37724,-0.70487 -0.19586,-1.28364 -0.19637,-1.28416 -0.23151,-1.34824 -0.23151,-1.34824 1.1436,-1.59215 1.1436,-1.59266 0.42168,-1.46917 0.42168,-1.46916 -0.13694,-0.6103 -0.13695,-0.61029 -1.29862,-0.32608 -1.29863,-0.3266 -1.41077,-0.23771 -1.41128,-0.23771 -1.52808,-0.67024 -1.52807,-0.67076 -1.82314,-1.44643 -1.82366,-1.4459 -0.91468,-1.78904 -0.91467,-1.78904 -1.17047,-0.56431 -1.17047,-0.5643 -1.07901,-1.34256 -1.07952,-1.34307 -0.0109,-4.91856 -0.0103,-4.91856 0.32504,-5.2e-4 z"
         transform="translate(1422.6475,873.32087)"
         id="path254" /><path
         style="display:inline;opacity:1;fill:#cde2f7;fill-opacity:1;stroke:#bad9e8;stroke-width:2;stroke-dasharray:none;stroke-opacity:1"
         d="m -132.12886,931.13748 h 0.41238 0.41186 l 0.0636,1.6397 0.063,1.63917 0.46612,0.29559 0.46612,0.29559 0.9493,0.005 0.9493,0.005 0.21807,-0.35295 0.21807,-0.35243 h 1.18236 1.18236 l 0.7369,1.52238 0.73691,1.52239 v 0.59428 0.59428 h -1.37976 -1.38028 l -0.22376,1.32292 -0.22324,1.32291 -1.03508,1.66295 -1.03456,1.66243 -0.88263,0.57826 -0.88315,0.57826 -4.23954,0.12506 -4.24005,0.12557 0.0124,-0.24908 0.0124,-0.2496 0.50437,-0.8816 0.50384,-0.88211 0.0129,-2.50786 0.0124,-2.50786 1.43506,-1.19631 1.43557,-1.19631 1.19217,-2.3368 1.1927,-2.3363 0.57619,-0.22117 z"
         transform="translate(1422.6475,873.32087)"
         id="path253" /></g><g
       id="g364"
       style="display:inline;opacity:1;stroke:#bbd8e7;stroke-width:1.5;stroke-dasharray:none;stroke-opacity:1"><path
         id="path364"
         style="display:inline;opacity:1;fill:none;stroke:#bbd8e7;stroke-width:1.5;stroke-dasharray:none;stroke-opacity:1"
         d="m 1290.2732,1804.8235 2.7165,-0.7297 4.7454,-4.9326 0.9472,-1.7275 h -0.526 m -105.4122,4.9025 0.3519,3.5275 0.1463,2.1166 1.5704,3.9369 m -79.6799,-3.231 2.0082,4.5822 2.513,2.5807 2.5357,4.1259 2.0712,6.35 -0.201,4.2333 0.1189,3.5279 1.2893,2.6924 2.3595,1.7508 1.726,1.604 0.7586,4.1832 1.2423,3.5275 1.9741,2.6768 4.5351,0.3778 2.4691,-0.9865 2.5921,-0.042 m 3.7481,5.5145 -0.3938,-1.8955 -2.1198,-3.6391 -1.2345,0.02 m 3.7481,5.5144 0.3395,1.6324 -0.8826,3.8804 -0.8527,4.2334 0.8211,3.1393 3.0541,1.3689 4.5863,-0.8139 5.1679,5.8174 m 138.372,-63.3614 1.8879,1.1841 0.3829,0.5044 0.4956,0.5922 2.9187,2.8355 1.4531,1.0707 2.4273,0.3907 m -48.4213,16.0704 0.4433,-0.182 3.175,-1.6841 4.5863,-1.6872 3.8804,-2.2629 2.7533,-2.2387 3.2453,-2.6845 7.5888,-4.6763 m -25.6724,15.4157 -2.0258,0.8325 -1.9149,1.9758 z m -43.5911,42.8989 3.317,0.8756 1.8004,4.0075 1.7576,3.175 2.1264,3.175 1.3844,2.7823 3.666,2.9998 6.6574,-1.7916 3.9316,-3.6055 3.1657,-1.3461 3.175,-1.9632 4.2333,0.8795 3.175,0.554 2.1167,-1.0408 2.822,-1.895 2.4697,-0.4687 4.5857,0.198 2.8226,-0.5561 2.4691,-0.6868 2.8226,-0.7622 m -153.8315,60.9239 1.3824,-1.6681 1.4149,-2.1058 0.024,-2.8226 -0.3173,-5.6441 1.4097,-2.867 2.6856,-3.8359 0.123,-2.8221 v -2.8225 l -0.021,-3.175 -0.5855,-2.8221 -1.9564,-3.8804 -0.108,-5.9975 -1.1028,-2.4691 -1.8841,-2.3999 -4.5729,-2.8365 -3.8705,-0.3535 -2.2542,-2.1755 -1.1239,-4.5817 -1.4718,-3.4623 -3.4689,-1.5596 m 64.1852,70.8479 1.7642,-2.6789 0.7933,-4.2334 4.4467,-5.3603 1.5172,-3.8117 0.4445,-4.2333 0.4473,-7.7817 m -9.4132,28.0993 -1.7213,2.6127 0.2562,5.6059" /></g></g><g
     id="layer3"
     style="display:inline"
     transform="translate(-1124.001,-1817.433)"><rect
       style="display:inline;opacity:1;fill:#c2d6ed;fill-opacity:1;stroke-width:0.264583px;-inkscape-stroke:none"
       id="rect1"
       width="267.36108"
       height="257.70459"
       x="1091.4064"
       y="1785.9375"
       clip-path="none" /><use
       x="0"
       y="0"
       xlink:href="#g281"
       id="use281"
       style="display:inline;opacity:1;fill:#cde3f8;fill-opacity:1;filter:url(#filter1)"
       clip-path="none" /><use
       x="0"
       y="0"
       xlink:href="#g2"
       id="use5"
       style="font-variation-settings:normal;display:inline;opacity:1;vector-effect:none;fill:#ffffff;fill-opacity:1;stroke:none;stroke-width:0.264583px;stroke-linecap:butt;stroke-linejoin:miter;stroke-miterlimit:4;stroke-dasharray:none;stroke-dashoffset:0;stroke-opacity:1;-inkscape-stroke:none;filter:url(#filter29);stop-color:#000000;stop-opacity:1"
       clip-path="none" /><use
       x="0"
       y="0"
       xlink:href="#g2"
       id="use1"
       style="font-variation-settings:normal;display:inline;opacity:1;vector-effect:none;fill:#f3eadb;fill-opacity:1;stroke-width:0.264583;stroke-linecap:butt;stroke-linejoin:miter;stroke-miterlimit:4;stroke-dasharray:none;stroke-dashoffset:0;stroke-opacity:1;-inkscape-stroke:none;filter:url(#filter16);stop-color:#000000;stop-opacity:1"
       clip-path="none" /><use
       x="0"
       y="0"
       xlink:href="#g365"
       id="use367"
       style="font-variation-settings:normal;display:inline;opacity:1;vector-effect:none;fill:#bdd99e;fill-opacity:1;stroke:none;stroke-width:0.264999;stroke-linecap:butt;stroke-linejoin:miter;stroke-miterlimit:4;stroke-dasharray:none;stroke-dashoffset:0;stroke-opacity:1;-inkscape-stroke:none;filter:url(#filter7-9);stop-color:#000000;stop-opacity:1" /><use
       x="0"
       y="0"
       xlink:href="#g365"
       id="use369"
       style="font-variation-settings:normal;display:none;opacity:1;vector-effect:none;fill:#c4d9a1;fill-opacity:1;stroke-width:0.264583;stroke-linecap:butt;stroke-linejoin:miter;stroke-miterlimit:4;stroke-dasharray:none;stroke-dashoffset:0;stroke-opacity:1;-inkscape-stroke:none;filter:url(#filter13);stop-color:#000000;stop-opacity:1" /><use
       x="0"
       y="0"
       xlink:href="#g2"
       id="use273"
       style="display:inline;opacity:1;fill:#faefdd;fill-opacity:1;stroke:#000000;stroke-opacity:1;filter:url(#filter2)"
       clip-path="none" /><use
       x="0"
       y="0"
       xlink:href="#g3"
       id="use279"
       style="font-variation-settings:normal;display:inline;opacity:1;vector-effect:none;fill:#cce3f7;fill-opacity:1;stroke-width:0.264583px;stroke-linecap:butt;stroke-linejoin:miter;stroke-miterlimit:4;stroke-dasharray:none;stroke-dashoffset:0;stroke-opacity:1;-inkscape-stroke:none;filter:url(#filter39);stop-color:#000000;stop-opacity:1"
       clip-path="none" /><use
       x="0"
       y="0"
       xlink:href="#g3"
       id="use276"
       style="display:inline;opacity:1;filter:url(#filter44)"
       clip-path="none" /><use
       x="0"
       y="0"
       xlink:href="#g3"
       id="use274"
       style="display:inline;opacity:1;filter:url(#filter276)"
       clip-path="none" /><use
       x="0"
       y="0"
       xlink:href="#g364"
       id="use4"
       style="display:inline;opacity:1" /></g></svg>
