<?xml version="1.0" encoding="UTF-8" standalone="no"?>
<!-- Created with Inkscape (http://www.inkscape.org/) -->

<svg
   width="200mm"
   height="199.99995mm"
   viewBox="0 0 200 199.99995"
   version="1.1"
   id="svg1"
   xml:space="preserve"
   inkscape:version="1.3 (0e150ed6c4, 2023-07-21)"
   sodipodi:docname="plains-final.svg"
   inkscape:export-filename="..\Documents\GitHub\vectorized-realms\svg\24-05-10-plains\plains-final.svg"
   inkscape:export-xdpi="25.4"
   inkscape:export-ydpi="25.4"
   xmlns:inkscape="http://www.inkscape.org/namespaces/inkscape"
   xmlns:sodipodi="http://sodipodi.sourceforge.net/DTD/sodipodi-0.dtd"
   xmlns:xlink="http://www.w3.org/1999/xlink"
   xmlns="http://www.w3.org/2000/svg"
   xmlns:svg="http://www.w3.org/2000/svg"><sodipodi:namedview
     id="namedview1"
     pagecolor="#ffffff"
     bordercolor="#666666"
     borderopacity="1.0"
     inkscape:showpageshadow="2"
     inkscape:pageopacity="0.0"
     inkscape:pagecheckerboard="0"
     inkscape:deskcolor="#d1d1d1"
     inkscape:document-units="mm"
     inkscape:zoom="0.50000001"
     inkscape:cx="134"
     inkscape:cy="466.99999"
     inkscape:window-width="2560"
     inkscape:window-height="1377"
     inkscape:window-x="-8"
     inkscape:window-y="-8"
     inkscape:window-maximized="1"
     inkscape:current-layer="layer1"
     showgrid="false"
     showguides="false" /><defs
     id="defs1"><filter
       style="color-interpolation-filters:sRGB"
       id="filter1"
       inkscape:label="ContShelf"
       x="-0.091666738"
       y="-0.099999992"
       width="1.1833335"
       height="1.2"><feColorMatrix
         id="feColorMatrix1"
         values="0 0 0 0 0.80000000000000004 0 0 0 0 0.89000000000000001 0 0 0 0 0.96999999999999997 0 0 0 1 0"
         in="SourceAlpha" /><feMorphology
         radius="10"
         id="feMorphology1"
         operator="dilate" /><feGaussianBlur
         stdDeviation="5"
         id="feGaussianBlur1" /></filter><filter
       style="color-interpolation-filters:sRGB"
       id="filter2"
       inkscape:label="Coastline"
       x="-0.010000002"
       y="-0.010908769"
       width="1.02"
       height="1.0218175"><feGaussianBlur
         stdDeviation="1"
         id="feGaussianBlur4"
         in="SourceAlpha"
         result="result3" /><feColorMatrix
         id="feColorMatrix5"
         values="0 0 0 0 0 0 0 0 0 0 0 0 0 0 0 0 0 0 9 -4"
         result="result4" /><feMorphology
         radius="0.5"
         id="feMorphology5"
         result="result6"
         operator="dilate" /><feColorMatrix
         id="feColorMatrix4"
         values="0 0 0 0 0.72999999999999998 0 0 0 0 0.84999999999999998 0 0 0 0 0.91000000000000003 0 0 0 1 0"
         result="result1"
         in="result6" /><feMorphology
         radius="0.5"
         id="feMorphology4"
         in="result4"
         operator="erode"
         result="result5" /><feComposite
         id="feComposite8"
         in2="result5"
         operator="out"
         in="result1" /></filter><filter
       style="color-interpolation-filters:sRGB"
       id="filter29"
       x="-0.12750003"
       y="-0.13908681"
       width="1.2550001"
       height="1.2781736"
       inkscape:label="CoastShelf"><feColorMatrix
         id="feColorMatrix4-1"
         values="0 0 0 0 0.85999999999999999 0 0 0 0 0.92000000000000004 0 0 0 0 0.95999999999999996 0 0 0 1 0"
         in="SourceAlpha"
         result="result11" /><feMorphology
         radius="9"
         id="feMorphology24"
         operator="dilate"
         result="result9"
         in="result11" /><feGaussianBlur
         stdDeviation="5"
         id="feGaussianBlur24"
         result="result1"
         radius="5" /><feTurbulence
         id="feTurbulence24"
         baseFrequency="0.10000000000000001"
         type="turbulence"
         result="result8" /><feColorMatrix
         id="feColorMatrix24"
         values="0 0 0 0 0 0 0 0 0 0 0 0 0 0 0 0 0 0 1 0"
         result="result2" /><feComposite
         id="feComposite24"
         operator="in"
         result="result3"
         in="result1" /><feGaussianBlur
         stdDeviation="4"
         id="feGaussianBlur26"
         in="result3"
         result="result10" /><feBlend
         mode="overlay"
         id="feBlend26"
         result="result7"
         in2="result1" /></filter></defs><g
     inkscape:groupmode="layer"
     id="layer2"
     inkscape:label="Vecmap"
     style="display:inline;opacity:1"
     transform="translate(-1578.168,-1843.642)"><g
       inkscape:label="Water - continental shelf"
       id="g281"
       transform="matrix(1.8183898,0,0,1.8188387,1336.9717,751.7235)"
       style="display:inline;opacity:1;fill:#c1d7ec;fill-opacity:1;stroke-width:0.549869"><path
         id="rect281"
         style="display:inline;fill:#cde2f7;stroke-width:0.145486px"
         inkscape:label="Faerun-shelf"
         d="m 121.64402,589.34235 v 120.95631 h 131.9848 V 589.34235 Z" /></g><g
       id="g2"
       style="display:inline;opacity:1;mix-blend-mode:normal;fill:#b9d8e7;fill-opacity:1"
       inkscape:label="Land"><path
         id="path2"
         style="display:inline;opacity:1;mix-blend-mode:normal;fill:#fcf0e0;fill-opacity:1"
         d="m 135.52044,950.32131 v 70.39309 l 1.09554,0.1235 0.87643,-0.5746 0.87644,-0.5741 h 0.62993 0.62942 l 0.9493,0.7916 0.94878,0.7922 0.65629,1.2119 0.65629,1.2123 1.84019,0.4144 1.84072,0.4145 0.7369,0.6666 0.73691,0.6666 0.66559,1.3033 0.66508,1.3033 1.71359,1.7136 1.71411,1.7141 1.18339,0.5731 1.1839,0.5731 1.25057,-0.5075 1.25006,-0.508 1.12138,-1.3058 1.12137,-1.3054 0.21756,-1.1596 0.21756,-1.1596 h 1.69499 1.69498 l 1.37615,1.0004 1.37562,1.0005 1.3684,1.5203 1.36787,1.5198 4.0752,-0.2325 4.07521,-0.2326 0.90692,0.8553 0.9064,0.8557 1.44694,0.7452 1.44746,0.7457 2.33991,0.2186 2.33991,0.2186 2.2102,-0.9896 2.2102,-0.9891 2.51458,-2.1482 2.51509,-2.1477 0.83664,-1.3436 0.83612,-1.3441 0.71831,-1.1255 0.7183,-1.126 4.22041,-0.1762 4.22093,-0.1762 1.46968,-0.9561 1.46968,-0.956 0.20981,-0.339 0.2098,-0.3395 2.31045,-0.2475 2.31046,-0.2475 3.20187,-3.2985 3.20239,-3.2985 0.49764,-0.7101 0.49765,-0.7111 0.4687,-2.4587 0.46819,-2.4593 1.20871,-1.6903 1.20923,-1.6909 1.12241,-2.4091 1.12293,-2.4092 0.39378,-2.26239 0.39377,-2.2624 -0.19172,-1.50223 -0.19172,-1.50172 -0.23513,-1.9668 -0.23564,-1.96732 0.71623,-1.40354 0.71624,-1.40353 0.39067,-2.15542 0.39119,-2.15543 0.53796,-1.81229 0.53795,-1.81229 3.69435,-3.7207 3.69434,-3.72122 0.48731,-0.94258 0.48731,-0.94206 0.41031,-2.10943 0.41031,-2.10995 -0.0424,-3.07889 -0.0424,-3.07939 0.93948,-2.91817 0.94,-2.91765 0.045,-1.45469 z m 118.25325,0 -0.0336,0.0698 -0.83561,1.72651 -1.35134,2.03398 -1.35082,2.03399 h -0.5178 -0.5178 v 0.44596 0.44649 l -0.68316,1.27486 -0.68316,1.27434 0.10077,7.81709 0.10077,7.81658 -1.26969,0.97048 -1.26969,0.97049 -1.94045,0.84801 -1.93994,0.84852 -1.13326,1.25522 -1.13326,1.25574 -0.005,1.5875 -0.005,1.5875 0.67231,1.48001 0.67179,1.48053 -0.19585,2.59209 -0.19586,2.59209 0.79634,2.18437 0.79633,2.18384 -0.17156,1.78594 -0.17157,1.78536 -0.89194,0.9534 -0.89193,0.954 -0.23616,2.1167 -0.23616,2.1166 -0.55604,1.7637 -0.55604,1.7638 -1.8557,2.4696 -1.8557,2.4696 -1.11053,2.2929 -1.11104,2.2929 -1.30845,1.2753 -1.30896,1.2754 -0.88212,1.5183 -0.8816,1.5187 -2.3213,2.3213 -2.32131,2.3219 -0.40928,0.3524 -0.40979,0.3529 -0.88522,1.1095 -0.88522,1.109 v 0.7256 0.725 l 0.49248,0.2821 0.49299,0.2822 1.42214,1.7265 1.42213,1.7265 0.2186,0.9193 0.2191,0.9193 1.12913,0.9473 1.12965,0.9477 -0.79375,2.2273 -0.79375,2.2277 v 1.1421 1.142 l 1.45159,0.9163 1.45108,0.9162 0.53536,1.3632 0.53589,1.3638 0.98753,0.217 0.98702,0.2165 0.39171,0.4723 0.39171,0.4719 0.92759,0.2325 0.92811,0.2331 0.8692,0.6836 0.8692,0.6837 h 0.94361 0.94413 l 2.16317,-0.848 2.16369,-0.8475 0.80409,-0.5633 0.80408,-0.5632 h 1.16892 1.16841 l 0.95756,0.6061 0.95808,0.6062 1.8402,1.4748 1.84072,1.4744 2.67477,0.8991 2.67425,0.8997 1.72135,1.4408 1.72134,1.4412 0.23616,1.1348 0.23668,1.1354 0.48214,0.7622 0.48214,0.7622 1.33532,0.4351 1.33532,0.4357 0.99735,0.8309 0.99684,0.8305 h 0.8108 0.81029 l 1.54409,-0.5478 1.54358,-0.5473 4.7625,-1.0216 4.7625,-1.0211 1.56993,-0.5571 1.56993,-0.5571 0.59996,-0.5431 0.60048,-0.5431 0.24546,-2.8872 0.24547,-2.8871 0.62011,-1.4108 0.6196,-1.4113 0.6687,-0.5715 0.66869,-0.5721 2.34714,-0.7684 2.34715,-0.7684 1.03611,-0.9907 1.03611,-0.9901 1.55546,-0.5292 1.55546,-0.5297 1.81126,-0.5792 1.81126,-0.5799 h 0.93431 0.93431 l 1.202,-0.5022 1.20199,-0.5023 1.55753,-1.4356 1.55701,-1.4356 1.52032,-0.5364 1.52032,-0.5364 0.45217,-0.3752 0.45217,-0.3751 0.42736,-1.9084 0.42685,-1.9079 0.56224,-0.4987 0.56224,-0.4987 2.41845,-0.741 2.41846,-0.7411 h 2.16783 2.16782 l 1.05834,0.5767 1.05833,0.5762 3.93619,0.17 3.93671,0.1706 4.08296,-0.6176 4.08347,-0.617 0.56896,-0.416 0.56844,-0.416 -0.0357,-3.4297 -0.0372,-3.4298 0.53175,-0.2041 0.53175,-0.2041 -0.002,-0.9323 -0.002,-0.9322 -0.69246,-1.0506 -0.69247,-1.0511 -1.65416,-1.6847 -1.65416,-1.6846 0.48162,-2.0268 0.48214,-2.0272 0.99064,-0.8821 0.99064,-0.8822 1.16789,-1.1063 1.16788,-1.107 1.37925,-0.7074 1.37924,-0.7075 0.005,-4.5433 0.005,-4.544 0.88212,-1.0986 0.8816,-1.0992 2.46961,-2.1171 2.46962,-2.11718 1.23455,-1.66037 1.23455,-1.65984 0.37,2.06189 0.36949,2.06189 0.21807,0.52916 0.21808,0.52917 0.007,0.52917 0.007,0.52916 0.24908,2.54245 0.2496,2.542 -1.10846,1.2624 -1.10794,1.262 v 0.5084 0.5085 l 0.70435,1.155 0.70383,1.155 0.001,0.817 10e-4,0.817 -0.35864,0.6702 -0.35863,0.6703 1.00872,0.5214 1.00873,0.5219 1.90737,0.725 1.9079,0.7251 h 1.66346 l 1.66347,5e-4 1.22886,-1.0795 1.22887,-1.079 3.04167,-0.5587 3.04116,-0.5581 0.44028,-0.4403 0.27337,-0.2733 v -61.13785 z m 121.74657,69.56579 -0.71623,1.0614 -1.98851,0.6269 -1.98851,0.6268 -0.74466,0.8563 -0.74414,0.8562 h -1.68052 -1.68 l -0.55449,-0.7937 -0.55397,-0.7938 -2.17144,-0.54 -2.17145,-0.54 -2.25567,0.3369 -2.25619,0.337 0.22685,0.9038 0.22635,0.9038 1.73633,1.8356 1.73632,1.836 v 2.3606 2.3606 l -0.77514,1.2764 -0.77515,1.2764 -2.00711,2.2929 -2.00711,2.2934 -0.23978,1.1255 -0.23978,1.126 0.37517,0.7008 0.37465,0.7007 -0.21497,0.5596 -0.21446,0.5602 -1.41645,-1.2795 -1.41593,-1.2795 -1.80713,0.2387 -1.80764,0.2388 -3.52795,1.5374 -3.52743,1.5373 -1.05834,0.5545 -1.05833,0.554 h -0.77773 -0.77721 l -3.2706,-1.0599 -3.27061,-1.0599 -2.19831,0.2248 -2.19883,0.2253 -1.97353,-0.801 -1.97404,-0.8009 -2.18643,0.2222 -2.18694,0.2227 -2.4691,2.5942 -2.46962,2.5946 -1.29036,1.5756 -1.29036,1.5757 -1.35547,0.3917 -1.35548,0.3922 -2.78587,0.4356 -2.78536,0.4362 -0.69298,0.7968 -0.69247,0.7969 -2.44274,0.5984 -2.44275,0.5984 -0.48111,0.9302 -0.48059,0.9301 -0.77928,0.7044 -0.77928,0.7049 -0.632,1.2386 -0.632,1.2382 -0.25942,2.1131 -0.2589,2.113 -0.74724,1.3431 -0.74672,1.3431 -4.79144,2.4081 -4.79092,2.4086 -3.80856,0.4325 -3.80855,0.4331 -4.98212,0.049 -4.98265,0.049 -1.45727,-0.9483 -1.45779,-0.9482 -2.02004,-0.5277 -2.01951,-0.5276 -1.81436,-1.8981 -1.81436,-1.898 -1.93993,-0.7447 -1.94045,-0.7446 -2.64584,-0.2124 -2.64583,-0.2129 -3.46387,-0.585 -3.46387,-0.5855 -6.06113,0.371 -6.06113,0.3716 -1.3193,0.6397 -1.3193,0.6403 -0.19792,0.6237 -0.19792,0.6243 -1.01027,1.0811 -1.01028,1.0815 -0.22427,1.3178 -0.22428,1.3177 -0.65526,0.8661 -0.65577,0.8656 -1.32705,0.3726 -1.32654,0.3721 -0.50022,1.5001 -0.50023,1.4997 -0.61495,0.3292 -0.61495,0.3292 -3.88607,0.5074 -3.88658,0.5075 -0.67128,0.3534 -0.67128,0.353 -1.5167,0.2511 -1.51619,0.2512 -0.85731,0.9245 -0.85731,0.9245 -3.2706,-0.6377 -3.27112,-0.6382 -1.5875,0.021 -1.5875,0.022 -3.14193,0.1281 -3.14244,0.1277 -0.73794,0.9203 -0.73846,0.9204 -1.14773,1.5952 -1.14773,1.5953 -1.36271,0.3669 -1.36219,0.3669 -0.92966,1.341 -0.92914,1.341 v 0.5984 0.5984 h 1.3565 1.35651 l 0.58343,0.645 0.58394,0.6454 v 0.9255 0.9261 l -0.94258,0.634 -0.94206,0.6336 -1.47484,1.4113 -1.47433,1.4112 -0.24392,2.433 -0.24391,2.4329 -0.6904,0.8775 -0.69091,0.8779 v 2.0568 2.0567 l 0.6997,0.3741 0.6997,0.3747 0.8878,1.8769 0.8878,1.8769 v 1.8386 1.8387 l -0.39998,3.2566 -0.39997,3.2561 0.58549,1.1328 0.5855,1.1327 h 0.55759 0.55758 l 0.6935,-0.8821 0.69402,-0.8821 h 1.3286 1.32912 l 0.38757,0.8506 0.38757,0.8506 0.22738,1.3544 0.22789,1.3545 0.52813,1.6753 0.52814,1.6759 h 0.35708 0.35709 l 2.16886,1.9626 2.16886,1.9627 0.59272,1.5085 0.59222,1.5084 1.08675,1.7136 1.08624,1.7131 v 0.2883 0.2889 l 1.1467,1.0428 1.14618,1.0434 0.7798,0.01 0.77928,0.01 1.31465,-1.4206 1.31465,-1.4211 0.73174,-0.1834 0.73122,-0.1835 0.59738,-1.0413 0.59789,-1.0418 h 0.59945 0.59945 l 2.04225,2.094 2.04277,2.0939 0.25011,1.3457 0.2496,1.3456 0.87075,1.1467 0.87075,1.1467 h 2.75435 2.75487 l 0.73122,0.9292 0.73122,0.9296 v 0.4341 0.4341 l 0.72192,0.9178 0.72192,0.9177 2.27118,0.6816 2.27118,0.6811 1.04903,0.8827 1.04903,0.8826 1.76114,0.2424 1.76061,0.2423 0.4005,0.4822 0.40049,0.4826 1.54409,0.9049 1.54358,0.9048 0.27853,0.4786 0.27802,0.478 2.11667,1.0588 2.11666,1.0583 0.79375,-0.2976 0.79375,-0.2977 v -3.6447 -3.6453 l 0.42323,-0.4232 0.42375,-0.4232 h 2.13424 2.13423 l 1.39062,-0.386 1.39061,-0.3866 0.99425,-1.0635 0.99374,-1.064 2.20142,0.2119 2.20141,0.2118 2.20555,0.2832 2.20504,0.2827 0.56017,0.5602 0.56069,0.5607 1.61179,-0.4853 1.61178,-0.4852 h 0.97462 0.9741 l 3.11454,1.1012 3.11506,1.1012 2.64583,0.4739 2.64583,0.4739 1.24075,0.012 1.24076,0.012 0.84542,-2.1275 0.84491,-2.1275 1.32602,-1.1984 1.32653,-1.1983 1.70326,-0.2569 1.70274,-0.2573 1.99006,0.695 1.98954,0.6951 1.18546,-0.9834 1.18494,-0.9829 0.43408,-0.01 0.43408,-0.01 1.38596,-0.5539 1.38596,-0.5545 0.36897,-0.9452 0.36949,-0.9446 0.23513,-1.7643 0.23513,-1.7637 0.57464,-0.6578 0.57412,-0.6584 -0.0853,-3.0458 -0.0853,-3.0458 0.69763,-1.0583 0.69712,-1.0589 0.32969,-0.5286 0.33022,-0.5292 1.10536,-2.2278 1.10587,-2.2267 -0.10749,-1.448 -0.10748,-1.4469 -2.99879,-1.0971 -2.99826,-1.0971 -0.10852,-1.2924 -0.10801,-1.293 0.56741,-1.0971 0.56741,-1.097 -0.23513,-0.7762 -0.23513,-0.7757 -0.69505,-0.7607 -0.69504,-0.7596 -1.11622,-0.2145 -1.11672,-0.2134 -1.73426,-1.7534 -1.73478,-1.7539 -0.1571,-1.8986 -0.15761,-1.8986 1.21956,-0.9296 1.21957,-0.9302 h 1.08623 1.08624 l 1.7632,0.4067 1.7632,0.4072 1.05524,-0.4372 1.05523,-0.4377 0.2067,-0.8227 0.20619,-0.8226 1.20716,-0.7463 1.20717,-0.7451 0.72192,-1.2237 0.72192,-1.2232 h 1.41748 1.418 l 3.04323,0.8821 3.04322,0.8816 h 1.71566 1.71514 l 0.49713,-0.9705 0.49661,-0.9694 0.24598,-1.8164 0.24598,-1.8149 1.34048,-1.0775 1.34049,-1.0769 0.23306,-1.2433 0.23306,-1.2424 1.45314,-0.3906 1.45314,-0.3922 1.18546,0.2232 1.18546,0.2222 1.42007,1.3053 1.41955,1.3059 -0.0692,2.1513 -0.0698,2.1518 0.25115,0.4062 0.25114,0.4056 h 1.34256 1.34255 l 0.90744,0.7142 0.90796,0.7142 1.08003,1.9947 1.08056,1.9942 v 2.3807 2.3818 l -0.92966,0.7312 -0.92966,0.7312 h -0.79375 -0.79375 l -0.60048,0.9157 -0.60048,0.9168 0.17105,1.8174 0.17053,1.818 0.47749,1.9399 0.47697,1.941 0.69764,1.0299 0.69763,1.0305 0.13281,2.3512 0.1328,2.3518 -0.70538,1.3829 -0.70538,1.3823 -0.42375,1.586 -0.42426,1.5854 -0.40153,0.4884 -0.40152,0.4893 -1.43609,0.616 -1.43557,0.6155 -0.43099,1.4371 -0.43046,1.4371 -0.86868,1.0325 -0.8692,1.033 -2.29908,0.246 -2.2996,0.2465 -0.34985,0.6537 -0.35037,0.6537 v 1.203 1.2041 l 0.61753,0.5509 0.61754,0.5503 2.43034,0.2558 2.42983,0.2558 0.92139,0.4806 0.92087,0.4811 h 0.80512 0.80512 l 1.19734,0.4997 1.19786,0.5008 0.2403,1.7038 0.24081,1.7053 0.57877,0.8821 0.5793,0.8816 0.38344,1.0583 0.38344,1.0578 1.68258,0.3618 1.68258,0.3607 0.8444,0.9818 0.84439,0.9809 v 0.4955 0.4961 l 1.44797,0.4336 1.44746,0.433 0.17777,0.4625 0.17725,0.4625 h 0.60048 0.60048 l 0.68471,-0.4997 0.68471,-0.5007 0.54364,-1.8815 0.54415,-1.8806 0.72657,-0.1054 0.72709,-0.1059 0.52865,0.8113 0.52865,0.8113 0.61598,2.7802 0.6165,2.7797 1.33894,1.2769 1.33894,1.2769 0.18862,2.0299 0.18913,2.0293 0.55449,1.1116 0.55449,1.111 v 0.123 0.122 h -194.9111 -21.04213 v 0.017 H 375.5202 Z m -239.99982,9.217 V 1159.37 l 0.72915,0.3721 h 1.02733 1.02785 l 1.67896,-0.7431 1.67897,-0.7426 2.39675,0.1354 2.39676,0.1354 0.67127,0.6072 0.67076,0.6077 h 1.95751 1.9575 l 0.40773,-0.4914 0.40772,-0.491 1.00459,-0.4165 1.00459,-0.416 0.19224,-1.1849 0.19224,-1.1849 -1.47278,-1.6361 -1.4733,-1.6366 -0.4687,-1.6511 -0.46871,-1.6516 -0.39015,-1.5239 -0.39016,-1.5239 -0.99529,-0.5142 -0.99529,-0.5147 -0.9679,-1.4371 -0.96841,-1.4366 -0.53227,-0.9343 -0.53227,-0.9344 -0.61391,-0.8723 -0.61444,-0.8722 0.005,-0.892 0.005,-0.8914 1.14153,-2.3301 1.14154,-2.3306 -0.79375,-0.5963 -0.79375,-0.5969 v -1.1638 -1.1632 l 0.67747,-0.6134 0.67748,-0.6134 1.17978,0.1018 1.17925,0.1018 0.43615,-0.2697 0.43563,-0.2693 v -5.2627 -5.2627 l -0.8816,-0.5778 -0.88211,-0.5777 v -1.3472 -1.3467 l 1.5322,-1.2557 1.53221,-1.2553 0.40979,-2.8985 0.4098,-2.899 0.87178,-1.3173 0.87178,-1.3172 1.54616,-0.6842 1.54616,-0.6837 1.12654,-1.9689 1.12655,-1.9693 -0.22841,-1.217 -0.22841,-1.217 0.23565,-0.7426 0.23564,-0.7421 1.12086,-0.4883 1.12086,-0.4884 0.95395,-0.9157 0.95395,-0.9162 0.22737,-1.3239 0.22738,-1.3235 0.48886,-2.4453 0.48834,-2.4448 0.4098,-0.2532 0.41031,-0.2538 2.2412,-0.2397 2.24121,-0.2403 0.52968,-0.7561 0.52917,-0.7555 v -0.9963 -0.9958 l -0.85163,-0.8516 -0.85111,-0.8516 -1.00097,-0.2398 -1.00046,-0.2403 -0.96893,-0.4884 -0.96893,-0.4878 -0.48731,-1.1674 -0.48783,-1.1668 -0.97203,-0.7648 -0.97255,-0.7648 h -0.48163 -0.48162 v -0.3597 -0.3597 l 0.81132,-1.3162 0.8108,-1.3157 0.37362,-1.2671 0.37362,-1.2671 -0.64078,-1.2025 -0.64079,-1.2025 -0.0145,-0.9813 -0.015,-0.9814 0.52917,-1.2665 0.52917,-1.2666 v -1.2956 -1.296 l -1.5813,-2.6298 -1.58182,-2.6298 -0.006,-0.3768 -0.006,-0.3772 -0.53279,-1.7937 -0.53278,-1.7937 -1.5813,-1.7585 -1.5813,-1.7591 -1.3255,-0.5266 -1.3255,-0.5266 -1.788,-0.2423 -1.78801,-0.2429 -0.90175,-0.955 -0.90176,-0.9555 -1.42782,-0.9896 -1.42782,-0.9896 -3.07164,-0.6713 -3.07165,-0.6712 -0.46095,-0.3824 -0.46147,-0.3824 -0.24598,-1.1225 -0.2465,-1.1219 -0.71624,-1.4738 -0.71572,-1.4733 z"
         transform="translate(1422.6475,873.32087)" /></g></g><g
     inkscape:groupmode="layer"
     id="layer3"
     inkscape:label="Filter Styles"
     style="display:inline"
     transform="translate(-1578.168,-1843.642)"><path
       id="rect405"
       style="display:inline;opacity:1;fill:#ff0000;fill-opacity:0.480243;stroke-linejoin:bevel"
       d="m 1558.1679,1823.6422 v 220 h 239.9999 v -220 z" /><use
       x="0"
       y="0"
       xlink:href="#g281"
       id="use281"
       style="display:inline;opacity:1;fill:#cde3f8;fill-opacity:1;filter:url(#filter1)"
       inkscape:label="Shelf"
       clip-path="none" /><use
       x="0"
       y="0"
       xlink:href="#g2"
       id="use5"
       style="font-variation-settings:normal;display:inline;opacity:1;vector-effect:none;fill:#ffffff;fill-opacity:1;stroke:none;stroke-width:0.264583px;stroke-linecap:butt;stroke-linejoin:miter;stroke-miterlimit:4;stroke-dasharray:none;stroke-dashoffset:0;stroke-opacity:1;-inkscape-stroke:none;filter:url(#filter29);stop-color:#000000;stop-opacity:1"
       inkscape:label="Shore"
       clip-path="none" /><use
       x="0"
       y="0"
       xlink:href="#g2"
       id="use1"
       style="font-variation-settings:normal;display:inline;opacity:1;vector-effect:none;fill:#f3e7d9;fill-opacity:1;stroke-width:0.264583;stroke-linecap:butt;stroke-linejoin:miter;stroke-miterlimit:4;stroke-dasharray:none;stroke-dashoffset:0;stroke-opacity:1;-inkscape-stroke:none;stop-color:#000000;stop-opacity:1"
       inkscape:label="Plains"
       clip-path="none" /><use
       x="0"
       y="0"
       xlink:href="#g2"
       id="use273"
       style="display:inline;opacity:1;fill:#faefdd;fill-opacity:1;filter:url(#filter2)"
       inkscape:label="Coastline"
       clip-path="none" /></g></svg>
