<?xml version="1.0" encoding="UTF-8" standalone="no"?>
<!-- Created with Inkscape (http://www.inkscape.org/) -->

<svg
   width="90.196449mm"
   height="12.752917mm"
   viewBox="0 0 90.196449 12.752917"
   version="1.1"
   id="svg1"
   sodipodi:docname="vec-realms.svg"
   inkscape:version="1.3.2 (091e20e, 2023-11-25, custom)"
   xmlns:inkscape="http://www.inkscape.org/namespaces/inkscape"
   xmlns:sodipodi="http://sodipodi.sourceforge.net/DTD/sodipodi-0.dtd"
   xmlns="http://www.w3.org/2000/svg"
   xmlns:svg="http://www.w3.org/2000/svg">
  <sodipodi:namedview
     id="namedview1"
     pagecolor="#ffffff"
     bordercolor="#666666"
     borderopacity="1.0"
     inkscape:showpageshadow="2"
     inkscape:pageopacity="0.0"
     inkscape:pagecheckerboard="0"
     inkscape:deskcolor="#d1d1d1"
     inkscape:document-units="mm"
     inkscape:zoom="3.1534177"
     inkscape:cx="170.44998"
     inkscape:cy="23.942277"
     inkscape:window-width="1920"
     inkscape:window-height="1137"
     inkscape:window-x="-8"
     inkscape:window-y="224"
     inkscape:window-maximized="1"
     inkscape:current-layer="svg1" />
  <defs
     id="defs1">
    <rect
       x="124.86315"
       y="99.890518"
       width="328.39008"
       height="46.199364"
       id="rect1" />
    <filter
       style="color-interpolation-filters:sRGB"
       id="filter17"
       x="-0.023731092"
       y="-0.15242495"
       width="1.0398365"
       height="1.391455">
      <feFlood
         result="flood"
         in="SourceGraphic"
         flood-opacity="0.498039"
         flood-color="rgb(0,0,0)"
         id="feFlood16" />
      <feGaussianBlur
         result="blur"
         in="SourceGraphic"
         stdDeviation="2.200000"
         id="feGaussianBlur16" />
      <feOffset
         result="offset"
         in="blur"
         dx="-2.500000"
         dy="3.000000"
         id="feOffset16" />
      <feComposite
         result="comp1"
         operator="in"
         in="flood"
         in2="offset"
         id="feComposite16" />
      <feComposite
         result="comp2"
         operator="over"
         in="SourceGraphic"
         in2="comp1"
         id="feComposite17" />
    </filter>
  </defs>
  <g
     id="layer1"
     transform="translate(-30.978284,-27.25839)">
    <path
       style="font-size:40px;line-height:1.25;font-family:Splendors;-inkscape-font-specification:Splendors;white-space:pre;fill:#806600;filter:url(#filter17)"
       d="m 154.58328,108.94384 0.04,-0.56 -0.64,0.04 q -0.8,0.04 -1.84,0.12 -1,0.08 -1.64,0.08 h -1.72 q -0.64,0 -1.48,-0.04 -0.84,-0.08 -2,-0.16 l -0.64,-0.04 0.08,0.56 q 0.12,0 0.2,0 0.08,0 0.28,0.04 0.84,0.08 1.52,0.32 0.68,0.2 1.08,0.56 0.44,0.36 0.56,0.96 0.16,0.56 -0.16,1.36 l -7.24,18.92 -8.24,-19.4 q -0.32,-0.76 -0.12,-1.24 0.2,-0.48 0.68,-0.76 0.52,-0.32 1.2,-0.48 0.72,-0.16 1.36,-0.24 0.2,-0.04 0.28,-0.04 0.08,0 0.2,0 l 0.08,-0.56 -0.64,0.04 q -1.16,0.08 -2.4,0.16 -1.24,0.04 -1.88,0.04 h -1.72 q -0.64,0 -1.88,-0.04 -1.24,-0.08 -2.4,-0.16 l -0.64,-0.04 0.04,0.56 q 0.28,0 0.48,0.04 1.64,0.16 2.48,0.64 0.88,0.48 1.52,2 l 10.72,25.28 h 0.48 l 9.28,-24.2 q 0.48,-1.2 0.88,-1.88 0.4,-0.68 0.84,-1.04 0.48,-0.4 1.04,-0.56 0.6,-0.16 1.44,-0.24 0.2,-0.04 0.28,-0.04 0.08,0 0.24,0 z m 11.47999,13.84 q -0.12,-0.04 -0.64,-0.16 -0.48,-0.12 -1.04,-0.28 -0.56,-0.16 -1.04,-0.28 -0.44,-0.12 -0.48,-0.16 v 3.04 h 0.92 q 0.68,-0.44 1.28,-0.96 0.6,-0.52 1,-1.2 z m 4.72,9.6 q -0.64,1.04 -1.04,2 -0.36,0.96 -0.68,2.12 -3.52,-0.12 -7.04,-0.2 -3.48,-0.08 -7,0.36 l 0.04,-0.64 q 1.64,0 2.28,-0.52 0.68,-0.56 0.68,-2.16 v -13.56 q 0,-1.6 -0.68,-2.12 -0.64,-0.56 -2.28,-0.56 l -0.04,-0.64 q 3.52,0.2 6.96,0.24 3.48,0.04 7.04,0.04 l 0.76,3.64 -0.72,-0.04 q -0.16,-0.72 -0.32,-1.12 -0.16,-0.44 -0.44,-0.68 -0.28,-0.24 -0.72,-0.32 -0.44,-0.08 -1.2,-0.08 l -3.52,-0.08 v 2.64 q 0.96,0.44 2.16,0.72 1.24,0.24 2.28,0.56 -0.48,1.04 -1.32,1.88 -0.8,0.8 -1.8,1.36 0.8,0.44 1.28,1.16 0.48,0.68 0.48,1.6 0,1.28 -0.92,2.28 -0.88,0.96 -2.16,1.04 v 3.76 h 2.92 q 0.88,0 1.44,-0.12 0.56,-0.16 0.96,-0.44 0.44,-0.32 0.8,-0.8 0.36,-0.48 0.8,-1.2 z m -9.96,-14.32 v 6.88 h 1 v -6.88 z m 2.04,12.8 q 0.92,-0.2 1.36,-1.08 0.48,-0.92 0.48,-1.76 0,-0.56 -0.24,-1.04 -0.2,-0.52 -0.64,-0.84 v 0.04 h -0.96 z m -1.04,-0.08 v -4.6 h -1 v 3.76 q 0.36,0.52 1,0.84 z m 0,4.28 v -3.84 q -0.28,-0.08 -0.52,-0.16 -0.2,-0.08 -0.48,-0.24 v 2.72 q 0,0.68 0.08,1.08 0.12,0.36 0.92,0.44 z m 27.83998,-4.16 q 0.08,0 0.12,0 0.04,-0.04 0.12,-0.04 h 0.24 q -0.08,1.08 -0.24,2.16 -0.16,1.04 -0.28,2.08 -0.6,0.44 -1.44,0.76 -0.84,0.32 -1.8,0.52 -0.92,0.2 -1.88,0.28 -0.92,0.08 -1.64,0.08 -2.28,0 -4.4,-0.68 -2.08,-0.72 -3.68,-2.04 -1.6,-1.32 -2.56,-3.2 -0.92,-1.92 -0.92,-4.32 0,-1.64 0.52,-3.16 0.52,-1.56 1.44,-2.88 0.96,-1.32 2.24,-2.32 1.32,-1.04 2.88,-1.56 0.16,-0.2 0.76,-0.32 0.64,-0.16 1.36,-0.24 0.72,-0.12 1.36,-0.16 0.68,-0.08 0.96,-0.08 0.96,0 1.88,0.2 0.92,0.2 1.72,0.44 0.8,0.2 1.44,0.4 0.64,0.2 1,0.2 0.36,0 0.52,-0.08 l 0.12,0.12 q 0,0.92 0.08,1.8 0.08,0.88 0.08,1.8 v 0.24 l -0.28,0.04 q -0.36,-1.24 -1,-2.08 -0.6,-0.84 -1.48,-1.36 -0.88,-0.56 -1.96,-0.8 -1.08,-0.24 -2.28,-0.24 -0.4,0 -1.12,0.12 -0.72,0.08 -1.44,0.28 -0.72,0.16 -1.36,0.48 -0.6,0.28 -0.84,0.64 v 16.2 q 1.16,0.96 2.6,1.4 1.48,0.44 3,0.44 1.48,0 2.52,-0.28 1.04,-0.28 1.76,-0.88 0.72,-0.6 1.16,-1.56 0.44,-1 0.72,-2.4 z m -12.52,2.48 0.04,-7.24 -0.12,-0.08 h -2.72 q -0.2,0 -0.24,0.08 -0.04,0.08 -0.04,0.28 0,1.92 0.76,3.8 0.8,1.88 2.2,3.2 z m -0.08,-7.96 0.12,-0.08 -0.04,-6.68 q -1.28,1.16 -2.16,2.92 -0.84,1.72 -0.84,3.48 v 0.32 z m 1.8,6.96 q 0,-1.16 0.84,-2 0.84,-0.84 2,-0.84 1.16,0 1.96,0.84 0.84,0.84 0.84,2 0,1.16 -0.84,2 -0.8,0.84 -1.96,0.84 -1.16,0 -2,-0.84 -0.84,-0.84 -0.84,-2 z m 5.08,0 q 0,-0.92 -0.68,-1.56 -0.64,-0.68 -1.56,-0.68 -0.92,0 -1.6,0.68 -0.64,0.64 -0.64,1.56 0,0.92 0.64,1.6 0.68,0.64 1.6,0.64 0.92,0 1.56,-0.64 0.68,-0.68 0.68,-1.6 z m 25.16,-15.52 1.2,-3.44 h -0.4 q -0.48,1.04 -1,1.64 -0.48,0.56 -1.68,0.56 h -5.48 v -3.72 q 0,-1.12 0.52,-1.48 0.52,-0.36 1.56,-0.48 l 0.08,-0.04 h 6.36 v -0.48 h -18.72 v 0.48 h 5.88 l 0.08,0.04 q 1.04,0.12 1.52,0.48 0.52,0.36 0.52,1.48 v 3.72 l -7.32,-0.04 -1.2,3.44 h 0.4 q 0.44,-0.92 0.88,-1.52 0.48,-0.64 1.6,-0.64 h 5.64 v 17.2 q 0,1.16 -0.68,1.6 -0.64,0.44 -1.72,0.4 l -0.04,0.44 q 0.76,-0.08 1.48,-0.12 0.72,-0.08 1.48,-0.08 1.04,0 2.08,0.08 1.04,0.04 2.08,0.12 l -0.04,-0.44 q -1.08,0.04 -1.76,-0.4 -0.68,-0.44 -0.68,-1.6 v -17.2 z m 12.96,-1.16 q 2.24,0 4.32,0.68 2.12,0.68 3.72,2 1.64,1.32 2.6,3.24 1,1.88 1,4.28 0,2.16 -0.92,4.24 -0.88,2.04 -2.4,3.56 -0.2,0.08 -0.36,0.24 -0.16,0.12 -0.36,0.28 -1.84,1.36 -3.84,2.04 -1.96,0.68 -4.28,0.68 -2.2,0 -4.28,-0.72 -2.08,-0.76 -3.68,-2.12 -1.6,-1.36 -2.56,-3.28 -0.96,-1.96 -0.96,-4.32 0,-2.44 1,-4.4 1.04,-2 2.72,-3.4 1.68,-1.44 3.84,-2.2 2.16,-0.8 4.44,-0.8 z m -1,1.44 q -1.68,0 -3.16,0.56 -1.44,0.52 -2.52,1.52 -1.08,1 -1.72,2.4 -0.64,1.4 -0.64,3.12 h 8.2 l 9.24,-0.04 q -0.36,-1.64 -1.24,-3 -0.88,-1.4 -2.16,-2.4 -1.24,-1.04 -2.8,-1.6 -1.52,-0.56 -3.2,-0.56 z m 9.72,11.2 q 0,-0.2 -0.08,-0.2 -0.08,0 -0.24,-0.08 h -16.84 q -0.08,0 -0.24,0.08 0.12,0.8 0.52,1.64 0.44,0.84 1,1.64 0.56,0.76 1.24,1.4 0.72,0.64 1.4,1.08 0.36,0.4 1,0.68 0.68,0.28 1.44,0.48 0.76,0.2 1.52,0.32 0.76,0.08 1.28,0.08 0.84,0 1.64,-0.12 0.84,-0.16 1.6,-0.48 0.88,-0.36 1.72,-1.04 0.88,-0.68 1.52,-1.56 0.68,-0.92 1.08,-1.92 0.44,-1 0.44,-2 z m -14,-0.96 q 2.84,0 5.64,0 2.84,0 5.72,-0.04 0.6,0 1.32,0.08 0.76,0.04 1.36,-0.12 -0.08,-0.4 -0.04,-0.8 0.04,-0.4 -0.12,-0.8 0.04,-0.16 -0.04,-0.2 -0.04,-0.04 -0.12,-0.04 -0.08,0 -0.2,0.04 -0.08,0 -0.16,-0.04 l -13.8,-0.04 -3.32,0.04 -0.08,0.04 q 0.04,0.48 0.04,0.96 0.04,0.48 0.2,0.92 z m 39.35998,9.4 q 1.68,1.36 3.72,2.28 2.04,0.92 4.24,0.92 1.52,0 2.88,-0.48 -0.4,0.48 -1,0.76 -0.56,0.28 -1.24,0.44 -0.64,0.16 -1.32,0.2 -0.64,0.04 -1.24,0.04 -1.92,0 -3.72,-0.6 -1.76,-0.56 -3.4,-1.52 -1.64,-0.96 -3.2,-2.24 -1.52,-1.28 -2.96,-2.64 -1.4,-1.4 -2.72,-2.8 -1.28,-1.4 -2.52,-2.64 -0.32,-0.36 -0.72,-0.44 -0.36,-0.12 -0.84,-0.12 -0.32,0 -0.64,0.04 -0.28,0 -0.6,-0.08 -0.08,-2.6 -0.04,-5.16 0.08,-2.56 -0.12,-5.16 -0.36,0.08 -0.6,0.24 -0.24,0.12 -0.28,0.56 l -0.04,15.68 q 0,0.6 0.28,0.96 0.28,0.36 0.72,0.56 0.44,0.2 0.96,0.28 0.52,0.08 0.96,0.16 l 0.12,0.24 -0.08,0.28 q -1.2,-0.08 -2.44,-0.12 -1.2,-0.04 -2.4,-0.04 -0.56,0 -1.08,0 -0.48,0 -1.04,0.04 l -0.6,0.16 -1.16,-0.04 v -0.48 q 0.92,-0.2 1.48,-0.32 0.6,-0.12 0.92,-0.4 0.32,-0.28 0.44,-0.88 0.12,-0.6 0.12,-1.72 v -13.2 q 0,-1.16 -0.24,-1.6 -0.24,-0.44 -0.68,-0.6 -0.4,-0.16 -0.96,-0.2 -0.52,-0.04 -1.12,-0.36 l 0.12,-0.4 q 0.76,0.08 1.48,0.12 0.76,0.04 1.52,0.04 1.32,0 2.6,-0.04 1.32,-0.08 2.6,-0.08 2.36,0 4.28,0.64 1.92,0.6 3.28,2.64 0.2,0.28 0.24,0.56 0.08,0.24 0.08,0.48 0,0.24 0,0.48 0,0.24 0.08,0.56 -0.2,1.72 -1.32,3.16 -1.12,1.4 -2.68,2.08 l -0.12,0.16 q 2.44,2.4 4.76,4.92 2.36,2.48 5.08,4.52 h 0.16 z m -13.24,-9.88 q 0.92,0 1.68,-0.36 0.8,-0.36 1.36,-0.96 0.6,-0.64 0.92,-1.44 0.36,-0.84 0.36,-1.72 0,-0.12 -0.04,-0.4 -0.04,-0.32 -0.12,-0.64 -0.04,-0.32 -0.12,-0.6 -0.04,-0.28 -0.12,-0.36 -0.2,-0.72 -0.72,-1.24 -0.52,-0.56 -1.24,-0.92 -0.68,-0.36 -1.48,-0.52 -0.76,-0.2 -1.44,-0.2 -0.32,0 -0.44,0.08 0.08,1.68 -0.04,3.36 -0.08,1.68 -0.08,3.4 0,1.28 0.12,2.48 0.36,0 0.68,0.04 0.36,0 0.72,0 z m 15.67997,-13.4 q -0.96,0 -1.84,-0.36 -0.84,-0.4 -1.48,-1 -0.6,-0.64 -1,-1.48 -0.36,-0.88 -0.36,-1.84 0.88,1.16 2,1.84 1.16,0.64 2.68,0.64 1.4,0 2.64,-0.64 1.28,-0.68 2.04,-1.84 v 0.16 q 0,0.96 -0.4,1.8 -0.36,0.8 -1.04,1.4 -0.64,0.6 -1.48,0.96 -0.84,0.36 -1.76,0.36 z m 1.76,19.8 q 0,1.6 0.64,2.12 0.68,0.52 2.32,0.52 l 0.04,0.64 q -0.88,-0.08 -1.76,-0.2 -0.88,-0.08 -1.8,-0.08 h -1.76 q -0.88,0 -1.76,0.08 -0.88,0.12 -1.76,0.2 l 0.04,-0.64 q 1.6,0.04 2.28,-0.52 0.68,-0.56 0.68,-2.12 v -13.64 q 0,-1.6 -0.68,-2.16 -0.64,-0.56 -2.28,-0.52 l -0.04,-0.6 q 0.88,0.04 1.76,0.16 0.88,0.08 1.76,0.08 h 1.76 q 0.92,0 1.8,-0.08 0.88,-0.12 1.76,-0.16 l -0.04,0.6 q -1.68,0 -2.32,0.56 -0.64,0.52 -0.64,2.12 z m 20.92,-0.32 h 0.2 q -0.2,0.8 -0.48,1.56 -0.28,0.72 -0.56,1.52 l -0.16,0.16 h -13.12 q -0.56,0 -1.12,0 -0.56,-0.04 -1.12,-0.04 0,-0.08 -0.04,-0.16 0,-0.08 0,-0.16 v -0.32 q 1.28,-1.72 2.48,-3.44 1.24,-1.72 2.48,-3.48 0.68,-0.96 1.4,-1.84 0.76,-0.92 1.4,-1.88 0.04,-0.92 0.04,-1.76 0.04,-0.88 0.04,-1.8 0,-1.76 -0.12,-3.56 -0.44,-0.04 -0.88,-0.04 -0.44,-0.04 -0.88,-0.04 -0.92,0 -1.44,0.04 -0.52,0.04 -0.88,0.24 -0.32,0.16 -0.64,0.56 -0.32,0.4 -0.8,1.16 h -0.2 q 0.2,-0.8 0.44,-1.52 0.28,-0.72 0.52,-1.48 l 0.24,-0.2 h 12.64 q 0.16,0.24 0.16,0.44 0,0.08 -0.52,0.84 -0.52,0.72 -1.32,1.8 -0.76,1.04 -1.72,2.32 -0.92,1.24 -1.76,2.36 -0.84,1.08 -1.48,1.92 -0.64,0.84 -0.8,1.08 0.04,1.4 0,2.84 -0.04,1.4 -0.04,2.8 0,0.52 0,1 0,0.48 0.04,0.96 l 0.16,0.12 h 5.64 q 0.84,0 1.32,-0.68 0.52,-0.68 0.88,-1.32 z m -6.76,-15.24 q -0.04,0.08 -0.08,0.16 -0.04,0.08 -0.04,0.12 0,0.24 0.12,0.44 0.12,0.2 0.2,0.44 0.28,0.44 0.68,0.68 0.44,0.24 0.92,0.32 0.4,-0.44 0.72,-0.92 0.36,-0.52 0.76,-1 v -0.2 q -0.84,-0.08 -1.68,-0.04 -0.8,0 -1.6,0 z m -1.2,0.04 -0.04,5.84 0.16,0.16 q 0.56,-0.72 1.12,-1.44 0.6,-0.76 1.16,-1.56 v -0.24 q -0.76,-0.12 -1.32,-0.64 -0.56,-0.52 -0.72,-1.24 -0.08,-0.2 -0.08,-0.52 0,-0.36 -0.28,-0.36 z m -1.92,17.16 0.08,-0.24 q -0.08,-0.8 -0.76,-1.24 -0.68,-0.48 -1.36,-0.68 -0.44,0.44 -0.8,0.96 -0.32,0.52 -0.72,1 v 0.2 z m 1.28,-6.48 -0.12,-0.04 q -0.68,0.92 -1.36,1.8 -0.68,0.84 -1.28,1.76 v 0.12 q 0.92,0.24 1.32,0.52 0.4,0.24 0.56,0.6 0.2,0.32 0.24,0.76 0.08,0.4 0.32,0.96 l 0.28,-0.08 0.04,-4.44 z m 20.35998,-5.68 q -0.12,-0.04 -0.64,-0.16 -0.48,-0.12 -1.04,-0.28 -0.56,-0.16 -1.04,-0.28 -0.44,-0.12 -0.48,-0.16 v 3.04 h 0.92 q 0.68,-0.44 1.28,-0.96 0.6,-0.52 1,-1.2 z m 4.72,9.6 q -0.64,1.04 -1.04,2 -0.36,0.96 -0.68,2.12 -3.52,-0.12 -7.04,-0.2 -3.48,-0.08 -7,0.36 l 0.04,-0.64 q 1.64,0 2.28,-0.52 0.68,-0.56 0.68,-2.16 v -13.56 q 0,-1.6 -0.68,-2.12 -0.64,-0.56 -2.28,-0.56 l -0.04,-0.64 q 3.52,0.2 6.96,0.24 3.48,0.04 7.04,0.04 l 0.76,3.64 -0.72,-0.04 q -0.16,-0.72 -0.32,-1.12 -0.16,-0.44 -0.44,-0.68 -0.28,-0.24 -0.72,-0.32 -0.44,-0.08 -1.2,-0.08 l -3.52,-0.08 v 2.64 q 0.96,0.44 2.16,0.72 1.24,0.24 2.28,0.56 -0.48,1.04 -1.32,1.88 -0.8,0.8 -1.8,1.36 0.8,0.44 1.28,1.16 0.48,0.68 0.48,1.6 0,1.28 -0.92,2.28 -0.88,0.96 -2.16,1.04 v 3.76 h 2.92 q 0.88,0 1.44,-0.12 0.56,-0.16 0.96,-0.44 0.44,-0.32 0.8,-0.8 0.36,-0.48 0.8,-1.2 z m -9.96,-14.32 v 6.88 h 1 v -6.88 z m 2.04,12.8 q 0.92,-0.2 1.36,-1.08 0.48,-0.92 0.48,-1.76 0,-0.56 -0.24,-1.04 -0.2,-0.52 -0.64,-0.84 v 0.04 h -0.96 z m -1.04,-0.08 v -4.6 h -1 v 3.76 q 0.36,0.52 1,0.84 z m 0,4.28 v -3.84 q -0.28,-0.08 -0.52,-0.16 -0.2,-0.08 -0.48,-0.24 v 2.72 q 0,0.68 0.08,1.08 0.12,0.36 0.92,0.44 z m 28.59999,-9.08 q 0,-1.88 -0.68,-3.44 -0.64,-1.56 -1.8,-2.72 -1.16,-1.16 -2.76,-1.8 -1.56,-0.64 -3.44,-0.64 -0.8,0 -1.56,0.04 -0.72,0 -1.52,0.04 v 3.8 q 0.96,0.08 1.64,0.56 0.72,0.44 0.72,1.48 h -0.84 q 0,-0.56 -0.56,-0.8 -0.52,-0.28 -0.96,-0.36 v 12.68 q 0.76,0.2 1.52,0.24 0.8,0.04 1.56,0.04 1.88,0 3.48,-0.72 1.6,-0.76 2.76,-2 1.16,-1.28 1.8,-2.92 0.64,-1.64 0.64,-3.48 z m 3.08,-0.08 q 0,2.36 -1,4.28 -1,1.88 -2.64,3.2 -1.64,1.32 -3.76,2.04 -2.08,0.72 -4.28,0.72 -2.72,0 -5.28,0 -2.56,-0.04 -5.24,0.2 l 0.04,-0.68 q 1.64,0.04 2.28,-0.48 0.68,-0.56 0.68,-2.16 v -13.56 q 0,-1.52 -0.68,-2.12 -0.68,-0.64 -2.28,-0.56 l -0.04,-0.64 q 1.16,0.12 2.28,0.2 1.12,0.08 2.28,0.08 1.6,0 3.16,-0.04 1.6,-0.08 3.2,-0.08 2.12,0 4.12,0.64 2.04,0.6 3.64,1.84 1.6,1.2 2.56,3 0.96,1.8 0.96,4.12 z m -15.48,-4.64 v -3.8 q -0.24,0.04 -0.48,0.04 -0.24,0 -0.44,0.04 v 3.76 q 0.24,-0.04 0.44,-0.04 0.24,0 0.48,0 z m 0,13.32 v -12.48 q -0.44,0 -0.92,0.12 v 10.4 q 0,0.56 0.16,1.12 0.2,0.52 0.76,0.84 z m 41.52004,-10.96 q 1.52,1.04 2.84,2.48 1.36,1.44 2.64,2.72 1.68,1.68 3.52,3.48 1.84,1.8 3.84,3.44 2,1.64 4.12,3 2.16,1.36 4.4,2.2 0.88,0.32 1.76,0.44 0.88,0.12 1.8,0.12 2.92,0 5.6,-1.16 -0.28,0.6 -1.2,1.08 -0.92,0.48 -2.04,0.8 -1.08,0.36 -2.16,0.52 -1.08,0.2 -1.64,0.2 -3.04,0 -5.96,-1.32 -2.88,-1.28 -5.56,-3.24 -2.64,-1.96 -5,-4.28 -2.36,-2.32 -4.36,-4.32 -0.6,-0.6 -1.4,-1.4 -0.8,-0.84 -1.68,-1.64 -0.88,-0.84 -1.76,-1.52 -0.88,-0.68 -1.6,-1 h -3 v -1.04 h 0.08 v -13.64 q -0.76,0.2 -0.92,0.8 -0.12,0.6 -0.12,1.24 v 21.72 q 0,1.6 0.96,2.2 1,0.56 2.44,0.48 l 0.04,0.6 q -1.04,-0.08 -2.08,-0.2 -1,-0.08 -2.04,-0.08 -1.48,0 -2.92,0.08 -1.4,0.12 -2.88,0.2 l 0.04,-0.6 q 1.44,0.08 2.4,-0.48 1,-0.6 1,-2.2 v -21.72 q 0,-1.6 -1,-2.16 -0.96,-0.56 -2.4,-0.52 l -0.04,-0.6 q 1.04,0.08 2.04,0.2 1.04,0.08 2.08,0.08 1.76,0 3.48,-0.12 1.72,-0.12 3.48,-0.12 1.6,0 3.32,0.4 1.76,0.36 3.2,1.2 1.44,0.8 2.36,2.16 0.92,1.32 0.92,3.24 0,1.52 -0.52,2.84 -0.52,1.28 -1.44,2.32 -0.88,1.04 -2.08,1.84 -1.2,0.8 -2.56,1.28 z m -5.68,-0.44 h 4.36 q 2.16,-0.92 3.56,-2.64 1.4,-1.76 1.4,-4.16 0,-1.72 -0.68,-3.04 -0.64,-1.32 -1.76,-2.2 -1.12,-0.92 -2.6,-1.36 -1.44,-0.44 -3.04,-0.4 l -1.24,0.04 z m 27.96002,-0.4 q -0.12,-0.04 -0.64,-0.16 -0.48,-0.12 -1.04,-0.28 -0.56,-0.16 -1.04,-0.28 -0.44,-0.12 -0.48,-0.16 v 3.04 h 0.92 q 0.68,-0.44 1.28,-0.96 0.6,-0.52 1,-1.2 z m 4.72,9.6 q -0.64,1.04 -1.04,2 -0.36,0.96 -0.68,2.12 -3.52,-0.12 -7.04,-0.2 -3.48,-0.08 -7,0.36 l 0.04,-0.64 q 1.64,0 2.28,-0.52 0.68,-0.56 0.68,-2.16 v -13.56 q 0,-1.6 -0.68,-2.12 -0.64,-0.56 -2.28,-0.56 l -0.04,-0.64 q 3.52,0.2 6.96,0.24 3.48,0.04 7.04,0.04 l 0.76,3.64 -0.72,-0.04 q -0.16,-0.72 -0.32,-1.12 -0.16,-0.44 -0.44,-0.68 -0.28,-0.24 -0.72,-0.32 -0.44,-0.08 -1.2,-0.08 l -3.52,-0.08 v 2.64 q 0.96,0.44 2.16,0.72 1.24,0.24 2.28,0.56 -0.48,1.04 -1.32,1.88 -0.8,0.8 -1.8,1.36 0.8,0.44 1.28,1.16 0.48,0.68 0.48,1.6 0,1.28 -0.92,2.28 -0.88,0.96 -2.16,1.04 v 3.76 h 2.92 q 0.88,0 1.44,-0.12 0.56,-0.16 0.96,-0.44 0.44,-0.32 0.8,-0.8 0.36,-0.48 0.8,-1.2 z m -9.96,-14.32 v 6.88 h 1 v -6.88 z m 2.04,12.8 q 0.92,-0.2 1.36,-1.08 0.48,-0.92 0.48,-1.76 0,-0.56 -0.24,-1.04 -0.2,-0.52 -0.64,-0.84 v 0.04 h -0.96 z m -1.04,-0.08 v -4.6 h -1 v 3.76 q 0.36,0.52 1,0.84 z m 0,4.28 v -3.84 q -0.28,-0.08 -0.52,-0.16 -0.2,-0.08 -0.48,-0.24 v 2.72 q 0,0.68 0.08,1.08 0.12,0.36 0.92,0.44 z m 32.03998,0.72 0.04,0.64 q -0.92,-0.08 -1.84,-0.16 -0.92,-0.12 -1.84,-0.12 -1.36,0 -2.64,0.12 -1.28,0.08 -2.64,0.16 l 0.04,-0.64 q 1.64,0.04 2.28,-0.52 0.68,-0.6 0.68,-2.16 0,-0.68 -0.04,-1.4 0,-0.72 -0.04,-1.4 h -10.52 q -0.04,0.68 -0.08,1.32 0,0.64 0,1.32 0,1.6 0.6,2.24 0.6,0.64 2.36,0.6 l 0.04,0.64 q -0.92,-0.08 -1.84,-0.16 -0.92,-0.12 -1.84,-0.12 -1.36,0 -2.64,0.12 -1.28,0.08 -2.64,0.16 l 0.04,-0.64 q 1.64,0.04 2.28,-0.52 0.68,-0.6 0.68,-2.16 0,-2.52 0.4,-5.08 0.44,-2.56 1.4,-4.84 1,-2.32 2.56,-4.28 1.6,-1.96 3.92,-3.32 2.36,1.36 3.92,3.32 1.6,1.92 2.56,4.24 1,2.32 1.4,4.88 0.44,2.52 0.44,5.08 0,1.56 0.64,2.16 0.68,0.56 2.32,0.52 z m -12.04,-18.56 q -1.16,0.88 -1.96,2.32 -0.8,1.4 -1.32,3 -0.48,1.6 -0.76,3.24 -0.24,1.64 -0.36,3.04 h 4.4 z m 1.52,11.6 h 4.36 q -0.12,-1.4 -0.36,-3.04 -0.24,-1.64 -0.76,-3.2 -0.48,-1.6 -1.28,-3 -0.8,-1.44 -1.96,-2.36 z m 27.43999,2.8 0.76,0.4 q -0.8,1.04 -1.4,2.16 -0.6,1.08 -1,2.36 -0.16,0.08 -0.36,0.08 -2.48,0 -4.96,-0.12 -2.44,-0.12 -4.92,-0.12 -0.48,0 -1,0.04 -0.48,0.04 -0.96,0.12 -0.36,-0.04 -0.76,0.08 -0.28,-0.08 -0.56,0 -0.28,0.08 -0.6,0.04 h -0.24 v -0.12 q 0,-0.12 0.04,-0.24 0.08,-0.12 0,-0.24 1.2,-0.28 1.8,-0.44 0.6,-0.16 0.88,-0.48 0.28,-0.36 0.28,-1.04 0.04,-0.68 0.04,-1.96 v -11 q 0,-1.16 0,-1.88 0.04,-0.72 -0.2,-1.16 -0.24,-0.48 -0.84,-0.72 -0.6,-0.28 -1.88,-0.44 -0.08,-0.24 -0.08,-0.4 l 0.04,-0.16 h 0.32 q 1,-0.08 2,0.08 1,0.12 2.04,0.12 1.08,0 2.12,-0.12 1.04,-0.12 2.12,-0.12 0.24,0 0.24,0.28 0,3.44 -0.04,6.84 -0.04,3.36 0,6.8 l -0.04,0.08 0.04,4.16 q 0,0.64 0.32,0.6 0.36,-0.08 0.8,-0.08 0.2,0 0.28,0.04 1.56,-0.16 2.28,-0.28 0.72,-0.16 1.16,-0.48 0.44,-0.32 0.88,-0.92 0.44,-0.64 1.4,-1.76 z m -7.88,3.28 v -3.6 l -0.04,-2.32 -2.04,-0.04 -0.12,0.12 v 1.8 1.8 q 0,0.24 -0.04,0.6 0,0.32 0.04,0.64 0.04,0.32 0.12,0.6 0.08,0.28 0.32,0.4 0.28,0.04 0.52,0.08 0.28,0.04 0.52,0.04 0.36,0 0.72,-0.12 z m 0,-6.64 q -0.04,-0.2 -0.04,-0.4 0.04,-0.24 0.04,-0.44 0,-0.2 -0.04,-0.32 -0.2,-0.08 -0.36,-0.08 -0.16,0 -0.36,0 h -0.28 q -0.32,0 -0.6,0.04 -0.24,0 -0.52,-0.04 l -0.08,0.08 q 0.04,0.16 0,0.32 0,0.16 0,0.36 0,0.28 0.12,0.52 h 0.52 0.64 q 0.24,0 0.48,0 0.24,0 0.48,-0.04 z m -0.04,-1.88 q -0.08,-1.24 0,-2.52 0.08,-1.28 0.08,-2.52 v -2.24 q 0,-0.52 -0.04,-1 0,-0.52 0,-1.04 -0.2,0.04 -0.52,0.12 -0.28,0.08 -0.6,0.2 -0.28,0.08 -0.52,0.24 -0.24,0.16 -0.28,0.4 -0.12,0.12 -0.2,0.44 -0.12,1.44 -0.12,2.92 0,1.48 0,2.92 v 1 1.12 l 0.12,0.04 q 0.36,-0.04 0.68,0 0.36,0 0.68,0 0.2,0 0.36,0 0.16,0 0.36,-0.08 z m 34.2,-10.24 -0.04,-0.32 q -1.6,0.12 -3.2,0.48 -1.6,0.36 -3.24,0.88 -1.6,0.48 -3.2,1.04 -1.56,0.52 -3.12,0.96 -1.68,-0.32 -3.36,-0.84 -1.68,-0.52 -3.36,-1.04 -1.64,-0.52 -3.32,-0.88 -1.68,-0.4 -3.44,-0.48 l -0.04,0.24 q 0.36,0.28 0.84,0.28 0.48,-0.04 0.92,0.2 0.28,0.16 0.52,0.44 0.24,0.28 0.24,0.6 v 14.72 q 0,0.4 0.04,0.92 0.04,0.48 0,0.96 -0.04,0.48 -0.24,0.88 -0.2,0.4 -0.64,0.6 -0.4,0.2 -0.84,0.2 -0.44,0 -0.8,0.2 l 0.04,0.24 0.16,0.04 q 0.8,0.04 1.6,-0.08 0.8,-0.12 1.6,-0.12 1,0 1.96,0.04 1,0.04 1.96,0.08 0.04,-0.04 0.04,-0.12 0,-0.12 -0.08,-0.2 -0.68,-0.08 -1.4,-0.24 -0.72,-0.2 -1.04,-0.92 0,-0.24 0,-1.36 0.04,-1.16 0.04,-2.4 0,-1.28 -0.04,-2.32 0,-1.08 -0.08,-1.16 v -9.44 l 0.12,-0.16 q 0.72,0.16 1.68,0.4 1,0.24 2.04,0.52 1.04,0.28 1.96,0.6 0.96,0.28 1.6,0.6 l 0.04,3.64 -0.24,0.16 h -2 l -0.2,0.12 0.04,0.52 2.24,0.08 0.16,0.12 q 0,1.04 0,2.08 0.04,1 0.04,2.04 0,0.52 -0.2,0.84 -0.12,0 -0.52,0 -0.36,0 -0.76,0 -0.36,0 -0.68,0.08 -0.28,0.04 -0.28,0.24 0,0.24 0,0.16 0.04,-0.08 0,0.16 0.28,0.08 0.52,0.08 0.24,0 0.52,0 h 1.2 l 0.12,0.08 q 0,0.8 0,1.56 0.04,0.76 0.04,1.56 v 3.4 q 0,0.8 -0.04,1.56 0,0.76 0,1.56 -0.32,0.88 -1,1.04 -0.64,0.2 -1.44,0.32 v 0.08 q 0,0.04 0,0.12 0,0.12 0.08,0.12 0.88,0 1.76,-0.12 0.88,-0.08 1.76,-0.08 0.92,0 1.8,0.04 0.88,0.04 1.76,0.12 l 0.04,-0.28 q -0.24,-0.04 -0.64,-0.12 -0.4,-0.08 -0.8,-0.24 -0.4,-0.12 -0.72,-0.36 -0.28,-0.2 -0.28,-0.52 l -0.04,-9.72 0.16,-0.12 0.44,-0.04 q 0.4,-0.04 0.76,0 0.4,0.04 0.8,-0.04 0.08,-0.24 0.08,-0.32 0,-0.2 -0.12,-0.32 h -1.96 l -0.16,-0.12 q 0.04,-0.28 0,-0.52 0,-0.28 0,-0.52 0,-0.44 0.12,-0.84 -0.16,-0.48 -0.16,-1.12 0,-0.44 0.04,-0.88 0.04,-0.48 0,-0.96 l 0.16,-0.12 1.92,-0.08 q 0.12,-0.08 0.12,-0.24 0,-0.24 -0.04,-0.16 0,0.08 0,-0.16 -0.28,-0.12 -0.68,-0.12 -0.32,0 -0.68,0.04 -0.32,0.04 -0.64,-0.04 l -0.16,-0.08 v -3.6 l 0.16,-0.2 6.44,-1.96 q 0.12,0 0.2,-0.04 0.12,-0.08 0.2,-0.08 0.16,0 0.24,0.08 v 13.04 q 0,0.92 -0.04,1.8 0,0.88 -0.04,1.8 -0.16,0.48 -0.44,0.72 -0.24,0.2 -0.56,0.32 -0.28,0.08 -0.64,0.16 -0.32,0.04 -0.72,0.16 l -0.04,0.08 q 0,0.08 0.04,0.16 0.04,0.08 0.12,0.08 0.92,0 1.84,-0.12 0.92,-0.12 1.84,-0.12 0.8,0 1.56,0.04 0.76,0.04 1.56,0.12 0.12,-0.04 0.12,-0.2 l -0.04,-0.08 q -0.28,-0.2 -0.64,-0.2 -0.36,0 -0.68,-0.08 -0.44,-0.16 -0.76,-0.48 -0.28,-0.36 -0.28,-0.8 -0.08,-1.2 -0.08,-2.4 0,-1.2 0,-2.4 0,-0.44 0,-1.48 0,-1.04 0,-2.36 0,-1.36 0,-2.8 0,-1.44 0.04,-2.68 0.04,-1.28 0.08,-2.16 0.08,-0.92 0.16,-1.12 0.12,-0.32 0.4,-0.44 0.28,-0.16 0.6,-0.24 0.32,-0.08 0.64,-0.12 0.32,-0.04 0.56,-0.12 z m 12.32004,3.64 q 0,-1.08 -0.52,-1.84 -0.52,-0.8 -1.36,-1.28 -0.8,-0.52 -1.8,-0.76 -0.96,-0.24 -1.88,-0.24 -1,0 -2,0.32 -1,0.28 -1.8,0.88 -0.8,0.6 -1.28,1.48 -0.48,0.84 -0.48,2 0,1.28 0.72,2.28 0.72,0.96 1.76,1.76 1.08,0.8 2.32,1.56 1.28,0.76 2.32,1.6 1.08,0.84 1.8,1.88 0.72,1 0.72,2.36 0,1.72 -1,3 -0.96,1.24 -2.76,1.24 -0.92,0 -1.76,-0.32 -0.8,-0.32 -1.44,-0.88 -0.6,-0.6 -0.96,-1.4 -0.36,-0.8 -0.36,-1.76 0,-1.44 0.56,-2.36 0.56,-0.92 1.84,-1.6 v -0.2 q -0.24,-0.08 -0.4,-0.08 -0.88,0 -1.6,0.4 -0.72,0.36 -1.24,1 -0.52,0.64 -0.84,1.44 -0.28,0.8 -0.28,1.6 0,1.36 0.56,2.32 0.56,0.92 1.44,1.52 0.92,0.6 2.04,0.84 1.16,0.28 2.32,0.28 1.2,0 2.28,-0.4 1.12,-0.4 1.92,-1.12 0.8,-0.72 1.28,-1.76 0.48,-1.04 0.48,-2.32 0,-1.52 -0.72,-2.64 -0.68,-1.16 -1.72,-2.04 -1.04,-0.92 -2.28,-1.72 -1.24,-0.8 -2.28,-1.64 -1.04,-0.84 -1.76,-1.84 -0.68,-1.04 -0.68,-2.4 0,-1.32 1,-1.96 1,-0.68 2.2,-0.68 0.72,0 1.44,0.24 0.72,0.24 1.28,0.68 0.6,0.44 0.92,1.08 0.36,0.64 0.36,1.44 0,1.16 -0.48,1.72 -0.48,0.56 -1.36,1.16 l 0.32,0.04 q 1.28,0.12 2.2,-0.72 0.96,-0.84 0.96,-2.16 z"
       id="text1"
       transform="scale(0.26458333)"
       aria-label="Vectorized Realms" />
  </g>
</svg>
