<?xml version="1.0" encoding="UTF-8" standalone="no"?>
<!-- Created with Inkscape (http://www.inkscape.org/) -->

<svg
   width="200mm"
   height="200mm"
   viewBox="0 0 200 199.99999"
   version="1.1"
   id="svg1"
   xml:space="preserve"
   xmlns:xlink="http://www.w3.org/1999/xlink"
   xmlns="http://www.w3.org/2000/svg"
   xmlns:svg="http://www.w3.org/2000/svg"><defs
     id="defs1"><pattern
       xlink:href="#pattern22"
       preserveAspectRatio="xMidYMid"
       id="pattern3"
       patternTransform="matrix(0.2,0,0,0.2,4143.1959,2047.4388)" /><pattern
       xlink:href="#pattern71"
       preserveAspectRatio="xMidYMid"
       id="pattern22"
       patternTransform="matrix(0.2,0,0,0.2,4143.1959,2047.4388)" /><pattern
       xlink:href="#pattern64"
       preserveAspectRatio="xMidYMid"
       id="pattern71"
       patternTransform="matrix(0.2,0,0,0.2,3291.0263,1704.0769)" /><pattern
       xlink:href="#pattern57"
       preserveAspectRatio="xMidYMid"
       id="pattern64"
       patternTransform="matrix(0.2,0,0,0.2,3291.0263,1704.6061)" /><pattern
       xlink:href="#pattern50"
       preserveAspectRatio="xMidYMid"
       id="pattern57"
       patternTransform="matrix(0.2,0,0,0.2,3291.0263,1704.0769)" /><pattern
       xlink:href="#pattern43"
       preserveAspectRatio="xMidYMid"
       id="pattern50"
       patternTransform="matrix(0.2,0,0,0.2,3291.0263,1704.6061)" /><pattern
       xlink:href="#pattern36"
       preserveAspectRatio="xMidYMid"
       id="pattern43"
       patternTransform="matrix(0.2,0,0,0.2,3291.0263,1704.0769)" /><pattern
       xlink:href="#pattern29"
       preserveAspectRatio="xMidYMid"
       id="pattern36"
       patternTransform="matrix(0.2,0,0,0.2,3291.0263,1703.5477)" /><pattern
       xlink:href="#pattern27"
       preserveAspectRatio="xMidYMid"
       id="pattern29"
       patternTransform="matrix(0.2,0,0,0.2,3291.0263,1703.0185)"
       x="0"
       y="0" /><filter
       style="color-interpolation-filters:sRGB"
       id="filter16"
       x="-0.022416683"
       y="-0.022416683"
       width="1.0448334"
       height="1.0448334"><feTurbulence
         id="feTurbulence14"
         baseFrequency="0.5"
         type="turbulence"
         result="result10" /><feGaussianBlur
         stdDeviation="0.20000000000000001"
         id="feGaussianBlur15"
         result="result5" /><feColorMatrix
         id="feColorMatrix14"
         values="0 0 0 0 0.57999999999999996 0 0 0 0 0.55000000000000004 0 0 0 0 0.46999999999999997 0 0 0 10.800000000000001 -5.4000000000000004"
         result="result4" /><feGaussianBlur
         stdDeviation="0.25"
         id="feGaussianBlur16"
         result="result11" /><feMorphology
         radius="7"
         id="feMorphology6"
         in="SourceAlpha"
         result="result25" /><feColorMatrix
         id="feColorMatrix6"
         values="0 0 0 0 1 0 0 0 0 1 0 0 0 0 1 0 0 0 -1 0.40000000000000002"
         in="result25" /><feGaussianBlur
         stdDeviation="3"
         id="feGaussianBlur6"
         result="result26" /><feTurbulence
         id="feTurbulence16"
         type="fractalNoise"
         baseFrequency="0.14999999999999999"
         result="result20" /><feMorphology
         radius="0.69999999999999996"
         id="feMorphology10"
         operator="dilate" /><feBlend
         mode="normal"
         id="feBlend6"
         in="result26"
         result="result29" /><feColorMatrix
         id="feColorMatrix9"
         values="0 0 0 0 0.94999999999999996 0 0 0 0 0.90000000000000002 0 0 0 0 0.84999999999999998 0 0 0 20 -13"
         result="result28" /><feColorMatrix
         id="feColorMatrix3"
         values="0 0 0 0 0.95999999999999996 0 0 0 0 0.92000000000000004 0 0 0 0 0.85999999999999999 0 0 0 20 -14"
         result="result24"
         in="result29" /><feBlend
         mode="normal"
         id="feBlend9"
         in="result24"
         result="result30"
         in2="result28" /><feComposite
         id="feComposite16"
         in="result11"
         in2="result23"
         operator="over"
         result="result13" /><feColorMatrix
         id="feColorMatrix10"
         values="0 0 0 0 0.98999999999999999 0 0 0 0 0.93999999999999995 0 0 0 0 0.88 0 0 0 1 0"
         in="SourceAlpha"
         result="result32" /><feBlend
         mode="normal"
         id="feBlend10"
         result="result31"
         in="result13"
         in2="result32" /><feGaussianBlur
         stdDeviation="1"
         id="feGaussianBlur8"
         in="SourceAlpha" /><feColorMatrix
         id="feColorMatrix8"
         values="1 0 0 0 0 0 1 0 0 0 0 0 1 0 0 0 0 0 9 -4"
         result="result27" /><feComposite
         id="feComposite9"
         in="result31"
         operator="in"
         result="result22" /></filter><filter
       style="color-interpolation-filters:sRGB"
       id="filter35"
       x="0"
       y="0"
       width="1"
       height="1"><feGaussianBlur
         stdDeviation="1"
         id="feGaussianBlur35"
         result="result1"
         in="SourceAlpha" /><feColorMatrix
         id="feColorMatrix35"
         values="0 0 0 0 0 0 0 0 0 0 0 0 0 0 0 0 0 0 8 -4"
         in="result1"
         result="result2" /><feMorphology
         radius="0.20000000000000001"
         id="feMorphology39"
         result="result8" /><feMorphology
         radius="1.6000000000000001"
         id="feMorphology36"
         in="result2"
         result="result3" /><feMorphology
         radius="1.8"
         id="feMorphology37"
         in="result2"
         result="result4" /><feComposite
         id="feComposite39"
         in="result2"
         operator="out"
         result="result7"
         in2="result8" /><feComposite
         id="feComposite37"
         in="result3"
         operator="out"
         in2="result4"
         result="result5" /><feBlend
         mode="normal"
         id="feBlend40"
         in2="result7"
         result="result12" /><feTurbulence
         id="feTurbulence40"
         baseFrequency="0.14999999999999999"
         result="result13"
         type="turbulence" /><feColorMatrix
         id="feColorMatrix40"
         values="0 0 0 0 0 0 0 0 0 0 0 0 0 0 0 0 0 0 400 -30"
         result="result14" /><feComposite
         id="feComposite40"
         result="result11"
         operator="in"
         in2="result14"
         in="result12" /><feGaussianBlur
         stdDeviation="0.29999999999999999"
         id="feGaussianBlur38"
         in="result11" /><feColorMatrix
         id="feColorMatrix38"
         values="0 0 0 0 0.58999999999999997 0 0 0 0 0.59999999999999998 0 0 0 0 0.56000000000000005 0 0 0 5 0"
         result="result6" /><feColorMatrix
         id="feColorMatrix36"
         values="0 0 0 0 0.89000000000000001 0 0 0 0 0.90000000000000002 0 0 0 0 0.88 0 0 0 1 0"
         in="result2"
         result="result16" /><feGaussianBlur
         stdDeviation="0.5"
         id="feGaussianBlur13"
         result="result20" /><feMorphology
         radius="4"
         id="feMorphology12"
         in="result2"
         result="result19" /><feComposite
         id="feComposite1"
         in="SourceGraphic"
         in2="result19"
         operator="in"
         result="result21" /><feComposite
         id="feComposite13"
         in="result21"
         in2="result20" /><feGaussianBlur
         stdDeviation="0.29999999999999999"
         id="feGaussianBlur2" /><feBlend
         mode="normal"
         id="feBlend41"
         in="result6"
         in2="result17"
         result="result18" /></filter><filter
       style="color-interpolation-filters:sRGB"
       id="filter20"
       x="-0.054950263"
       y="-0.026199587"
       width="1.1099005"
       height="1.0523992"><feTurbulence
         id="feTurbulence3"
         result="result1"
         type="fractalNoise"
         baseFrequency="0.25"
         numOctaves="1" /><feColorMatrix
         id="feColorMatrix15"
         values="0 0 0 0 0 0 0 0 0 0 0 0 0 0 0 0 0 0 1.5 0"
         result="result8"
         baseFrequency="0.25" /><feMorphology
         radius="0.69999999999999996"
         id="feMorphology15"
         in="SourceAlpha"
         result="result3"
         operator="dilate" /><feGaussianBlur
         stdDeviation="1"
         id="feGaussianBlur17"
         result="result7"
         in="result3" /><feComposite
         id="feComposite17"
         in="result7"
         operator="in"
         result="result6"
         in2="result8" /><feMorphology
         radius="0.29999999999999999"
         id="feMorphology17"
         in="SourceAlpha"
         result="result10" /><feGaussianBlur
         stdDeviation="0.5"
         id="feGaussianBlur18"
         result="result2"
         in="result10" /><feBlend
         mode="normal"
         id="feBlend18"
         in="result6"
         in2="result2"
         result="result4" /><feColorMatrix
         id="feColorMatrix18"
         values="0 0 0 0 0.79000000000000004 0 0 0 0 0.81999999999999995 0 0 0 0 0.62 0 0 0 80 -60"
         result="result5"
         in="result4" /></filter><filter
       style="color-interpolation-filters:sRGB"
       id="filter43"
       x="-0.35964947"
       y="-0.1714763"
       width="1.7192989"
       height="1.3429526"><feTurbulence
         id="feTurbulence22"
         result="result1"
         type="fractalNoise"
         baseFrequency="0.25"
         numOctaves="1" /><feColorMatrix
         id="feColorMatrix22"
         values="0 0 0 0 0 0 0 0 0 0 0 0 0 0 0 0 0 0 1.5 0"
         result="result8"
         baseFrequency="0.25" /><feMorphology
         radius="0.69999999999999996"
         id="feMorphology22"
         in="SourceAlpha"
         result="result3"
         operator="dilate" /><feGaussianBlur
         stdDeviation="1"
         id="feGaussianBlur22"
         result="result7"
         in="result3" /><feComposite
         id="feComposite22"
         in="result7"
         operator="in"
         result="result6"
         in2="result8" /><feMorphology
         radius="0.29999999999999999"
         id="feMorphology23"
         in="SourceAlpha"
         result="result10" /><feGaussianBlur
         stdDeviation="0.5"
         id="feGaussianBlur25"
         result="result2"
         in="result10" /><feBlend
         mode="normal"
         id="feBlend25"
         in="result6"
         in2="result2"
         result="result4" /><feColorMatrix
         id="feColorMatrix25"
         values="0 0 0 0 0.5 0 0 0 0 0.46999999999999997 0 0 0 0 0.41999999999999998 0 0 0 80 -60"
         result="result5"
         in="result4" /><feColorMatrix
         id="feColorMatrix26"
         values="0 0 0 0 0 0 0 0 0 0 0 0 0 0 0 0 0 0 -1 1"
         in="result5"
         result="result517" /><feMorphology
         radius="5.5"
         id="feMorphology27"
         operator="dilate"
         in="result517" /><feGaussianBlur
         stdDeviation="3"
         id="feGaussianBlur28"
         result="result51" /><feTurbulence
         id="feTurbulence28"
         baseFrequency="0.20000000000000001"
         type="fractalNoise" /><feColorMatrix
         id="feColorMatrix28"
         values="0 0 0 0 1 0 0 0 0 1 0 0 0 0 1 0 0 0 -1 1"
         result="result52" /><feComposite
         id="feComposite28"
         operator="in"
         result="result53"
         in="result51" /><feBlend
         mode="color-dodge"
         id="feBlend28"
         result="result57"
         in2="result517" /><feColorMatrix
         id="feColorMatrix29"
         values="0 0 0 0 0.66000000000000003 0 0 0 0 0.64000000000000001 0 0 0 0 0.5 0 0 0 4.5 -0.5"
         result="result516" /><feTurbulence
         id="feTurbulence29"
         baseFrequency="1"
         type="fractalNoise"
         result="result510" /><feMorphology
         radius="6"
         id="feMorphology29"
         in="result517"
         operator="dilate"
         result="result524" /><feGaussianBlur
         stdDeviation="1"
         id="feGaussianBlur29"
         result="result59" /><feTurbulence
         id="feTurbulence30"
         type="fractalNoise"
         baseFrequency="0.17999999999999999" /><feColorMatrix
         id="feColorMatrix31"
         values="0 0 0 0 0 0 0 0 0 0 0 0 0 0 0 0 0 0 100 -70" /><feComposite
         id="feComposite31"
         in2="result59"
         result="result528" /><feComposite
         id="feComposite32"
         operator="in"
         result="result58"
         in2="result528"
         in="result510" /><feColorMatrix
         id="feColorMatrix32"
         values="0 0 0 0 1 0 0 0 0 1 0 0 0 0 1 0 0 0 9 -6"
         result="result54" /><feGaussianBlur
         stdDeviation="0.20000000000000001"
         id="feGaussianBlur32"
         result="result55" /><feColorMatrix
         id="feColorMatrix33"
         values="0 0 0 0 0.58999999999999997 0 0 0 0 0.56000000000000005 0 0 0 0 0.47999999999999998 0 0 0 70 0"
         result="result56" /><feGaussianBlur
         stdDeviation="0.29999999999999999"
         id="feGaussianBlur33"
         result="result511" /><feColorMatrix
         id="feColorMatrix34"
         values="1 0 0 0 0 0 1 0 0 0 0 0 1 0 0 0 0 0 0.75 0"
         result="result522" /><feComposite
         id="feComposite34"
         in2="result516"
         operator="over"
         result="result513" /><feColorMatrix
         id="feColorMatrix39"
         values="0 0 0 0 0 0 0 0 0 0 0 0 0 0 0 0 0 0 1 0"
         in="result5"
         result="result525" /><feComposite
         id="feComposite41"
         result="result515"
         operator="in"
         in2="result525"
         in="result513" /><feMorphology
         radius="0.80000000000000004"
         id="feMorphology41"
         result="result519"
         in="result525" /><feMorphology
         radius="0.20000000000000001"
         id="feMorphology42"
         in="result525"
         operator="dilate"
         result="result527" /><feComposite
         id="feComposite42"
         in2="result527"
         operator="xor"
         result="result523"
         in="result519" /><feColorMatrix
         id="feColorMatrix42"
         values="0 0 0 0 0.5 0 1 0 0 0.46999999999999997 0 0 1 0 0.41999999999999998 0 0 0 1 0"
         result="result526" /><feGaussianBlur
         stdDeviation="0.20000000000000001"
         id="feGaussianBlur42"
         result="result520" /><feComposite
         id="feComposite43"
         in="result520"
         in2="result515"
         result="result521" /><feMerge
         id="feMerge43"><feMergeNode
           id="feMergeNode43"
           in="result521" /></feMerge></filter><filter
       style="color-interpolation-filters:sRGB"
       id="filter58"
       x="-0.020449632"
       y="-0.013802467"
       width="1.0408993"
       height="1.0276049"><feGaussianBlur
         stdDeviation="1"
         id="feGaussianBlur52"
         result="result1"
         in="SourceAlpha" /><feColorMatrix
         id="feColorMatrix52"
         values="0 0 0 0 0 0 0 0 0 0 0 0 0 0 0 0 0 0 8 -4"
         in="result1"
         result="result2" /><feMorphology
         radius="0.20000000000000001"
         id="feMorphology52"
         result="result8" /><feMorphology
         radius="1.8999999999999999"
         id="feMorphology53"
         in="result2"
         result="result3" /><feMorphology
         radius="2.1000000000000001"
         id="feMorphology54"
         in="result2"
         result="result4" /><feComposite
         id="feComposite54"
         in="result2"
         operator="out"
         result="result7"
         in2="result8" /><feComposite
         id="feComposite55"
         in="result3"
         operator="out"
         in2="result4"
         result="result5" /><feBlend
         mode="normal"
         id="feBlend55"
         in2="result7"
         result="result12" /><feTurbulence
         id="feTurbulence55"
         baseFrequency="0.14999999999999999"
         result="result13"
         type="turbulence" /><feColorMatrix
         id="feColorMatrix55"
         values="0 0 0 0 0 0 0 0 0 0 0 0 0 0 0 0 0 0 400 -30"
         result="result14" /><feComposite
         id="feComposite56"
         result="result11"
         operator="in"
         in2="result14"
         in="result12" /><feGaussianBlur
         stdDeviation="0.29999999999999999"
         id="feGaussianBlur56"
         in="result11" /><feColorMatrix
         id="feColorMatrix56"
         values="0 0 0 0 0.58999999999999997 0 0 0 0 0.59999999999999998 0 0 0 0 0.56000000000000005 0 0 0 5 0"
         result="result6" /><feColorMatrix
         id="feColorMatrix57"
         values="0 0 0 0 0.87 0 0 0 0 0.87 0 0 0 0 0.87 0 0 0 1 0"
         in="result2"
         result="result16" /><feGaussianBlur
         stdDeviation="0.5"
         id="feGaussianBlur57"
         result="result20" /><feTurbulence
         id="feTurbulence60"
         result="result25"
         baseFrequency="0.059999999999999998"
         seed="1" /><feColorMatrix
         id="feColorMatrix60"
         values="0 0 0 0 0 0 0 0 0 0 0 0 0 0 0 0 0 0 1 0"
         result="result28" /><feTurbulence
         id="feTurbulence58"
         baseFrequency="0.074999999999999997"
         type="turbulence"
         result="result22" /><feColorMatrix
         id="feColorMatrix61"
         values="0 0 0 0 0 0 0 0 0 0 0 0 0 0 0 0 0 0 1 0"
         result="result27" /><feComposite
         id="feComposite60"
         in2="result28"
         in="result27"
         operator="over"
         result="result26" /><feColorMatrix
         id="feColorMatrix58"
         values="0 0 0 0 0.80000000000000004 0 0 0 0 0.80000000000000004 0 0 0 0 0.66000000000000003 0 0 0 10 -2.7999999999999998"
         result="result21" /><feColorMatrix
         id="feColorMatrix59"
         values="0 0 0 0 0.79000000000000004 0 0 0 0 0.85999999999999999 0 0 0 0 0.68999999999999995 0 0 0 4 -2.2999999999999998"
         in="result26"
         result="result24" /><feComposite
         id="feComposite59"
         operator="atop"
         in="result24"
         in2="result21"
         result="result29" /><feGaussianBlur
         stdDeviation="1"
         id="feGaussianBlur5"
         result="result30" /><feTurbulence
         id="feTurbulence5"
         baseFrequency="0.59999999999999998"
         seed="0"
         numOctaves="1" /><feDisplacementMap
         id="feDisplacementMap5"
         result="result31"
         in="result30"
         xChannelSelector="R"
         yChannelSelector="G"
         scale="3" /><feComposite
         id="feComposite58"
         in2="result20"
         operator="atop"
         in="result20"
         result="result23" /><feBlend
         mode="normal"
         id="feBlend58"
         in="result23"
         in2="result23"
         result="result18" /></filter><pattern
       patternUnits="userSpaceOnUse"
       width="244.04466"
       height="234.58326"
       patternTransform="translate(3291.0263,1703.0185)"
       preserveAspectRatio="xMidYMid"
       id="pattern27"
       style="fill:#000000"><g
         id="g27"
         transform="matrix(3.3623359,0,0,3.3632535,-3288.9264,-1602.7046)"
         style="display:inline;stroke-width:1.12392"><rect
           style="font-variation-settings:normal;display:inline;opacity:1;fill:#e3e6e0;fill-opacity:1;stroke:none;stroke-width:1.34871;stroke-linecap:butt;stroke-linejoin:miter;stroke-miterlimit:4;stroke-dasharray:none;stroke-dashoffset:0;stroke-opacity:1"
           id="rect26"
           width="72.581879"
           height="69.748909"
           x="978.16711"
           y="476.534" /><path
           style="fill:none;stroke:#92958e;stroke-width:1.2;stroke-linecap:round;stroke-linejoin:miter;stroke-dasharray:none;stroke-opacity:1"
           d="m 904.34554,457.39503 1.37729,1.2912 m 1.54944,-4.64831 0.51647,3.52927 m 3.09887,-3.18495 -1.03296,3.09887 m 2.66847,-0.25824 -0.77471,0.86079 m -31.92901,6.05744 1.7216,2.15199 m -3.44319,-0.60255 2.32415,2.15199 m -2.75454,1.72159 1.63551,-0.0861 m 8.17756,-0.43038 0.51648,1.11904 m -3.87359,0.17215 2.49631,1.63552 m -2.75454,1.37727 h 2.9267 m 7.05853,1.54943 0.94687,1.63551 m -3.7875,0.25824 2.66847,1.37728 m -2.58239,2.06591 h 1.63551 m 7.23069,-8.52188 0.43039,1.80767 m 2.41023,-3.44318 -0.17216,3.52926 m 2.66847,-0.8608 -0.51648,1.37728 m 6.62813,-0.8608 -0.64559,2.32415 m 4.39005,-1.29119 -2.06591,1.67855 m 1.03296,2.10895 -1.46335,0.17216 m 9.64091,-0.8608 -2.02287,1.97983 m 4.6483,0.77472 -3.22799,1.29119 m 1.59247,1.89375 -1.33423,0.043 m 8.90924,-5.03561 -1.11904,1.76463 m 3.14191,0.4304 -1.89375,1.46335 m 2.45326,1.59247 -1.59247,0.043 m -17.64631,-18.50707 -0.55952,1.63551 m 4.08878,-1.11903 -1.97983,2.15199 m 3.18495,0.86079 -1.33424,0.94688 m -21.17558,-4.4331 1.33424,1.03295 m 1.33423,-3.40014 0.4304,2.32415 m 2.41023,-1.93679 -0.4304,1.80767 m -5.20781,21.34774 2.41022,-0.77472 m 0.2152,2.41023 0.90384,-1.33423 m 1.89375,-0.94688 -0.0861,-1.42031 m 2.02289,3.1419 -0.17216,-2.10895 m 5.72429,-0.60255 -2.06591,-0.73168 m 3.44319,-2.66847 -2.92671,0.8608 m 0.12912,-2.75455 -0.81776,1.33423 m 6.49901,5.46606 1.85071,-0.94688 m -1.11903,2.84063 3.44318,0.2152 m -4.04574,1.85071 1.076,0.60256 m -7.53197,-1.63552 2.36719,0.043 m -3.09886,1.33428 1.33423,1.93679 m -2.84063,-1.59247 -0.30128,0.94687 m -13.25625,-4.90654 1.29119,-0.34431 m -0.12912,2.9267 1.7216,-0.77471 m -1.37728,4.2179 2.84063,-2.49631 m 0.30128,2.9267 0.77471,-1.50639 m -14.97784,-12.52458 1.54943,0.4304 m -3.40015,2.58239 2.84063,-0.6456 m 0.25824,3.1419 1.37727,-1.46335 m -11.7929,-2.96974 2.49631,0.043 m -0.77472,-3.01275 1.24816,0.81776 m -1.76464,6.06861 2.02287,-2.02287 m 3.01279,6.32685 1.50639,-0.4304 m -1.11903,3.87358 2.41023,-2.36719 m 0.90383,3.31406 0.8608,-2.06591 m 4.82045,5.20782 2.19503,-0.12912 m -2.45326,2.84063 2.62542,-1.37728 m 0.47344,2.92671 0.73168,-1.50639 m -3.31407,-38.99405 0.38736,1.59247 m 1.80767,-2.84063 -0.38736,2.62543 m 2.45327,-0.90384 -0.90383,1.24816 m 28.8797,31.5912 2.15199,-0.94687 m -1.85071,3.18494 2.88366,-0.55951 m -2.71151,2.06591 2.15199,0.47343 m -2.62542,0.81776 1.16207,0.68864 m -24.48964,1.11903 1.42031,-0.81776 m -1.16207,3.78751 2.28111,-2.92671 m 0.94687,1.97983 0.12912,-1.24815 m 5.90398,1.23233 v 1.42032 m 1.85071,-1.80767 0.30128,1.33423 m 1.20511,-2.36719 2.15199,2.36719 m -0.60256,-3.48622 1.93679,0.25824 m -17.13736,8.06425 -0.51647,1.16208 m 2.45326,-0.77472 0.2152,2.75455 m 1.76463,-3.05583 0.55952,1.67855 m 13.7066,-3.55248 0.0482,1.59009 m 2.40921,-2.12012 0.67458,1.92738 m 1.2528,-2.69833 1.68646,1.39735 m 0.28911,-3.13199 1.25279,0.14455 m -48.7627,-44.7152 -0.0482,1.49372 m 1.78284,-2.07193 0.38547,2.69833 m 1.34917,-3.132 0.67458,1.34917 m 0.28911,-2.50559 0.72277,0.53003 m 47.46172,-1.10824 -2.65014,1.78282 m 3.90294,-0.72277 -1.10824,1.49372 m -0.57822,-4.24023 -2.50559,0.19274 m -48.08812,50.97919 1.10824,-1.97557 m 0.14456,2.84289 2.84288,-1.68646 m -1.5419,3.56565 2.31285,-0.0482 m -2.21648,1.9274 1.59008,0.14455 m 7.03494,-4.57753 0.57821,-1.68645 m 0.38548,2.7947 3.18018,-2.26467 m -2.45741,3.46928 1.68645,-0.33729 m 39.80039,-40.23405 -1.78282,0.48184 m 2.65014,0.81914 -2.45741,2.1683 m 3.56566,-1.06006 -0.96369,1.49372 m -44.52247,-18.9365 -0.81914,1.44553 m 2.40923,-1.01187 -0.81914,2.60196 m 2.31286,-2.65015 0.19273,1.30099 m 38.30668,55.55672 1.54191,0.0964 m -2.36104,-3.37294 3.61383,1.68646 m 0.24092,-2.93926 1.34917,1.59009 m 1.15643,-2.45741 0.77095,1.15643"
           id="path27"
           transform="matrix(1.1240779,0,0,1.1237712,-0.62453625,-29.826427)" /></g></pattern></defs><g
     id="layer2"
     style="display:none;opacity:1"
     transform="translate(-852.16956,-343.36188)"><g
       id="g2"
       style="display:inline;opacity:1;mix-blend-mode:normal;fill:#fcf0e0;fill-opacity:1;stroke:#bad9e8;stroke-width:2;stroke-dasharray:none"
       transform="translate(0.00329406)"><path
         id="path252"
         style="display:inline;opacity:1;fill:#fcf0e0;fill-opacity:1;stroke:#bad9e8;stroke-width:2;stroke-dasharray:none"
         d="m -590.48105,-549.9588 v 239.99982 h 239.99982 V -549.9588 Z"
         transform="translate(1422.6475,873.32087)" /></g><g
       id="g280"
       style="display:inline;opacity:1;fill:#c8d09d;fill-opacity:1;stroke:none"
       transform="translate(1422.6475,873.32087)"><path
         style="fill:#c8d09d;fill-opacity:1;stroke:none"
         d="m -531.29958,-496.68699 -1.92447,-0.40934 -0.19823,-1.38766 -0.19823,-1.38766 -1.8646,1.07013 -1.8646,1.07014 -1.05559,-1.05559 -1.05558,-1.05558 -0.31493,-2.79408 -0.31493,-2.79408 1.3537,-1.22508 1.35371,-1.22509 -1.07434,-1.18713 -1.07434,-1.18714 v -2.84423 -2.84424 l 0.82695,-0.99641 0.82694,-0.99642 h 1.20443 1.20443 v -1.47542 -1.47542 l 0.76979,-0.76979 0.76979,-0.76978 h 2.29491 2.29492 l 1.42572,0.9986 1.42571,0.99861 v -1.60223 -1.60224 l 0.64149,-0.39646 0.64148,-0.39646 v -1.03424 -1.03423 l -1.04684,-1.15675 -1.04683,-1.15674 0.81407,-1.96535 0.81408,-1.96535 1.15282,-0.61698 1.15282,-0.61697 h 2.57027 2.57027 l 0.39646,-0.64149 0.39646,-0.64148 h -0.67935 -0.67934 v -1.58894 -1.58893 l 1.60372,-1.0508 1.60372,-1.05079 v -1.40165 -1.40165 l 0.76978,-0.76978 0.76979,-0.76979 h 1.71762 1.71762 l 0.85404,1.02906 0.85404,1.02906 1.4103,0.53619 1.41029,0.5362 0.45424,2.1233 0.45423,2.12331 0.66173,0.82085 0.66173,0.82086 -0.72205,1.58472 -0.72205,1.58473 h -1.29673 -1.29673 l 0.007,0.48111 0.007,0.48112 2.54783,1.22057 2.54783,1.22058 1.03602,1.14478 1.03602,1.14479 -0.7536,2.28344 -0.75361,2.28344 -1.35164,0.94673 -1.35165,0.94673 0.90351,1.68822 0.90352,1.68823 -2.07885,1.85745 -2.07885,1.85745 h -1.50464 -1.50465 l 0.31087,1.6262 0.31087,1.6262 -1.14074,1.2605 -1.14073,1.26049 h -2.10403 -2.10402 l -1.64548,-0.62561 -1.64548,-0.62561 v 1.80917 1.80916 l -1.26234,1.1424 -1.26233,1.1424 0.66536,1.24323 0.66536,1.24324 -0.80346,0.96812 -0.80346,0.96811 -2.42294,1.23609 -2.42294,1.23609 -1.14816,-0.0759 -1.14816,-0.0759 z"
         id="path345" /><path
         style="fill:#c8d09d;fill-opacity:1;stroke:none"
         d="m -476.45235,-393.08284 -2.8867,-0.72566 -0.7525,-0.48847 -0.75251,-0.48847 -0.40769,-1.75674 -0.40769,-1.75673 -2.04011,-1.29156 -2.04011,-1.29156 -0.22176,-1.1515 -0.22176,-1.15149 0.48037,-1.08513 0.48036,-1.08513 -0.12795,-2.78048 -0.12794,-2.78047 1.26116,-0.3298 1.26117,-0.32981 -0.29145,-0.75952 -0.29146,-0.75952 -3.67345,-0.065 -3.67346,-0.0649 -0.87128,0.70309 -0.87128,0.70309 -0.74722,-0.93802 -0.74722,-0.93802 -1.2682,-0.70618 -1.26819,-0.70618 -0.19881,-1.9905 -0.1988,-1.99051 0.73189,-1.36755 0.73189,-1.36756 -0.3131,-0.3131 -0.3131,-0.31311 -2.107,1.08957 -2.10699,1.08957 -2.16354,-2.36083 -2.16354,-2.36083 0.1401,-1.40776 0.1401,-1.40777 -0.48358,-1.74194 -0.48358,-1.74194 1.41156,-1.78624 1.41156,-1.78624 -1.82661,-0.21826 -1.82661,-0.21826 -0.47337,-0.74397 -0.47338,-0.74398 -0.01,-1.49269 -0.01,-1.4927 1.76409,-1.78932 1.7641,-1.78932 0.18176,-2.27992 0.18176,-2.27993 -0.66288,-0.40968 -0.66288,-0.40969 v -1.5193 -1.5193 l 1.47745,-1.16916 1.47746,-1.16917 0.46197,-1.21406 0.46198,-1.21407 4.95223,0.37454 4.95224,0.37454 1.06939,1.32064 1.06939,1.32064 h 1.53297 1.53297 l 0.76979,0.76979 0.76978,0.76979 0.004,0.9943 0.004,0.99431 0.95828,1.83742 0.95828,1.83742 -0.0204,1.04927 -0.0204,1.04928 -0.94184,1.24521 -0.94183,1.24521 v 0.51889 0.51888 h 1.24512 1.24512 l 0.38834,0.62835 0.38834,0.62835 1.20115,-0.75013 1.20115,-0.75013 1.01432,0.84181 1.01432,0.84182 v 3.05034 3.05035 l -0.96223,0.79858 -0.96223,0.79858 v 1.01199 1.01198 l 0.76978,-0.76979 0.76979,-0.76978 h 1.79617 1.79616 v 0.64149 0.64148 h 1.94034 1.94035 l 0.67228,1.7641 0.67229,1.76409 0.36113,1.79849 0.36114,1.79848 -1.61872,1.7297 -1.61872,1.7297 -0.45614,1.50667 -0.45614,1.50668 -1.21965,1.21965 -1.21965,1.21965 h -0.58143 -0.58143 l 0.29362,1.12282 0.29363,1.12281 1.69867,0.80165 1.69868,0.80165 h 0.83434 0.83434 v 0.90976 0.90977 l 0.38938,1.0147 0.38937,1.01469 h -1.37174 -1.37174 l -0.3537,0.92173 -0.3537,0.92173 -0.98317,-0.37728 -0.98317,-0.37728 0.46767,1.47349 0.46766,1.47349 1.61587,1.3899 1.61586,1.38991 -0.81711,2.52592 -0.81712,2.52592 -0.21002,0.80186 -0.21003,0.80186 -0.82199,-0.0762 -0.82199,-0.0762 z"
         id="path336" /></g><g
       id="g16"
       style="display:inline;opacity:1;fill:url(#pattern3);fill-opacity:1;stroke:none"
       transform="translate(1422.3801,873.44125)"><path
         style="font-variation-settings:normal;opacity:1;vector-effect:none;fill:url(#pattern3);fill-opacity:1;stroke:none;stroke-width:0.264583px;stroke-linecap:butt;stroke-linejoin:miter;stroke-miterlimit:4;stroke-dasharray:none;stroke-dashoffset:0;stroke-opacity:1;-inkscape-stroke:none;stop-color:#000000;stop-opacity:1"
         d="m -527.61829,-419.11929 -2.70402,-0.0731 -2.92325,-1.82705 -3.65408,-1.46164 h -4.45796 l -2.92325,1.16932 -2.48478,2.48476 -0.95007,2.33862 -0.14615,3.06941 -0.36542,2.4117 -1.53472,1.68087 -2.19244,2.92325 -1.68087,3.21559 -1.46164,2.4117 -0.80388,2.26552 -0.65773,3.9464 1.31546,5.9196 1.60779,4.67722 2.4117,3.43483 1.82703,2.04628 1.90013,1.09622 1.31546,1.38856 v 1.82703 l -0.29234,2.77709 0.73083,1.31549 1.1693,0.58465 -0.0731,2.99632 -0.29233,4.23873 0.80391,3.72716 3.72715,4.09258 6.21192,3.21558 7.01582,2.7771 6.43118,0.87699 4.3118,-0.58468 3.43485,-2.55783 1.75395,-3.43485 2.04629,-2.04626 2.26552,-1.31548 4.09255,-0.29232 7.6005,0.80389 6.13883,0.0731 2.85018,-0.51158 5.99268,-3.36174 3.50792,-1.60779 3.72716,-0.29234 2.99633,-2.11934 0.51157,-2.92327 -2.92325,-2.92325 -1.31546,-3.14251 -2.55786,-4.45797 0.21924,-2.92327 1.31548,-2.26552 1.31546,-1.97321 -0.14616,-1.68087 -1.38856,-1.6078 -3.80024,-2.63094 -4.96953,-2.33859 -1.90013,-1.38856 -0.95004,-2.41168 -1.24241,-2.92328 0.0731,-3.21558 -1.75395,-4.45797 -1.60779,-1.1693 -2.3386,-0.51157 -3.06943,0.14616 -2.41168,-0.29232 -1.1693,-1.90013 -1.31548,-2.63093 -0.65773,-2.92325 -1.75395,-4.67723 -1.82705,-2.41168 -3.43482,-2.99635 -3.28867,-0.29231 -1.75397,0.51157 -3.28867,2.3386 -3.43482,2.3386 -1.31546,1.82705 -2.48478,1.38854 z"
         id="path367" /></g><g
       id="g382"
       style="display:inline;opacity:1"><path
         style="display:inline;opacity:1;fill:#dfdedc;fill-opacity:1;stroke:none;stroke-width:0.264583px;stroke-linecap:butt;stroke-linejoin:miter;stroke-opacity:1"
         d="m 920.56489,361.17104 -5.36988,2.3146 -4.53663,3.98113 -3.51819,3.51819 v 3.70337 l 0.64807,3.33304 4.07371,3.05527 6.85123,4.53663 3.51822,2.59236 2.9627,3.05528 4.72178,4.35147 3.05527,1.48135 4.44405,-0.37034 4.90696,-2.12945 2.40718,-3.70337 -0.64807,-3.70337 -1.57393,-5.36988 -0.27776,-5.18472 1.94427,-2.59236 3.14785,-5.46246 1.75911,-4.53662 -1.11101,-6.38832 -2.68494,-2.77754 -5.36988,-2.59233 h -3.88855 l -5.09212,0.46291 -3.05528,1.01841 -4.53662,3.42564 z"
         id="path389" /><path
         style="fill:#dfdedc;fill-opacity:1;stroke:none;stroke-width:0.264583px;stroke-linecap:butt;stroke-linejoin:miter;stroke-opacity:1"
         d="m 1008.8902,501.25098 -4.1663,3.88852 -5.74017,3.61077 -3.70337,2.68497 -1.66653,3.14785 -0.18516,2.59236 1.38878,1.85169 2.12942,1.20359 0.37033,1.94426 -0.74067,2.40721 0.27776,4.16629 2.12944,1.85168 3.42557,1.57393 3.0553,2.40718 2.8701,0.27776 3.796,-0.55552 2.6849,-1.94427 4.9996,-2.77751 3.0552,-0.83325 3.2405,-2.22203 3.333,-4.44405 0.7407,-3.98113 -0.5555,-3.24043 0.7407,-4.07371 -2.4072,-5.64764 -4.8144,-2.22202 -3.8885,-0.18518 -3.3331,-1.94427 -4.444,-0.83325 z"
         id="path391" /></g></g><g
     id="layer3"
     style="display:inline"
     transform="translate(-852.16956,-343.36188)"><use
       x="0"
       y="0"
       xlink:href="#g2"
       id="use1"
       style="font-variation-settings:normal;display:inline;opacity:1;vector-effect:none;fill:#f3eadb;fill-opacity:1;stroke-width:0.264583;stroke-linecap:butt;stroke-linejoin:miter;stroke-miterlimit:4;stroke-dasharray:none;stroke-dashoffset:0;stroke-opacity:1;-inkscape-stroke:none;filter:url(#filter16);stop-color:#000000;stop-opacity:1"
       clip-path="none"
       transform="translate(-0.00329406)" /><use
       x="0"
       y="0"
       xlink:href="#g280"
       id="use2"
       style="display:inline;opacity:1;filter:url(#filter20)" /><use
       x="0"
       y="0"
       xlink:href="#g280"
       id="use3"
       style="display:inline;opacity:1;filter:url(#filter43)" /><use
       x="0"
       y="0"
       xlink:href="#g16"
       id="use34"
       style="display:inline;opacity:1;fill:url(#pattern472);fill-opacity:1;stroke:#000000;stroke-width:1;stroke-dasharray:none;stroke-opacity:1;filter:url(#filter35)"
       transform="translate(0.2674,-0.12038666)" /><use
       x="0"
       y="0"
       xlink:href="#g382"
       id="use52"
       style="display:inline;opacity:1;fill:#dfdddd;fill-opacity:1;filter:url(#filter58)" /><g
       id="g951"
       style="display:inline;opacity:1;fill:#faddb3;fill-opacity:1"
       transform="translate(1422.6475,873.32087)"><path
         id="path951"
         style="display:inline;fill:#faddb3;fill-opacity:1;stroke:none;stroke-width:0.265;stroke-linecap:butt;stroke-linejoin:miter;stroke-dasharray:none;stroke-opacity:1"
         d="m -505.4199,-549.9588 1.47123,2.64015 6.73551,10.10274 3.92844,5.51904 2.43241,2.7125 3.27422,2.99361 9.07335,3.08715 5.33249,1.02888 9.448,0.18707 9.35395,1.40301 7.20318,1.12242 5.98671,3.55482 5.89318,6.08025 1.68414,4.49016 1.87069,3.64836 5.98671,6.08025 4.95784,5.42551 3.74189,7.76438 3.27422,8.23206 2.15129,4.77076 2.33887,10.38335 1.30948,5.51904 3.36776,9.26094 3.46077,6.17378 0.74879,5.23844 0.2806,9.82214 -0.18707,11.22567 -0.46767,9.1674 1.21595,7.20266 2.80603,6.73499 4.20956,4.8643 5.61258,3.27422 5.05137,3.08715 5.23896,3.08664 11.69282,12.06748 3.55482,4.39663 8.04447,6.64145 2.86443,0.98289 V -549.9588 Z" /></g><g
       id="g396"
       style="display:inline;opacity:1;fill:#c5b1a3;fill-opacity:1"
       transform="translate(1422.6475,873.32087)"><path
         style="font-variation-settings:normal;display:inline;opacity:1;vector-effect:none;fill:#c5b1a3;fill-opacity:1;stroke:none;stroke-width:1;stroke-linecap:butt;stroke-linejoin:miter;stroke-miterlimit:4;stroke-dasharray:none;stroke-dashoffset:0;stroke-opacity:1;-inkscape-stroke:none;stop-color:#000000;stop-opacity:1"
         d="m -467.48347,-511.20902 -3.79755,4.27213 -3.38196,8.11099 -0.22066,8.79895 5.55884,4.60592 3.42356,6.4363 0.39223,11.90315 -2.10272,7.92974 1.18236,11.01742 9.55652,-1.4025 9.18962,-5.81566 4.56148,-9.01496 -1.6233,-8.7768 -5.42064,-9.42208 1.25909,-6.67586 -2.82265,-7.24492 -3.42602,-6.30001 -4.71116,-4.03407 -0.76493,-2.24287 -3.63891,-3.95935 z"
         transform="translate(-8.7500002e-6)"
         id="path408" /><path
         style="font-variation-settings:normal;display:inline;opacity:1;vector-effect:none;fill:#c5b1a3;fill-opacity:1;stroke:none;stroke-width:1;stroke-linecap:butt;stroke-linejoin:miter;stroke-miterlimit:4;stroke-dasharray:none;stroke-dashoffset:0;stroke-opacity:1;-inkscape-stroke:none;stop-color:#000000;stop-opacity:1"
         d="m -569.41792,-487.69118 -5.76915,5.09943 -5.45549,6.13193 -3.41787,2.21485 -3.53777,0.4563 -3.71761,2.83394 -7.25898,1.78749 -7.72408,4.62762 -0.54777,2.70216 1.3441,7.4936 7.65483,4.46588 8.18038,-0.63097 7.81865,-2.92851 9.66504,1.81075 6.8032,-0.0258 8.55814,-2.43758 7.97264,5.16093 6.09161,6.68279 6.73396,7.62331 8.2026,4.93148 14.29525,-0.16381 3.21578,-2.15435 0.64342,-5.80434 -4.07521,-8.15764 -5.34696,-3.82767 1.48002,-8.03517 0.81442,-6.1619 -0.88574,-1.96422 -3.75274,-3.10059 -7.8481,-2.28461 -2.7156,-1.18649 -2.3828,-3.82251 -6.55515,-2.86804 -7.64088,-1.61282 -8.11837,0.29042 -4.72632,-5.91644 -3.61994,-0.60823 z"
         transform="translate(-8.7500002e-6)"
         id="path410" /></g><g
       id="g364"
       style="display:inline;opacity:1;stroke:#bbd8e7;stroke-width:1.5;stroke-dasharray:none;stroke-opacity:1"
       transform="translate(9.7916669e-6)"><path
         style="display:inline;opacity:1;fill:none;stroke:#bbd8e7;stroke-width:1.5;stroke-dasharray:none;stroke-opacity:1"
         d="m 825.15045,470.2528 2.58761,4.58612 0.79014,4.58611 0.63613,3.52777 1.06083,3.5016 3.74474,2.17851 3.50288,1.2063 2.49804,3.30367 1.80532,2.19763 1.3156,2.78174 0.39971,2.82222 0.69548,4.58611 1.96396,3.07372 2.98845,1.43212 3.175,0.0806 2.79613,0.22824 1.53246,1.24919 0.50678,3.10834 -1.16376,3.52777 -1.32541,4.93889 -2.03803,2.82222 -2.86159,5.99602 -1.42248,2.19367 -3.00343,1.25832 -0.96325,1.19045 0.22832,1.70911 1.00046,3.52744 0.0208,3.52777 0.48903,4.58611 -1.46743,3.17104 -2.2481,2.33319 -3.13332,1.30948 -3.84851,1.23576 -3.06054,4.95319 -1.80652,1.65726 -4.3372,2.19142 -1.76389,0.23324 -2.11667,0.19189 -3.46146,0.41513 -1.79903,2.27773 -2.50097,1.65692 -2.11632,0.95515 -2.92557,1.26711 -0.80719,2.2574 -1.62548,3.56498 -5.93065,1.42196 -3.88029,0.55449 -2.02279,0.50712 -2.74824,4.18166 -1.64435,2.40398 -3.08491,2.0817 -2.25214,3.62821 0.24718,6.35 1.84115,4.2124 1.93649,2.53068 2.43568,3.13469 2.82257,-1.52376 3.88021,-2.21528 2.82222,-0.38129 6.35,1.55804 7.05556,0.56293 4.16408,2.36515 5.71249,3.12487 2.31812,-1.1163 2.62318,-2.15757 5.04698,-2.82584 1.2609,-4.09372 1.24256,-2.76702 2.32639,-1.32085 5.29141,-0.48903 2.90757,-2.48262 1.52024,-3.8716 1.3168,-1.92099 2.21683,0.60135 1.58449,1.15152 2.44851,-0.18673 3.88056,-1.68602 3.52778,-1.4292 7.13246,-3.59048 1.13697,-2.82222 -0.45354,-3.35346 -3.17483,-1.50843 -1.34169,-1.5143 0.12643,-2.79604 1.10501,-6.34879 -2.74599,-3.12401 -2.13097,-2.87442 -0.64268,-3.175 0.13238,-3.175 1.18899,-2.46445 1.85733,-1.97628 6.27679,-1.04748 3.52778,-0.30885 3.88056,-0.19896 2.1127,0.18259 2.28961,2.28962 0.1037,2.81826 -1.56347,3.88055 -1.32361,5.64445 1.30458,2.4436 5.4988,3.05959 2.21158,2.96347 2.31648,3.88021 4.68852,3.74276 4.58611,0.48093 2.82222,-0.40721 4.52531,-4.87446 0.37284,-4.58612 -0.51022,-2.82222 -2.29366,-3.32004 -3.1526,-1.39388 -3.175,-0.5526 -3.58841,-1.942 -1.1051,-3.01824 4.34073,-3.40341 3.52743,-0.11903 2.4412,-2.47393 -2.0991,-2.30201 -3.86927,-0.81941 -2.01564,-1.23145 -1.33299,-2.70733 0.5109,-2.04053 3.19025,-1.27262 3.324,-2.02382 3.69504,-6.64387 1.83236,-1.97077 3.46404,-0.21308 2.93729,4.28691 2.39692,4.93768 1.19933,1.6862 2.51802,2.22037 2.97492,1.53238 3.5165,-0.95533 1.89902,-2.02296 -0.55302,-6.49349 -3.78323,-2.18091 -2.57228,-2.99775 -0.0617,-4.19286 2.4188,-4.17942 2.31088,-0.10714 2.46919,1.77681 3.52778,1.97904 3.52778,1.67001 3.52407,0.56913 3.48101,-2.76797 0.63183,-1.76268 0.40764,-2.82222 -0.11446,-5.99722 -2.99146,-3.42271 -1.76363,-0.6711 -3.175,-0.13918 -3.175,0.36121 -2.46919,1.01476 -2.72051,-1.73426 -0.0664,-2.39503 1.99626,-3.59324 -1.37408,-2.05569 -2.19177,-1.86328 0.23883,-4.19871 -0.85894,-4.93889 -0.95119,-2.46565 0.52511,-1.96784 1.67432,-2.97518 -0.88496,-2.4691 -0.89977,-2.46945 0.0698,-2.11667 0.15132,-3.175"
         id="path653" /></g></g></svg>
