<?xml version="1.0" encoding="UTF-8" standalone="no"?>
<!-- Created with Inkscape (http://www.inkscape.org/) -->

<svg
   width="200mm"
   height="200mm"
   viewBox="0 0 200 199.99999"
   version="1.1"
   id="svg1"
   xml:space="preserve"
   xmlns:xlink="http://www.w3.org/1999/xlink"
   xmlns="http://www.w3.org/2000/svg"
   xmlns:svg="http://www.w3.org/2000/svg"><defs
     id="defs1"><pattern
       xlink:href="#pattern296"
       preserveAspectRatio="xMidYMid"
       id="pattern15"
       patternTransform="matrix(0.2,0,0,0.2,9149.7462,9062.9529)" /><pattern
       xlink:href="#pattern6"
       preserveAspectRatio="xMidYMid"
       id="pattern296"
       patternTransform="matrix(0.2,0,0,0.2,9149.7462,9062.9529)" /><pattern
       xlink:href="#pattern4"
       preserveAspectRatio="xMidYMid"
       id="pattern6"
       patternTransform="matrix(0.2,0,0,0.2,7268.6866,7220.5309)"
       x="0"
       y="0" /><filter
       style="color-interpolation-filters:sRGB"
       id="filter1"
       x="-0.091666738"
       y="-0.091666734"
       width="1.1833335"
       height="1.1833335"><feColorMatrix
         id="feColorMatrix1"
         values="0 0 0 0 0.80000000000000004 0 0 0 0 0.89000000000000001 0 0 0 0 0.96999999999999997 0 0 0 1 0"
         in="SourceAlpha" /><feMorphology
         radius="10"
         id="feMorphology1"
         operator="dilate" /><feGaussianBlur
         stdDeviation="5"
         id="feGaussianBlur1" /></filter><filter
       style="color-interpolation-filters:sRGB"
       id="filter2"
       x="-0.010416677"
       y="-0.010812214"
       width="1.0208334"
       height="1.0216244"><feGaussianBlur
         stdDeviation="1"
         id="feGaussianBlur4"
         in="SourceAlpha"
         result="result3" /><feColorMatrix
         id="feColorMatrix5"
         values="0 0 0 0 0 0 0 0 0 0 0 0 0 0 0 0 0 0 9 -4"
         result="result4" /><feMorphology
         radius="0.10000000000000001"
         id="feMorphology5"
         result="result6"
         operator="dilate" /><feColorMatrix
         id="feColorMatrix4"
         values="0 0 0 0 0.72999999999999998 0 0 0 0 0.84999999999999998 0 0 0 0 0.91000000000000003 0 0 0 1 0"
         result="result1"
         in="result6" /><feMorphology
         radius="1"
         id="feMorphology4"
         in="result4"
         operator="erode"
         result="result5" /><feComposite
         id="feComposite8"
         in2="result5"
         operator="out"
         in="result1" /></filter><filter
       style="color-interpolation-filters:sRGB"
       id="filter29"
       x="-0.13166679"
       y="-0.13666639"
       width="1.2633336"
       height="1.2733328"><feColorMatrix
         id="feColorMatrix4-1"
         values="0 0 0 0 0.85999999999999999 0 0 0 0 0.92000000000000004 0 0 0 0 0.95999999999999996 0 0 0 1 0"
         in="SourceAlpha"
         result="result11" /><feMorphology
         radius="9"
         id="feMorphology24"
         operator="dilate"
         result="result9"
         in="result11" /><feGaussianBlur
         stdDeviation="5"
         id="feGaussianBlur24"
         result="result1"
         radius="5" /><feTurbulence
         id="feTurbulence24"
         baseFrequency="0.10000000000000001"
         type="turbulence"
         result="result8" /><feColorMatrix
         id="feColorMatrix24"
         values="0 0 0 0 0 0 0 0 0 0 0 0 0 0 0 0 0 0 1 0"
         result="result2" /><feComposite
         id="feComposite24"
         operator="in"
         result="result3"
         in="result1" /><feGaussianBlur
         stdDeviation="4"
         id="feGaussianBlur26"
         in="result3"
         result="result10" /><feBlend
         mode="overlay"
         id="feBlend26"
         result="result7"
         in2="result1" /></filter><filter
       style="color-interpolation-filters:sRGB"
       id="filter16"
       x="-0.022416688"
       y="-0.023267885"
       width="1.0448334"
       height="1.0465358"><feTurbulence
         id="feTurbulence14"
         baseFrequency="0.5"
         type="turbulence"
         result="result10" /><feGaussianBlur
         stdDeviation="0.20000000000000001"
         id="feGaussianBlur15"
         result="result5" /><feColorMatrix
         id="feColorMatrix14"
         values="0 0 0 0 0.57999999999999996 0 0 0 0 0.55000000000000004 0 0 0 0 0.46999999999999997 0 0 0 10.800000000000001 -5.4000000000000004"
         result="result4" /><feGaussianBlur
         stdDeviation="0.25"
         id="feGaussianBlur16"
         result="result11" /><feMorphology
         radius="7"
         id="feMorphology6"
         in="SourceAlpha"
         result="result25" /><feColorMatrix
         id="feColorMatrix6"
         values="0 0 0 0 1 0 0 0 0 1 0 0 0 0 1 0 0 0 -1 0.40000000000000002"
         in="result25" /><feGaussianBlur
         stdDeviation="3"
         id="feGaussianBlur6"
         result="result26" /><feTurbulence
         id="feTurbulence16"
         type="fractalNoise"
         baseFrequency="0.14999999999999999"
         result="result20" /><feMorphology
         radius="0.69999999999999996"
         id="feMorphology10"
         operator="dilate" /><feBlend
         mode="normal"
         id="feBlend6"
         in="result26"
         result="result29" /><feColorMatrix
         id="feColorMatrix9"
         values="0 0 0 0 0.94999999999999996 0 0 0 0 0.90000000000000002 0 0 0 0 0.84999999999999998 0 0 0 20 -13"
         result="result28" /><feColorMatrix
         id="feColorMatrix3"
         values="0 0 0 0 0.95999999999999996 0 0 0 0 0.92000000000000004 0 0 0 0 0.85999999999999999 0 0 0 20 -14"
         result="result24"
         in="result29" /><feBlend
         mode="normal"
         id="feBlend9"
         in="result24"
         result="result30"
         in2="result28" /><feComposite
         id="feComposite16"
         in="result11"
         in2="result23"
         operator="over"
         result="result13" /><feColorMatrix
         id="feColorMatrix10"
         values="0 0 0 0 0.98999999999999999 0 0 0 0 0.93999999999999995 0 0 0 0 0.88 0 0 0 1 0"
         in="SourceAlpha"
         result="result32" /><feBlend
         mode="normal"
         id="feBlend10"
         result="result31"
         in="result13"
         in2="result32" /><feGaussianBlur
         stdDeviation="1"
         id="feGaussianBlur8"
         in="SourceAlpha" /><feColorMatrix
         id="feColorMatrix8"
         values="1 0 0 0 0 0 1 0 0 0 0 0 1 0 0 0 0 0 9 -4"
         result="result27" /><feComposite
         id="feComposite9"
         in="result31"
         operator="in"
         result="result22" /></filter><filter
       style="color-interpolation-filters:sRGB"
       id="filter50"
       x="0"
       y="0"
       width="1"
       height="1"><feGaussianBlur
         stdDeviation="1"
         id="feGaussianBlur30"
         result="result1"
         in="SourceAlpha" /><feColorMatrix
         id="feColorMatrix41"
         values="0 0 0 0 0 0 0 0 0 0 0 0 0 0 0 0 0 0 8 -4"
         in="result1"
         result="result2" /><feMorphology
         radius="0.20000000000000001"
         id="feMorphology44"
         result="result8" /><feMorphology
         radius="1.6000000000000001"
         id="feMorphology45"
         in="result2"
         result="result3" /><feMorphology
         radius="1.8"
         id="feMorphology46"
         in="result2"
         result="result4" /><feComposite
         id="feComposite46"
         in="result2"
         operator="out"
         result="result7"
         in2="result8" /><feComposite
         id="feComposite47"
         in="result3"
         operator="out"
         in2="result4"
         result="result5" /><feBlend
         mode="normal"
         id="feBlend47"
         in2="result7"
         result="result12" /><feTurbulence
         id="feTurbulence47"
         baseFrequency="0.14999999999999999"
         result="result13"
         type="turbulence" /><feColorMatrix
         id="feColorMatrix47"
         values="0 0 0 0 0 0 0 0 0 0 0 0 0 0 0 0 0 0 400 -30"
         result="result14" /><feComposite
         id="feComposite48"
         result="result11"
         operator="in"
         in2="result14"
         in="result12" /><feGaussianBlur
         stdDeviation="0.29999999999999999"
         id="feGaussianBlur48"
         in="result11" /><feColorMatrix
         id="feColorMatrix48"
         values="0 0 0 0 0.58999999999999997 0 0 0 0 0.59999999999999998 0 0 0 0 0.56000000000000005 0 0 0 5 0"
         result="result6" /><feColorMatrix
         id="feColorMatrix49"
         values="0 0 0 0 0.90000000000000002 0 0 0 0 0.91000000000000003 0 0 0 0 0.80000000000000004 0 0 0 1 0"
         in="result2"
         result="result16" /><feGaussianBlur
         stdDeviation="0.5"
         id="feGaussianBlur49"
         result="result20" /><feMorphology
         radius="4"
         id="feMorphology49"
         in="result2"
         result="result19" /><feComposite
         id="feComposite49"
         in="SourceGraphic"
         in2="result19"
         operator="in"
         result="result21" /><feComposite
         id="feComposite50"
         in="result21"
         in2="result20" /><feGaussianBlur
         stdDeviation="0.29999999999999999"
         id="feGaussianBlur50" /><feBlend
         mode="normal"
         id="feBlend50"
         in="result6"
         in2="result17"
         result="result18" /></filter><pattern
       patternUnits="userSpaceOnUse"
       width="313.52823"
       height="342.8656"
       patternTransform="translate(7268.6866,7220.5309)"
       preserveAspectRatio="xMidYMid"
       id="pattern4"
       style="fill:#000000"><g
         id="g29"
         style="display:inline;opacity:1;stroke-width:1.12392"
         transform="matrix(3.3623359,0,0,3.3632535,-7266.5867,-7120.2171)"><rect
           style="font-variation-settings:normal;opacity:1;fill:#e6e9cd;fill-opacity:1;stroke:none;stroke-width:1.34871;stroke-linecap:butt;stroke-linejoin:miter;stroke-miterlimit:4;stroke-dasharray:none;stroke-dashoffset:0;stroke-opacity:1"
           id="rect28"
           width="93.247147"
           height="101.94462"
           x="2161.1721"
           y="2117.0623" /><path
           id="path1-12"
           style="font-variation-settings:normal;display:inline;opacity:1;vector-effect:none;fill:none;fill-opacity:1;stroke:#9a9c87;stroke-width:1.34871;stroke-linecap:round;stroke-linejoin:round;stroke-miterlimit:4;stroke-dasharray:none;stroke-dashoffset:0;stroke-opacity:1;-inkscape-stroke:none;stop-color:#000000;stop-opacity:1"
           d="m 2177.6608,2145.2849 1.7891,1.0638 m -0.6286,-3.143 1.8374,1.4507 m 0.4352,-3.6751 1.0637,2.031 m 1.8859,-3.0464 0.677,1.4507 m 7.8154,-7.0892 1.5473,0.9671 m -0.145,-3.4815 1.3055,1.1604 m 0.4352,-3.0946 1.2088,2.0792 m 2.7078,-2.5144 0.3385,0.9671 m -13.5312,25.3035 1.3539,1.9342 m 2.0309,-1.9825 -0.1451,1.4022 m -5.0288,1.9342 2.7562,1.0154 m 7.9783,-3.4331 1.8375,2.853 m -2.7079,1.0154 2.1275,1.0638 m 2.1276,-3.3364 0.097,1.1604 m 2.2726,-3.4814 v 1.0637 m 1.0735,8.6956 1.5474,1.4989 m 1.2088,-3.4814 v 2.321 m 2.1275,0.8219 -0.7253,1.2573 m 2.3694,1.0637 -0.7253,0.6287 m -7.5916,6.3827 0.048,1.9342 m 1.0155,-2.9496 1.7891,1.2572 m -6.6728,-1.1604 1.3539,-0.2418 m -3.143,-5.174 0.048,0.9188 m -2.611,-2.9497 -0.2901,2.9497 m -2.8046,-0.822 1.2573,1.5473 m -0.9671,7.2531 1.4506,-0.3385 m -0.048,3.7233 1.5474,-1.3539 m 1.7405,2.9496 0.7253,-1.4022 m 11.7016,-1.9342 0.9187,2.0309 m 0.9188,-3.53 1.3055,1.3541 m -1.354,-3.1431 2.5629,0.5803 m -30.7404,-7.8043 1.7407,0.4835 m -4.2068,1.3056 h 2.4177 m -0.7736,3.4815 1.3055,-1.0637 m -17.6128,-7.6941 2.321,1.4506 m 0.5803,-2.8529 0.967,1.2572 m -3.433,3.8684 1.5956,-0.1451 m 47.6281,-11.3633 0.1451,1.4507 m 2.0308,-2.9496 -0.3869,2.9496 m 2.3694,-1.0639 -1.2089,1.3539 m 2.9013,0.9671 -0.8221,0.4353 m 3.5781,12.427 1.8859,0.7737 m -2.2243,3.7233 2.5628,-0.1934 m -1.4991,3.8199 2.0793,-1.8374 m -6.0442,6.2377 1.5474,-0.5802 m -0.2418,3.7716 1.8857,-1.8375 m 0.7736,3.8683 0.8705,-2.0308 m 8.075,-10.3479 -0.048,2.176 m 2.8528,-2.7562 -0.5802,1.499 m 2.3209,1.0154 -1.4022,1.354 m 3.4815,1.4022 -1.2088,0.5319 m 10.5409,-5.8992 1.8375,-0.9671 m 0.1934,2.0792 2.1276,-0.048 m -2.4661,2.176 1.4023,0.1933 m -2.0309,2.853 0.9671,0.5802 m -24.6602,-32.8809 0.5802,-2.9496 m 1.2089,3.9167 1.4022,-2.5628 m 0.048,4.1585 0.9186,-0.9188 m 0.9672,3.1915 1.1605,-0.1452 m 12.3301,-2.466 -0.2901,1.8374 m 3.4815,-0.4351 -1.6441,1.3539 m 2.7078,1.4989 -1.2088,0.7737 m -33.6363,-14.6166 1.7779,1.7096 m 0.3419,-3.3508 1.0258,2.1883 m 2.2566,-2.3934 -0.6154,1.778 m -11.8985,-8.3428 1.436,1.5045 m 0.2736,-4.3766 1.3677,3.0773 m 1.9146,-2.3935 -0.3419,1.9832 m 10.4625,-1.231 2.1197,1.231 m 1.9147,-2.2567 -0.2734,1.9832 m 3.8293,-0.1368 -1.5043,1.0258 m 8.3425,-9.3686 -0.342,2.325 m 3.214,-1.0257 -1.9147,1.983 m 1.8463,1.2993 -1.436,0.9574 m 7.0434,-2.667 0.889,2.0516 m 3.419,-2.8722 -1.436,2.8038 m 3.8294,0.2051 -1.7095,0.889 m 4.4448,0.8206 -1.436,0.6155 m -53.2012,52.4499 -0.889,1.6413 m 2.6668,-0.889 -0.2051,2.6669 m 2.1883,-3.0089 0.3418,1.9148 m -15.3175,10.7362 -0.6154,2.667 m 2.6669,-2.4619 0.069,2.1199 m -3.6245,-3.4192 -1.0257,1.2993 m -7.5905,-0.1367 -1.9146,-1.1626 m 1.2992,2.8722 h -3.0087 m 4.5131,-3.4192 -0.7521,-1.0941 m 39.7299,1.9147 -1.0257,1.436 m 3.0772,-0.6154 -0.889,3.214 m 3.0088,-2.8037 -0.2051,1.9147 m 0.068,-58.7412 -0.889,1.1625 m 22.4292,-2.667 -0.2736,2.8721 m 2.9404,-1.1625 -1.2308,1.3677 m -4.3764,-2.4618 0.6838,2.7353 m 6.4963,0.7522 -1.6412,0.889 m -10.4582,20.2867 0.967,2.7078 m 1.9342,-2.1277 v 1.9342 m -5.1256,-0.097 1.354,1.5474 m 5.8991,-1.9343 -0.8704,1.6441 m -3.5782,21.0824 -0.097,2.2244 m 1.8374,-4.1586 2.0308,3.3848 m -0.3868,-4.642 1.9341,0.5803 m -71.6867,-3.7963 2.7352,2.0514 m -0.1368,-3.419 1.2993,2.2566 m -3.4191,2.5302 1.9147,0.2735 m 4.103,-5.4023 -0.2736,1.9147 m 59.4924,-66.1951 1.7096,2.3251 m 1.5727,-4.3081 0.1367,2.8721 m 2.9404,-2.2567 -0.547,1.5045 m 2.8037,-0.9574 -0.2735,1.436 m -17.1639,85.7527 -0.2051,1.5045 m 3.8293,-2.5302 0.9574,1.9831 m 1.2308,-2.9405 2.1883,3.4876 m -1.2308,-5.1972 3.0087,1.5728 m 6.2911,0.2736 -0.2051,1.2309 m 3.5558,-1.6412 0.2736,1.436 m 1.2309,-2.3933 2.1198,3.0088 m 0.4787,-4.7869 2.0515,0.8206 m -51.2182,-4.3081 -1.2308,0.889 m 3.214,0.8206 -1.2993,1.7096 m 2.9404,-1.2993 -0.5471,4.2397 m 2.8037,-4.9236 0.7522,2.1883 m -24.789,-35.8014 1.1604,1.2571 m 7.499,41.242 -1.1604,0.7737 m 3.6748,1.1605 -1.1605,1.5473 m 3.1914,-0.2901 -2.2243,2.8045 m 3.4814,-2.2243 -0.3868,1.8375 m 10.751,-4.5602 v 1.2572 m 2.7079,-2.4177 0.097,2.4177 m 1.5474,-2.7078 2.5144,3.0946 m -1.1606,-4.4485 1.5474,-0.097 m 21.0975,8.0885 -0.3869,1.3539 m 4.0617,-1.4506 -0.1934,2.2243 m 2.7078,-3.2881 0.9671,1.9342 m 1.8374,-3.4816 1.3539,1.8376 m -52.3433,-67.6588 0.4786,1.5728 m 2.8037,-3.2824 -0.8206,3.3508 m 3.3507,-0.8206 -1.7095,1.6412 m 3.9661,0.7522 -1.2308,0.2051 m -36.3793,-8.753 1.2309,-1.2309 m -1.0941,3.214 4.1029,-0.6839 m -3.4875,2.8721 1.2309,0.342 m -1.9831,1.5044 0.8206,0.7522 m 6.3595,4.3765 1.2993,2.3251 m 1.9147,-1.7096 -0.6838,2.0515 m 2.6669,-0.2735 -1.1625,0.9573 m -5.2654,0.068 1.2308,0.2052 m 1.2309,5.0607 -0.6154,1.4361 m 2.325,-1.5728 0.2735,3.0772 m 1.5044,-3.3508 0.8206,1.1625 m 0.6154,-2.2566 1.2993,-0.068 m -1.8463,-30.978 -2.9405,-1.3677 m 3.1456,-1.6412 1.2993,1.436 m 1.2308,-1.7095 0.2736,1.436 m -6.0176,10.0524 2.0514,-1.6412 m 0.3419,2.2566 1.2309,-1.6412 m 0.6838,2.2567 0.4787,-1.3677 m -5.0603,-2.9405 1.9831,-0.4103 m -11.6933,-10.5994 1.5044,0.2051 m -1.7779,-2.9404 3.4874,1.2992 m 0.6155,-3.0088 1.0941,1.5728 m 17.2323,-0.068 -0.1368,1.7096 m 3.6926,-2.3254 -1.9831,3.0088 m 3.3508,-0.9573 -1.9147,1.7779 m 4.0345,0.889 -2.0515,0.5471 m 20.036,-4.1714 -1.1625,1.8463 m 3.6926,-1.0257 -1.1625,3.4875 m 3.8978,-3.4875 -0.2735,2.5986 m 2.5301,-2.8721 0.5471,1.5044 m -52.9277,88.2829 v 1.9831 m 3.6242,-2.1199 -2.6669,3.214 m 3.8978,-0.2735 -2.6669,1.2309 m 2.872,1.5044 -2.3933,0.5471" /></g></pattern></defs><g
     id="layer2"
     style="display:none;opacity:1"
     transform="translate(-1881.0596,-1842.422)"><path
       id="rect1"
       clip-path="none"
       style="display:inline;opacity:1;fill:#c2d6ed;fill-opacity:1;stroke-width:0.264583px;-inkscape-stroke:none"
       d="m 1861.0598,1822.4222 v 221.2201 h 239.9998 v -221.2201 z" /><g
       id="g281"
       transform="matrix(1.8183898,0,0,1.8188387,1336.9717,751.7235)"
       style="display:inline;opacity:1;fill:#c1d7ec;fill-opacity:1;stroke-width:0.549869"><path
         id="path32"
         style="display:inline;fill:#cde2f7;stroke-width:0.145486px"
         d="m 288.21548,588.6716 v 131.95223 h 131.9848 V 588.6716 Z" /></g><g
       id="g2"
       style="display:inline;opacity:1;mix-blend-mode:normal;fill:#fcf0e0;fill-opacity:1;stroke:#bad9e8;stroke-width:2;stroke-dasharray:none"
       transform="translate(0.00329406)"><path
         id="path252"
         style="display:inline;opacity:1;fill:#fcf0e0;fill-opacity:1;stroke:#bad9e8;stroke-width:2;stroke-dasharray:none"
         d="m 438.40899,949.10132 v 231.21998 h 93.80306 l -0.14883,-10.0004 0.03,-0.6139 0.84801,-1.5441 0.84749,-1.5426 0.25063,-1.5523 0.25012,-1.5513 0.46457,-1.094 0.46457,-1.0945 1.87689,-1.8247 1.87688,-1.8227 1.45831,-0.3844 1.45831,-0.3824 0.43718,-0.5271 0.43667,-0.5271 h 1.048 1.04748 l 0.8971,0.7059 0.89711,0.7059 h 0.93224 0.93224 l 0.88573,-1.0108 0.88626,-1.0088 -0.1416,-1.5477 -0.14159,-1.5482 -0.28164,-0.3529 -0.28163,-0.352 -0.2527,-1.4112 -0.25322,-1.4118 1.09813,1.0319 1.09812,1.0305 2.39262,0.027 2.39314,0.027 1.0113,-0.7942 1.01131,-0.7933 1.09916,0.01 1.09864,0.01 2.2841,1.5482 2.2841,1.5477 0.67748,-0.3628 0.67747,-0.3627 0.81959,-0.9302 0.81959,-0.9302 0.0114,-2.5952 0.0114,-2.5952 -0.88212,-0.6935 -0.88212,-0.694 v -1.1307 -1.1306 l 0.52349,-0.7473 0.524,-0.7477 -0.39533,-1.1829 -0.39532,-1.1829 -0.3049,-0.3354 -0.30437,-0.3348 v -0.6227 -0.6227 l -0.71572,-0.3829 -0.52865,-0.6848 0.85938,-0.126 0.67231,0.1757 2.31666,-0.3607 2.31665,-0.3608 1.18908,-0.9064 1.18855,-0.9069 h 0.37259 0.37259 l 1.88722,0.8785 1.88722,0.8785 h 0.66043 0.65991 l 2.45979,-0.9606 2.45929,-0.9607 0.62476,-1.2439 0.62529,-1.2443 0.24805,-1.3674 0.24856,-1.3668 0.86351,-1.3049 0.86352,-1.3048 0.97978,-0.7245 0.97979,-0.7245 1.89394,-0.2604 1.89342,-0.2605 0.85628,-1.0175 0.85628,-1.0175 0.23978,1.4195 0.99529,1.5974 0.99528,1.5978 0.85577,1.309 0.85627,1.3084 0.25012,3.528 0.2496,3.5274 0.24701,0.5974 0.24701,0.5973 0.58705,0.1174 0.58756,0.1167 2.46961,-0.3074 2.4691,-0.3075 0.72864,-0.6718 0.72812,-0.6713 h 0.83664 0.83613 l 0.76998,0.723 0.76946,0.7234 h 3.56257 3.56258 l 1.37976,-0.7038 1.37976,-0.7038 0.21962,-0.5731 0.22014,-0.5731 0.002,-2.3523 0.002,-2.3523 0.36742,-1.3229 0.36742,-1.323 h 1.02422 1.02475 l 1.86913,0.4197 1.86966,0.4196 0.52916,-0.095 0.52917,-0.095 1.98231,-0.8811 1.98282,-0.8811 0.78497,-1.0619 0.78496,-1.062 0.30799,-1.0738 0.308,-1.0738 -0.69402,-0.8832 -0.69453,-0.8826 v -1.1746 -1.1746 l 0.68213,-0.3654 0.68265,-0.3653 h 2.11873 2.11925 l 0.21807,0.3529 0.21808,0.353 h 0.83871 0.83871 l 4.34392,-1.0496 4.34392,-1.049 3.175,-1.0289 3.175,-1.0289 0.97151,-1.4169 0.97152,-1.417 1.58233,-0.9276 1.58285,-0.9271 2.86546,-0.418 2.86546,-0.4176 0.66611,0.8222 0.66559,0.8222 v 2.266 2.2655 l -0.88832,1.7533 -0.88832,1.7534 -0.69918,0.4362 -0.69918,0.4366 v 0.9607 0.9602 l 0.69763,1.7699 0.69763,1.7694 -0.031,2.1885 -0.031,2.1885 0.55501,0.4056 0.55449,0.4057 1.92649,0.431 1.9265,0.4309 0.42323,0.5101 0.42323,0.51 h 0.77928 0.7798 l 0.85473,-1.3229 0.85472,-1.3229 2.82309,-0.3529 0.43666,-0.055 V 949.10132 Z"
         transform="translate(1422.6475,873.32087)" /></g><g
       id="g368"
       style="display:inline;opacity:1;fill:url(#pattern15);fill-opacity:1;stroke:none;stroke-opacity:1"
       transform="translate(1422.6475,873.32087)"><path
         style="font-variation-settings:normal;display:inline;opacity:1;vector-effect:none;fill:url(#pattern15);fill-opacity:1;stroke:none;stroke-width:0.264583px;stroke-linecap:butt;stroke-linejoin:miter;stroke-miterlimit:4;stroke-dasharray:none;stroke-dashoffset:0;stroke-opacity:1;-inkscape-stroke:none;stop-color:#000000;stop-opacity:1"
         d="m -282.36412,615.71293 2.91914,-0.30959 4.29028,-3.40569 6.98828,-3.89221 1.99032,-2.47684 -0.0442,-3.71531 -1.85764,-6.36905 0.66345,-3.273 -3.67107,-5.92677 -2.43263,-2.74222 -4.24604,-1.23844 -3.273,0.97306 -5.79408,0.4423 -4.55565,-1.01729 -4.86524,-1.14996 -6.36907,1.06151 -6.10368,3.22876 -1.54805,2.69801 -4.86524,3.4499 -2.43263,1.8134 -1.41536,3.98068 0.88461,1.85764 2.03456,2.21147 1.94609,3.22876 0.70768,3.44991 -0.61923,4.42296 0.92882,2.29994 4.0249,2.52108 4.20182,2.25573 3.273,0.84035 h 3.80373 l 2.65377,-2.74222 3.75952,-0.48655 3.36145,0.22117 3.00763,-2.38839 z"
         id="path370"
         transform="translate(-8.7500002e-6)" /><path
         style="fill:url(#pattern15);fill-opacity:1;stroke:none;stroke-width:0.264583px;stroke-linecap:butt;stroke-linejoin:miter;stroke-opacity:1"
         d="m 535.86382,1159.222 -6.50425,-3.2156 -4.45799,-0.95 -3.06941,-2.9233 -3.21559,-0.8039 -4.01949,-1.1693 -4.01947,0.3654 -2.92328,-0.4385 -1.68087,-2.0462 -2.77709,-0.1462 -2.99633,-2.9233 -3.28869,-3.2156 -2.92325,-4.1656 -0.14616,-5.408 0.87697,-4.3849 1.38856,-4.1657 2.04628,-2.4847 1.38854,-4.0926 0.43849,-2.3386 -1.53472,-5.1888 -2.04626,-3.3618 -0.29233,-2.704 -0.36542,-6.5042 -4.16563,-8.4775 -2.11936,-3.0694 -0.80391,-2.0463 0.58465,-4.531 1.90013,-3.6541 3.5079,-3.8733 4.09257,-2.2656 2.26552,-3.1425 5.84653,-4.6041 4.09257,-3.7272 3.43482,-2.8501 3.58101,-2.5579 2.3386,-4.2387 1.82702,-5.5542 1.38856,-2.4117 5.1157,-2.8502 9.28137,-3.3617 5.40803,-1.2424 3.28866,-1.2424 2.11937,-1.3155 4.96953,-2.8502 3.14251,-2.4847 2.85017,-0.2923 3.72716,0.8038 5.77345,1.6809 2.77709,-0.3654 5.55419,-1.3885 6.32463,-1.6336 6.61458,-0.4134 5.271,1.9637 7.028,3.514 4.3408,2.5838 2.37713,4.0308 1.75699,5.271 0.10337,5.0643 1.13686,5.0642 1.75702,2.0671 4.23746,2.067 2.58382,1.2403 2.27377,0.31 1.34358,1.757 0.93017,3.1006 -1.03351,4.5476 -1.5503,3.7207 v 3.1005 l 3.10057,5.9945 3.7207,4.961 1.96371,2.2737 1.5503,4.1341 0.82683,2.4805 -2.37713,5.1676 -3.20394,2.3772 -4.54753,10.2319 -0.31004,5.7877 -0.50242,5.5065 -1.34172,3.5034 -1.24996,6.1743 -1.82053,3.0261 -3.16104,0.7039 h -3.56258 l -2.93452,-0.2073 -0.82682,-0.7234 -2.06706,0.1033 -3.09095,1.0315 h -3.83367 l -0.42938,-2.8871 -0.37491,-5.2917 -3.70262,-5.8125 -1.5242,0.1067 -4.2155,1.0296 -2.82308,2.7539 -1.2361,3.3553 -1.37408,3.1719 -3.68918,1.441 -4.43746,-0.3982 -2.63239,-0.8785 -5.85262,2.3545 -1.44565,1.5097 1.39992,3.97 -1.04748,2.6257 1.32317,2.1715 0.42396,4.2395 -0.82529,2.2277 -1.8358,1.4744 -3.76489,-2.1405 -2.96753,-0.6568 -7.18069,1.3962 -1.26787,1.2891 0.424,3.2719 -1.77199,2.0195 h -1.39836 l -2.26033,-1.4113 h -2.09548 l -1.603,1.2452 -3.1259,1.487 z"
         id="path368" /><path
         style="font-variation-settings:normal;display:inline;opacity:1;vector-effect:none;fill:url(#pattern15);fill-opacity:1;stroke:none;stroke-width:0.264583px;stroke-linecap:butt;stroke-linejoin:miter;stroke-miterlimit:4;stroke-dasharray:none;stroke-dashoffset:0;stroke-opacity:1;-inkscape-stroke:none;stop-color:#000000;stop-opacity:1"
         d="m 1397.6917,933.74902 0.7107,-4.4422 4.2645,-9.86168 1.5992,-4.53104 2.2211,-3.6426 3.2872,-2.75415 5.7749,-0.88845 3.6426,0.88845 3.0207,3.37608 3.376,8.88437 1.5992,6.39677 0.4442,2.48762 1.7769,5.24179 2.31,3.90914 1.8657,4.2645 0.3554,3.82029 1.1549,3.90912 3.0207,5.41948 3.2873,4.61986 2.221,3.99799 0.5331,1.24381 v 6.21909 l -2.0434,6.75213 -2.3988,4.08682 -2.3988,1.24381 -7.4628,0.53307 -5.0641,-0.97729 -4.8864,-4.53103 -5.5084,-3.82029 -3.6426,-4.44219 -3.0207,-5.77485 -0.2665,-5.8637 -0.6219,-4.88641 -2.0434,-5.41948 -5.7749,-10.03935 -1.1549,-2.48763 z"
         id="path373"
         transform="translate(-1422.6475,-873.32087)" /><path
         style="font-variation-settings:normal;opacity:1;vector-effect:none;fill:url(#pattern15);fill-opacity:1;stroke:none;stroke-width:0.264583px;stroke-linecap:butt;stroke-linejoin:miter;stroke-miterlimit:4;stroke-dasharray:none;stroke-dashoffset:0;stroke-opacity:1;-inkscape-stroke:none;stop-color:#000000;stop-opacity:1"
         d="m -83.65728,-253.26677 6.345025,2.51291 3.957797,2.13593 7.036064,2.76418 2.575719,3.83214 0.376925,3.83215 0.439764,7.0989 0.6282,7.66429 1.067991,4.77449 1.005152,2.38723 -0.691039,3.39241 -3.392408,2.95264 -6.973252,5.52834 -4.083421,2.45007 h -2.450068 l -3.894984,-2.57572 -5.402686,-3.64369 -5.151411,-4.14625 -2.261605,-4.586 -0.376925,-4.46037 -1.75903,-4.33472 -1.130802,-4.71168 2.135954,-6.8476 3.706522,-5.84245 2.073116,-3.70652 1.947492,-3.76931 z"
         id="path374" /><path
         style="font-variation-settings:normal;display:inline;opacity:1;vector-effect:none;fill:url(#pattern15);fill-opacity:1;stroke:none;stroke-width:0.264583px;stroke-linecap:butt;stroke-linejoin:miter;stroke-miterlimit:4;stroke-dasharray:none;stroke-dashoffset:0;stroke-opacity:1;-inkscape-stroke:none;stop-color:#000000;stop-opacity:1"
         d="m 650.98432,65.115641 1.63338,0.753851 2.38725,6.784789 0.12563,4.900137 1.00517,3.141106 1.13078,1.633379 3.26676,-1.005152 5.02576,0.125624 5.15141,1.88468 1.25645,2.135955 2.26161,0.6282 1.88465,-2.135955 2.01031,0.502603 5.77963,2.010304 4.64884,-0.125651 3.14111,1.382078 1.00517,4.146276 0.12564,2.638528 -4.90012,7.538647 -7.41301,5.02577 -7.66429,4.52319 -7.16172,1.88467 -5.4027,1.88466 h -4.14626 l -5.90528,-1.00515 -6.65914,-1.88467 -5.52835,-5.65399 -2.63852,-7.413003 -0.62823,-5.905278 0.62823,-9.548959 4.2719,-5.905277 2.01031,-3.518038 4.02061,-3.769326 3.01546,-4.774479 z"
         id="path377"
         transform="translate(-8.7500002e-6)" /><path
         style="font-variation-settings:normal;display:inline;opacity:1;vector-effect:none;fill:url(#pattern15);fill-opacity:1;stroke:none;stroke-width:0.264583px;stroke-linecap:butt;stroke-linejoin:miter;stroke-miterlimit:4;stroke-dasharray:none;stroke-dashoffset:0;stroke-opacity:1;-inkscape-stroke:none;stop-color:#000000;stop-opacity:1"
         d="m 1536.6285,1922.2306 3.0155,0.5025 3.1411,3.1412 0.8795,1.8846 1.5077,0.377 4.6489,-1.3821 5.5283,0.3769 4.7745,3.3924 0.6282,3.3924 0.5026,4.1463 1.8846,1.382 4.3976,-0.3769 3.6437,-1.0051 3.1411,1.6333 2.3872,2.3873 2.2616,4.9001 -0.6282,3.6437 -2.7642,3.8949 -3.0154,1.2565 -1.3821,2.6385 v 3.3924 l -1.6334,2.2616 -3.0154,1.3821 -1.6334,0.5026 -2.5129,2.8898 -4.6488,1.5077 -3.7694,0.3769 -3.7693,-2.2616 -2.8898,-1.759 -2.0103,0.7539 -1.759,2.1359 -5.2771,0.2513 -6.2822,-4.1462 -4.3976,-6.2823 -4.5231,-6.6591 -2.3873,-3.0154 -1.3821,-6.2823 1.3821,-10.931 5.0258,-6.2822 3.6437,-1.8847 h 2.3872 z"
         id="path378"
         transform="translate(-1422.6475,-873.32087)" /><path
         style="font-variation-settings:normal;opacity:1;vector-effect:none;fill:url(#pattern15);fill-opacity:1;stroke:none;stroke-width:0.264583px;stroke-linecap:butt;stroke-linejoin:miter;stroke-miterlimit:4;stroke-dasharray:none;stroke-dashoffset:0;stroke-opacity:1;-inkscape-stroke:none;stop-color:#000000;stop-opacity:1"
         d="m -923.08618,864.46403 4.96295,0.81669 5.65399,0.43974 2.63853,-0.25128 1.69619,-0.81669 2.01033,0.25128 1.38207,2.01033 0.81669,2.45004 1.31927,1.57057 4.20907,0.31411 1.63338,0.25127 1.31926,3.51804 2.63854,3.58087 0.50257,1.63338 0.50258,2.57569 1.19361,2.57572 2.70135,2.76415 0.87952,1.82184 1.13078,3.58087 0.12565,2.63853 0.94234,2.13596 1.19361,2.13595 1.25646,1.06797 -0.12565,1.88465 -1.50773,2.19879 -4.2091,0.50258 -2.13593,1.06796 -2.57572,2.76419 -3.45522,1.63338 -1.94749,0.12562 -5.33987,-0.94231 -2.32442,1.1308 h -3.07827 l -0.87952,-0.75388 -5.84245,-0.37692 -4.02061,-2.32442 -3.01546,-1.69619 -2.76418,-3.58087 -3.9578,-2.32442 -4.14626,-0.18846 -2.32441,-2.32442 -2.45004,-2.32442 -1.82185,-1.50773 -2.70137,-1.50772 -2.45004,0.25127 -1.75903,1.00515 -2.0103,-0.56539 -1.25645,-2.38725 -0.18847,-4.02061 0.31412,-4.96295 1.82184,-3.70649 1.63338,-0.50258 3.83214,-3.83215 6.8476,-4.64883 2.26161,-0.94234 h 2.63853 l 5.65399,-3.89496 z"
         id="path379" /><path
         style="font-variation-settings:normal;opacity:1;vector-effect:none;fill:url(#pattern15);fill-opacity:1;stroke:none;stroke-width:0.264583px;stroke-linecap:butt;stroke-linejoin:miter;stroke-miterlimit:4;stroke-dasharray:none;stroke-dashoffset:0;stroke-opacity:1;-inkscape-stroke:none;stop-color:#000000;stop-opacity:1"
         d="m -1004.2523,775.6964 5.40268,-0.75388 2.70135,0.31412 2.95264,1.94749 1.44492,2.19877 0.50257,2.76418 1.82184,2.07311 1.13078,2.45007 -0.0628,3.32957 -1.44492,4.2091 -0.62822,0.6282 0.2513,5.0886 -0.94234,2.8898 -2.19877,1.88468 -1.31927,0.69104 -0.43976,1.50773 0.75388,1.63338 2.19876,0.69104 2.63854,0.0628 1.1308,1.00515 0.12565,3.32957 0.25127,2.01033 0.50258,2.07312 0.0628,2.32442 -1.57057,2.51288 -1.88465,1.82184 -0.37693,1.57056 1.06797,1.82185 2.8898,1.31926 3.64369,1.63335 3.45522,1.31927 1.88468,1.88468 1.44488,2.13595 0.0628,1.57054 -0.37695,3.51804 -1.759,2.57571 -3.89499,1.82185 -3.95779,1.31926 -6.53349,-0.43976 -4.71165,0.8795 -2.3244,-0.25128 -9.0464,-2.32441 -1.8219,-2.26161 -1.0679,-3.51803 0.063,-2.07312 -2.0731,-4.64883 -2.0104,-4.96295 -0.9423,-5.27706 1.3193,-2.32442 1.759,-1.94749 -0.063,-1.44492 -1.8847,-3.89496 -2.1359,-9.23485 0.691,-6.47068 2.1359,-2.70134 5.2143,-2.827 3.2039,-2.32441 2.0731,-1.63338 0.5026,-2.38723 -0.7538,-3.20395 -1.5078,-2.6385 0.4398,-1.88468 z"
         id="path380" /><path
         style="font-variation-settings:normal;opacity:1;vector-effect:none;fill:url(#pattern15);fill-opacity:1;stroke:none;stroke-width:0.264583px;stroke-linecap:butt;stroke-linejoin:miter;stroke-miterlimit:4;stroke-dasharray:none;stroke-dashoffset:0;stroke-opacity:1;-inkscape-stroke:none;stop-color:#000000;stop-opacity:1"
         d="m 1137.5839,765.23464 4.5366,3.24046 4.6293,0.46292 4.8143,-0.55552 2.8701,0.0926 5.0922,1.94427 2.5923,0.18515 7.3142,-0.92583 4.2589,-3.88853 2.4997,-1.48135 2.4072,1.66651 0.3704,3.05527 2.1294,1.57393 1.3888,3.79595 0.9258,5.55506 -0.1852,4.25887 -2.3146,4.7218 -2.3146,3.98114 v 2.96269 l -1.5739,3.24044 -4.0737,3.88852 -4.7218,2.87012 -5.5551,2.40718 -5.1847,-0.46291 -3.2404,1.38877 -5.6476,-0.6481 -2.4073,-1.85168 -3.7959,-2.77752 -2.7775,-0.83325 -3.796,-4.07371 -2.1294,-6.20316 -2.685,-9.07325 -1.2035,-5.83279 0.4629,-4.53663 3.0552,-4.44404 2.9627,-3.05528 z"
         id="path381" /><path
         style="font-variation-settings:normal;display:inline;opacity:1;vector-effect:none;fill:url(#pattern15);fill-opacity:1;stroke:none;stroke-width:0.264583px;stroke-linecap:butt;stroke-linejoin:miter;stroke-miterlimit:4;stroke-dasharray:none;stroke-dashoffset:0;stroke-opacity:1;-inkscape-stroke:none;stop-color:#000000;stop-opacity:1"
         d="m 1689.9398,353.85689 -7.3142,5.92537 -3.5182,6.29574 0.1852,7.49932 1.7591,2.68494 0.5555,4.44405 2.1294,2.22202 3.2405,0.27776 4.7217,-0.27776 2.7776,1.94427 2.7775,1.29619 2.8701,-0.27776 1.9443,-2.12945 1.111,-2.59236 7.8697,-4.72178 3.333,-4.16629 3.2404,-5.46248 -0.7406,-5.64763 -3.6108,-2.12945 -3.333,-1.38875 -2.4073,-2.96269 0.2778,-2.77752 -3.4256,-1.75911 -6.9438,0.83325 -5.0922,1.48135 z"
         id="path394"
         transform="translate(-1422.6475,-873.32087)" /><path
         style="font-variation-settings:normal;opacity:1;vector-effect:none;fill:url(#pattern15);fill-opacity:1;stroke:none;stroke-width:0.264583px;stroke-linecap:butt;stroke-linejoin:miter;stroke-miterlimit:4;stroke-dasharray:none;stroke-dashoffset:0;stroke-opacity:1;-inkscape-stroke:none;stop-color:#000000;stop-opacity:1"
         d="m 345.94159,675.23387 1.7676,-2.7496 4.58269,-3.53523 5.04095,-2.02946 2.94603,-1.5712 4.1244,-2.94603 4.32084,-2.42226 3.5352,-0.85109 3.01149,0.982 2.88054,2.02949 2.48775,1.11294 3.3388,-0.13094 2.68415,1.83309 1.7676,3.3388 -0.85106,2.81509 -1.70215,2.61866 0.72015,2.29134 v 3.46975 l -1.63669,3.01149 -3.928,2.81508 -7.65964,1.11292 -5.89203,2.74963 -4.25535,4.71361 -0.1964,2.88054 -2.3568,4.91003 -3.46974,2.81506 -5.63018,3.01149 -5.49921,1.83309 -4.71363,2.02946 -2.88054,-0.1964 -4.18989,-3.73161 -0.7856,-5.30283 2.61869,-4.64815 4.25534,-7.26683 3.66615,-4.91001 z"
         id="path395" /></g></g><g
     id="layer3"
     style="display:inline"
     transform="translate(-1881.0596,-1842.422)"><use
       x="0"
       y="0"
       xlink:href="#g281"
       id="use281"
       style="display:inline;opacity:1;fill:#cde3f8;fill-opacity:1;filter:url(#filter1)"
       clip-path="none" /><use
       x="0"
       y="0"
       xlink:href="#g2"
       id="use5"
       style="font-variation-settings:normal;display:inline;opacity:1;vector-effect:none;fill:#ffffff;fill-opacity:1;stroke:none;stroke-width:0.264583px;stroke-linecap:butt;stroke-linejoin:miter;stroke-miterlimit:4;stroke-dasharray:none;stroke-dashoffset:0;stroke-opacity:1;-inkscape-stroke:none;filter:url(#filter29);stop-color:#000000;stop-opacity:1"
       clip-path="none"
       transform="translate(-0.00329406)" /><use
       x="0"
       y="0"
       xlink:href="#g2"
       id="use1"
       style="font-variation-settings:normal;display:inline;opacity:1;vector-effect:none;fill:#f3eadb;fill-opacity:1;stroke-width:0.264583;stroke-linecap:butt;stroke-linejoin:miter;stroke-miterlimit:4;stroke-dasharray:none;stroke-dashoffset:0;stroke-opacity:1;-inkscape-stroke:none;filter:url(#filter16);stop-color:#000000;stop-opacity:1"
       clip-path="none"
       transform="translate(-0.00329406)" /><use
       x="0"
       y="0"
       xlink:href="#g368"
       id="use51"
       style="display:inline;opacity:1;filter:url(#filter50)" /><use
       x="0"
       y="0"
       xlink:href="#g2"
       id="use273"
       style="display:inline;opacity:1;fill:#faefdd;fill-opacity:1;stroke:#000000;stroke-opacity:1;filter:url(#filter2)"
       clip-path="none"
       transform="translate(-0.00329406)" /><g
       id="g396"
       style="display:inline;opacity:1;fill:#b2a49b;fill-opacity:1"
       transform="translate(1422.6475,873.32088)"><path
         id="path911"
         style="font-variation-settings:normal;display:inline;opacity:1;vector-effect:none;fill:#dcbda9;fill-opacity:1;stroke:none;stroke-width:1;stroke-linecap:butt;stroke-linejoin:miter;stroke-miterlimit:4;stroke-dasharray:none;stroke-dashoffset:0;stroke-opacity:1;-inkscape-stroke:none;stop-color:#000000;stop-opacity:1"
         d="m 438.4123,949.10131 v 19.81119 l 6.77219,-1.65261 6.49211,-18.15858 z m 34.6046,0 16.769,11.91865 -14.15779,21.92063 13.66118,12.22406 9.46558,-3.55379 2.10529,-4.78421 11.91401,-12.6509 2.75848,-7.32152 -1.98747,-7.49825 5.77536,-3.49488 4.85086,-4.96972 0.96997,-1.79007 z m 16.27239,46.06334 -16.09669,6.04305 v 22.0731 l -4.81107,6.4802 -6.01617,15.0125 -21.85397,-9.2956 3.22926,15.2849 -4.19819,10.6567 -1.13016,0.3685 v 23.6745 l 10.89649,1.9818 21.34236,-3.0975 19.05207,-0.1075 0.55552,-11.992 6.78874,-1.494 6.27041,-4.9175 4.44573,-4.3636 -0.70952,-5.8932 -6.01307,-4.3899 -6.97838,-6.6797 2.38021,-8.3969 6.39909,-5.6523 6.88382,-1.3286 6.46421,-1.6521 6.81974,-4.591 4.9692,-5.5087 3.20652,-6.6688 -4.00492,-4.931 -9.17102,-1.6231 -10.80605,-3.1967 -9.05785,-2.49911 z m 140.51597,-7.54425 -9.54618,4.1522 1.15652,8.5318 8.56071,8.1049 0.66146,9.3628 4.88498,7.8796 1.08313,8.2227 -0.42943,7.505 14.41979,13.531 8.25531,-0.1649 3.66696,-4.0375 1.47278,-6.6611 -1.58646,-8.9596 -2.63809,-9.6976 -2.84788,-12.1734 0.0594,-8.8977 -3.7915,-7.75611 -9.34516,-4.01629 -10.06812,-3.04012 z m -179.56009,11.87835 -11.83287,6.68955 v 15.4383 l 11.20706,-7.7174 z m 20.96874,59.25115 h 5.2e-4 l 3.65301,5.1754 3.65352,5.1759 h -5.2e-4 l -3.653,-5.1759 z m 1.4087,40.9417 -28.12851,4.3098 -6.0818,-1.5384 v 69.8588 h 6.03012 17.36845 v -5e-4 h 52.90943 15.91841 l 2.84634,-11.3528 -3.56775,-3.252 -7.64191,-3.1745 -6.797,-1.7901 -8.78447,-1.6464 -6.94583,-6.4089 -6.61975,-8.8765 1.29191,-8.9544 4.27726,-8.584 -1.78904,-9.4144 -5.28495,-4.7496 z"
         transform="translate(-8.7500002e-6)" /><path
         id="path462"
         style="font-variation-settings:normal;display:inline;opacity:1;vector-effect:none;fill:#dcbda9;fill-opacity:1;stroke:none;stroke-width:1;stroke-linecap:butt;stroke-linejoin:miter;stroke-miterlimit:4;stroke-dasharray:none;stroke-dashoffset:0;stroke-opacity:1;-inkscape-stroke:none;stop-color:#000000;stop-opacity:1"
         d="m 438.4123,949.10131 v 9.81077 l 6.77219,8.34781 6.56188,2.46445 -1.05885,11.3683 1.21388,8.24135 0.12143,6.76238 -9.75754,18.67533 -3.85299,3.9925 v 43.0238 l 1.13016,-0.3685 13.2426,-8.4646 9.5803,-8.1814 2.47788,-5.8813 3.53829,-9.1312 4.81107,-6.4802 14.30972,-12.4825 10.64328,-12.33721 1.07797,-19.4784 -1.16995,-18.54151 -2.83652,-11.33987 z"
         transform="translate(-8.7500002e-6)" /></g><g
       id="g364"
       style="display:inline;opacity:1;stroke:#bbd8e7;stroke-width:1.5;stroke-dasharray:none;stroke-opacity:1"><path
         style="display:inline;opacity:1;fill:none;stroke:#bbd8e7;stroke-width:1.5;stroke-dasharray:none;stroke-opacity:1"
         d="m 1964.2684,1984.0173 3.1885,3.1762 1.1532,2.4682 0.7774,2.8222 0.8821,2.4683 1.2571,2.2389 2.6195,1.8182 2.1167,0.7879 2.4694,0.1683 2.8114,0.9207 2.6119,3.2392 1.3022,2.1861 4.1288,2.0393"
         id="path1181" /><path
         style="display:inline;opacity:1;fill:none;stroke:#bbd8e7;stroke-width:1.5;stroke-dasharray:none;stroke-opacity:1"
         d="m 1904.6489,1943.8007 1.1302,0.3659 2.7503,2.0247 2.8223,1.7268 2.1154,1.1553 1.6697,1.1774 1.5232,3.4277 0.8872,3.1714 2.2959,2.7164 1.7377,0.9641 2.1345,1.9727 0.6891,4.2282 0.079,4.2333 0.563,3.5278 -0.6155,4.2333 2.6326,5.0466 1.4531,2.3621 1.7115,3.8802 2.2132,4.5861 2.7099,3.8056 4.07,1.4995 3.175,1.5164 3.175,2.5902 4.233,1.3794 2.6035,1.9225 1.2218,2.4558 0.9727,2.0714 2.9635,2.0383 2.8222,1.3768 2.4694,0.5461 4.4955,1.6118 2.1605,1.4642 1.1039,1.7272 3.3347,4.4485"
         id="path1179" /><path
         style="display:inline;opacity:1;fill:none;stroke:#bbd8e7;stroke-width:1.5;stroke-dasharray:none;stroke-opacity:1"
         d="m 1939.927,1905.7009 -0.1849,4.2333 2.9752,6.6932 2.3108,2.6994 3.9853,2.9796 2.1479,3.488 1.5349,1.3827 2.4002,0.6532 2.1167,0.5927 2.1151,1.642 1.9019,2.0942 0.9748,5.9723 2.4165,1.9198 1.9713,1.0688 0.8311,2.328 -0.5834,2.8222 -1.1786,2.4695 -0.6959,4.9389 3.2081,4.8159 3.4268,2.9588 0.1775,4.2197 -1.1454,3.1747 -1.8102,2.5354 -3.7278,2.1465 -1.5303,4.8434 0.2079,3.5166 0.4959,2.1276 -2.1312,-0.2585 -3.513,-0.5097 -3.175,-1.0116 -3.175,-0.443 -4.5861,-0.6691 -5.4963,-4.5566 -2.126,-3.1346 -1.1267,-3.8805 0.1237,-3.5278 0.9954,-4.2333 0.058,-4.2334 -2.26,-5.6444 -1.5772,-3.175 -1.0838,-4.4325 -5.1463,-4.1153 -4.0607,-2.7867 -1.9906,-3.2402 -2.0626,-0.967 -5.6444,-2.0972"
         id="path1174" /><path
         style="display:inline;opacity:1;fill:none;stroke:#bbd8e7;stroke-width:1.5;stroke-dasharray:none;stroke-opacity:1"
         d="m 1945.9243,1874.656 6.7028,2.1328 5.2806,0.2894 2.6782,2.6608 3.3261,1.655 2.2932,2.4554 0.3802,2.4482 0.1493,2.1167 0.1111,2.4694 0.2224,1.7639 0.3845,2.8222 1.2437,2.4695 1.3074,1.7627 1.9723,2.0102 1.684,2.9311 -0.069,2.821 -1.7408,3.8805 0.325,3.8592 4.088,3.2376 3.175,1.2886 3.1504,1.129 3.0549,3.5384 1.5825,3.5278 -0.379,2.8222 1.1757,3.5278 0.4711,5.2917 1.49,4.199 2.6029,2.8908 2.2011,6.5093 5.4605,2.6397 3.7658,3.5167 2.6235,3.9006 2.7855,1.3597 2.2422,1.8397 1.2685,4.1889 0.7839,2.7421 4.1471,3.0229 2.2644,4.8183 -0.2406,3.8806 -1.3999,4.9389 -0.8768,1.762 -0.6838,3.677"
         id="path1169" /><path
         style="display:inline;opacity:1;fill:none;stroke:#bbd8e7;stroke-width:1.5;stroke-dasharray:none;stroke-opacity:1"
         d="m 1868.3131,1865.836 2.8222,0.1822 4.9389,-2.5962 3.8805,-1.3904 6.35,-0.4284"
         id="path1163" /></g></g></svg>
